<svg width="20" height="16" viewBox="0 0 20 16" fill="none" xmlns="http://www.w3.org/2000/svg">
<path d="M1.75 7.33105C1.19772 7.33105 0.75 7.77877 0.75 8.33105C0.75 8.88334 1.19772 9.33105 1.75 9.33105V7.33105ZM19.4571 9.03816C19.8476 8.64764 19.8476 8.01447 19.4571 7.62395L13.0931 1.25999C12.7026 0.869462 12.0695 0.869462 11.6789 1.25999C11.2884 1.65051 11.2884 2.28368 11.6789 2.6742L17.3358 8.33105L11.6789 13.9879C11.2884 14.3784 11.2884 15.0116 11.6789 15.4021C12.0695 15.7926 12.7026 15.7926 13.0931 15.4021L19.4571 9.03816ZM1.75 9.33105H18.75V7.33105H1.75V9.33105Z" fill="white"/>
</svg>
