<?xml version="1.0" encoding="UTF-8"?>
<svg id="Layer_1" data-name="Layer 1" xmlns="http://www.w3.org/2000/svg" viewBox="0 0 413 201">
  <defs>
    <style>
      .cls-1 {
        fill: #fff;
      }

      .cls-2 {
        fill: #313333;
      }

      .cls-3 {
        fill: #1c1e1d;
      }
    </style>
  </defs>
  <rect class="cls-1" width="413" height="201" rx="23.5" ry="23.5"/>
  <g>
    <path class="cls-3" d="M313.19,25.36s-8.44,73.52-11.3,88.35c-2.44,12.68-4.95,29.41-16.11,33.77-6.25,2.44-15.74,2.22-18.87-2.71-6.76-10.63,24.73-29.15,27.57-66.02,.3-3.87,1.92-24.94-8.39-29.98-4.54-2.22-10.73-1.11-14.75,1.37-4.4,2.72-6.53,6.65-9.65,13.52-2.56,5.65-8.4,27.68-11.97,42.74-1.58,6.69-3.61,16.04-4.9,21.6l-13.7-102.65h-13.73l20.86,117.74h11.41l.11-.43c4.49-17.3,7.22-29.18,9.54-38.7,5.39-22.1,8.53-38.97,17.71-43.69,1.32-.68,4.98-2.56,7.96-.77,6.33,3.8,6.01,21.98,1.65,35.65-2.75,8.64-7.19,15.01-14.47,25.91-7.79,11.67-14.53,19.17-12.29,27.35,.28,1.04,1.04,3.27,2.94,5.25,5.64,5.88,19.24,5.06,26.39,.37,1.8-1.18,1.95-1.5,3.41-2.84,9.43-8.63,12.9-26.89,14.42-34.55,3.22-15.26,6.57-30.68,10.07-46.25,3.41-15.2,6.89-30.22,10.42-45.04h-14.35Z"/>
    <path class="cls-3" d="M78.2,25.41c-4.94,.02-7.65,.04-12.59,.06-6.96,39.23-15.14,78.45-22.09,117.67,4.47,.03,8.95,.05,13.42,.08l3.4-23.08h24.51l3.7,23.08c4.5,0,9-.01,13.49-.02-7.61-39.26-16.22-78.53-23.83-117.79Zm-16.32,84.76l9.6-70.69h1.18l10.43,70.69h-21.2Z"/>
    <path class="cls-3" d="M356.84,25.41c-4.94,.02-7.87,.04-12.81,.06-6.96,39.23-15.03,78.45-21.98,117.67,4.47,.03,8.95,.05,13.42,.08l3.4-23.08h24.51l3.7,23.08c4.5,0,9-.01,13.49-.02-7.61-39.26-16.11-78.53-23.72-117.79Zm-16.43,84.76l9.6-70.69h1.18l10.43,70.69h-21.2Z"/>
    <path class="cls-3" d="M192.1,25.14l-12.47,101.31-18.25-101.31h-13.38c-.49,2.8-.97,5.6-1.47,8.4-1.21,6.89-2.43,13.77-3.63,20.66-.53,3.07-1.08,6.14-1.61,9.2,0,0-10.07,58.92-10.7,63.2,0-.05,.01-.1,.02-.15-.09-.72-14.57-96.9-15.13-101.31h-13.74c.02,.1,22.39,117.91,22.39,117.91h12.62c5.98-30.22,11.95-60.43,17.93-90.65,.17-.01,.35-.02,.52-.03l16.64,90.68h12.97l21.21-117.91h-13.89Z"/>
  </g>
  <g>
    <polygon class="cls-2" points="55.9 171.26 48.88 171.26 48.88 165.1 45.65 165.1 45.65 180.17 48.88 180.17 48.88 173.83 55.9 173.83 55.9 180.17 59.13 180.17 59.13 165.1 55.9 165.1 55.9 171.26"/>
    <path class="cls-2" d="M82.58,165.71c-1.09-.6-2.4-.9-3.88-.9s-2.73,.29-3.84,.87c-1.12,.58-2,1.46-2.64,2.63-.63,1.17-.95,2.65-.95,4.4,0,2.43,.65,4.36,1.94,5.73,1.29,1.37,3.11,2.06,5.42,2.06s4.1-.68,5.42-2.04c1.32-1.35,1.99-3.3,1.99-5.79,0-1.68-.3-3.12-.9-4.28-.6-1.17-1.46-2.07-2.55-2.67Zm-.22,9.69c-.24,.67-.57,1.2-.96,1.57-.4,.37-.84,.64-1.31,.78-1.21,.37-2.35,.27-3.38-.25-.61-.31-1.13-.86-1.53-1.62-.4-.77-.6-1.85-.6-3.21,0-1.1,.13-2.01,.39-2.7,.26-.69,.6-1.23,1.01-1.6,.41-.37,.86-.63,1.33-.77,.47-.14,.93-.21,1.35-.21,1.17,0,2.15,.44,2.92,1.3,.77,.87,1.16,2.25,1.16,4.1,0,1.07-.12,1.95-.37,2.62Z"/>
    <polygon class="cls-2" points="96.42 167.71 100.99 167.71 100.99 180.17 104.22 180.17 104.22 167.71 108.77 167.71 108.77 165.1 96.42 165.1 96.42 167.71"/>
    <polygon class="cls-2" points="123.49 173.72 130.88 173.72 130.88 171.35 123.49 171.35 123.49 167.64 132.01 167.64 132.01 165.1 120.26 165.1 120.26 180.17 132.03 180.17 132.03 177.61 123.49 177.61 123.49 173.72"/>
    <polygon class="cls-2" points="147.15 165.1 143.91 165.1 143.91 180.17 153.95 180.17 153.95 177.56 147.15 177.56 147.15 165.1"/>
    <path class="cls-2" d="M204.24,172.53v-.13c1.34-.14,2.31-.5,2.9-1.08,.6-.59,.9-1.33,.9-2.21,0-1.38-.57-2.41-1.68-3.06-1.1-.64-2.62-.96-4.52-.96h-6.32v15.07h6.92c4.15,0,6.25-1.35,6.25-4.02,0-1.06-.37-1.92-1.1-2.55-.71-.62-1.84-.98-3.35-1.08Zm-5.58-4.96h2.92c.53,0,1.07,.05,1.58,.16,.5,.1,.92,.29,1.25,.57,.31,.27,.47,.66,.47,1.18,0,.56-.18,.98-.52,1.25-.36,.28-.82,.48-1.39,.58-.58,.1-1.19,.16-1.82,.16h-2.49v-3.89Zm6.39,9.37c-.32,.28-.72,.47-1.19,.57-.48,.1-.96,.16-1.41,.16h-3.79v-4.11h2.87c.65,0,1.29,.06,1.91,.18,.61,.12,1.11,.34,1.5,.66,.38,.31,.57,.77,.57,1.35,0,.53-.16,.93-.46,1.2Z"/>
    <polygon class="cls-2" points="225.79 172.53 222.38 165.15 222.35 165.1 218.54 165.1 224.16 175.32 224.16 180.17 227.39 180.17 227.39 175.3 232.98 165.1 229.22 165.1 225.79 172.53"/>
    <path class="cls-2" d="M285.5,174.54c-.55-.54-1.42-.88-2.6-1.01v-.11c1.45-.16,2.53-.58,3.21-1.26,.7-.69,1.05-1.56,1.05-2.59s-.29-1.84-.85-2.51c-.56-.66-1.35-1.16-2.34-1.48-.98-.32-2.12-.48-3.37-.48h-6.22v15.07h3.23v-5.35h2.66c.92,0,1.65,.19,2.15,.57,.5,.38,.87,1.01,1.09,1.87l.71,2.91h3.53l-.95-3.23c-.31-1.05-.74-1.86-1.3-2.41Zm-3.12-2.41c-.42,.15-.87,.24-1.32,.27-.46,.03-.88,.05-1.25,.05h-2.2v-4.88h2.75c.2,0,.49,.02,.9,.05,.38,.03,.78,.12,1.18,.27,.39,.14,.73,.39,1,.73,.27,.34,.4,.82,.4,1.42s-.14,1.08-.41,1.4c-.28,.33-.63,.56-1.05,.71Z"/>
    <rect class="cls-2" x="299.5" y="165.1" width="3.28" height="15.07"/>
    <path class="cls-2" d="M324.12,172.53v-.13c1.34-.14,2.31-.5,2.9-1.08,.6-.59,.9-1.33,.9-2.21,0-1.38-.57-2.41-1.68-3.06-1.1-.64-2.62-.96-4.52-.96h-6.32v15.07h6.92c4.15,0,6.25-1.35,6.25-4.02,0-1.06-.37-1.92-1.1-2.55-.71-.62-1.84-.98-3.35-1.08Zm-5.58-4.96h2.92c.53,0,1.07,.05,1.58,.16,.5,.1,.92,.29,1.25,.57,.31,.27,.47,.66,.47,1.18,0,.56-.18,.98-.52,1.25-.36,.28-.82,.48-1.39,.58-.58,.1-1.19,.16-1.82,.16h-2.49v-3.89Zm6.39,9.37c-.32,.28-.72,.47-1.19,.57-.48,.1-.96,.16-1.41,.16h-3.79v-4.11h2.87c.65,0,1.29,.06,1.91,.18,.61,.12,1.11,.34,1.5,.66,.38,.31,.57,.77,.57,1.35,0,.53-.16,.93-.46,1.2Z"/>
    <path class="cls-2" d="M349.07,165.1h-4.43l-5.51,14.96-.04,.12h3.48l1.01-3.02h6.52l1.01,3.02h3.48l-5.5-15.02-.02-.06Zm-4.73,9.82l2.44-7.32h.14l2.44,7.32h-5.03Z"/>
    <path class="cls-2" d="M377.77,173.93c-.37-.54-.85-.98-1.45-1.31-.59-.32-1.24-.59-1.94-.79-.69-.19-1.39-.37-2.09-.52-.71-.15-1.38-.32-1.99-.5-.6-.18-1.08-.4-1.44-.67-.35-.26-.52-.61-.52-1.05,0-.53,.26-.96,.79-1.31,.54-.36,1.29-.54,2.23-.54,1.06,0,1.92,.25,2.53,.75,.61,.49,.9,1.22,.87,2.16v.11s2.96-.65,2.96-.65v-.07c.02-.99-.24-1.86-.77-2.57-.53-.71-1.28-1.26-2.23-1.62-.94-.36-2.06-.55-3.32-.55-1.89,0-3.4,.41-4.49,1.21-1.1,.81-1.66,1.92-1.66,3.3,0,.8,.18,1.47,.54,2,.36,.53,.85,.96,1.45,1.29,.6,.33,1.27,.59,1.99,.8,.73,.2,1.48,.38,2.22,.53,.7,.17,1.34,.34,1.91,.51,.56,.17,1.01,.39,1.34,.65,.33,.26,.48,.58,.48,.99,0,.55-.29,1.01-.87,1.37-.59,.37-1.44,.55-2.5,.55-1.13,0-2.08-.25-2.81-.75-.72-.49-1.08-1.29-1.07-2.39v-.11s-2.92,.74-2.92,.74v.07c-.02,1.59,.57,2.82,1.76,3.65,1.17,.83,2.83,1.25,4.92,1.25s3.74-.4,4.89-1.18c1.16-.79,1.75-1.89,1.75-3.29,0-.83-.19-1.52-.56-2.07Z"/>
  </g>
</svg>