<?xml version="1.0" encoding="UTF-8"?>
<svg id="_Слой_1" data-name="Слой 1" xmlns="http://www.w3.org/2000/svg" viewBox="0 0 284.42 150.34">
  <defs>
    <style>
      .cls-1 {
        fill: #fff;
      }
    </style>
  </defs>
  <g>
    <path class="cls-1" d="M31.71,108.39c0,1.46-.29,2.68-.88,3.68s-1.42,1.79-2.49,2.4-2.35,1.05-3.84,1.31-3.13,.4-4.92,.4H0v-29.04H19.94c1.65,0,3.13,.15,4.42,.45s2.4,.74,3.3,1.31,1.59,1.29,2.06,2.14c.47,.85,.71,1.83,.71,2.93v.9c0,1.7-.52,3.03-1.55,3.98-1.03,.95-2.59,1.57-4.69,1.85,1.09,.12,2.09,.35,3.01,.71s1.71,.82,2.38,1.39,1.18,1.24,1.55,2.03c.37,.78,.56,1.65,.56,2.61v.94Zm-9.83-13.34c0-.32-.06-.63-.18-.93s-.32-.57-.6-.82-.66-.44-1.12-.59-1.05-.22-1.74-.22H8.46v5.89h9.42c1.39,0,2.41-.26,3.04-.77s.95-1.18,.95-2.02v-.56Zm1.27,11.65c-.03-.52-.16-.97-.4-1.34s-.58-.68-1.02-.91-.96-.41-1.57-.52-1.29-.16-2.03-.16H8.46v6.58h9.77c.65,0,1.28-.04,1.87-.12s1.12-.22,1.58-.44,.82-.53,1.08-.94,.39-.95,.37-1.61v-.54Z"/>
    <path class="cls-1" d="M36.85,116.18v-29.04h8.46v29.04h-8.46Z"/>
    <path class="cls-1" d="M68.16,100.35h16.68l-.08,3.21c0,.14,0,.26,0,.36s-.02,.22-.03,.36c-.13,1.6-.57,3.15-1.32,4.66-.75,1.51-1.82,2.85-3.2,4.02-1.38,1.17-3.06,2.11-5.04,2.81s-4.27,1.06-6.85,1.06c-2.98,0-5.59-.33-7.82-.99s-4.09-1.59-5.58-2.79-2.59-2.65-3.33-4.35c-.74-1.7-1.1-3.58-1.1-5.65v-2.78c0-2.1,.37-4,1.12-5.7s1.87-3.15,3.36-4.35c1.49-1.2,3.35-2.12,5.58-2.76s4.82-.97,7.79-.97c2.33,0,4.43,.25,6.31,.75s3.5,1.23,4.89,2.18,2.51,2.12,3.4,3.51c.88,1.39,1.5,2.97,1.86,4.75h-8.2c-.41-1.77-1.32-3.12-2.74-4.05s-3.27-1.4-5.55-1.4c-1.31,0-2.53,.16-3.67,.49s-2.13,.82-2.98,1.47-1.52,1.47-2.01,2.47-.73,2.15-.73,3.48v3.09c0,1.31,.24,2.45,.73,3.44s1.15,1.81,2,2.47,1.84,1.15,2.98,1.48,2.36,.49,3.67,.49c1.46,0,2.73-.15,3.8-.45s1.97-.71,2.69-1.22,1.27-1.11,1.67-1.79,.65-1.42,.75-2.2h-9.02v-5.09Z"/>
    <path class="cls-1" d="M129.33,96.58l-.21-1.29h-.12l-.21,1.31-5.87,19.58-.12-.02v.02h-10.23l-8.71-29.04h8.71l5.09,20.19,.29,3.09h.27l.4-3.13,6.03-20.15,.02,.02v-.02h8.79l6.03,20.15,.4,3.13h.25l.31-3.13,5.07-20.15h8.73l-8.71,29.04h-10.35l-5.85-19.6Z"/>
    <path class="cls-1" d="M149.39,116.18l13.32-29.04h10.88l13.32,29.04h-8.71l-2.5-5.99h-15.11l-2.5,5.99h-8.71Zm13.57-11.69h10.38l-4.74-11.42h-.88l-4.76,11.42Z"/>
    <path class="cls-1" d="M219.47,87.14l-13.23,29.04h-11.13l-13.23-29.04h8.75l9.64,23.4h.79l9.65-23.4h8.75Z"/>
    <path class="cls-1" d="M222.91,116.18v-29.04h27.6v5.97h-19.23v5.45h17.2v5.97h-17.2v5.68h19.35v5.97h-27.72Z"/>
    <path class="cls-1" d="M284.42,107.75c0,3.02-1.29,5.29-3.86,6.8-2.57,1.52-6.33,2.27-11.27,2.27-2.53,0-4.76-.27-6.69-.8s-3.54-1.26-4.85-2.18c-1.31-.92-2.29-2-2.95-3.23s-.99-2.56-.99-3.96h8.04c.03,.54,.15,1.07,.36,1.61s.6,1.02,1.16,1.44,1.31,.76,2.27,1.03,2.19,.39,3.7,.39c1.24,0,2.28-.08,3.11-.25s1.5-.39,2.01-.67,.86-.61,1.07-.99,.32-.77,.32-1.18-.08-.77-.25-1.07-.43-.58-.79-.81-.81-.43-1.35-.6-1.19-.33-1.95-.47l-8.04-1.48c-1.6-.29-2.96-.7-4.08-1.21s-2.03-1.12-2.74-1.83-1.22-1.52-1.55-2.43-.49-1.9-.49-2.98c0-.73,.1-1.45,.3-2.16s.52-1.39,.97-2.03,1.03-1.24,1.76-1.79,1.62-1.02,2.68-1.42,2.3-.72,3.72-.94,3.05-.34,4.88-.34c2.57,0,4.78,.25,6.63,.75s3.38,1.18,4.59,2.05,2.12,1.9,2.73,3.1c.61,1.2,.95,2.49,1.03,3.87h-7.51c-.1-.59-.28-1.13-.55-1.62s-.67-.92-1.23-1.29-1.29-.65-2.19-.85-2.04-.31-3.43-.31c-1.16,0-2.12,.09-2.87,.28s-1.34,.42-1.78,.7-.74,.6-.91,.95-.26,.69-.26,1.01c0,.4,.08,.75,.23,1.06s.4,.58,.74,.82,.78,.44,1.32,.62,1.21,.33,2.01,.46l6.95,1.23c1.77,.33,3.28,.74,4.54,1.22s2.29,1.06,3.1,1.74,1.39,1.47,1.77,2.37,.56,1.94,.56,3.12Z"/>
  </g>
  <g>
    <path class="cls-1" d="M23.93,134.26h9.57c1.55,0,2.88,.18,3.99,.53,1.11,.35,2.03,.84,2.74,1.47s1.24,1.36,1.58,2.21,.5,1.78,.5,2.78v1.79c0,.97-.16,1.88-.48,2.72-.32,.84-.83,1.58-1.54,2.2s-1.61,1.12-2.73,1.48c-1.12,.36-2.47,.55-4.06,.55h-9.57v-15.73Zm4.59,12.5h4.63c.72,0,1.36-.09,1.92-.27,.56-.18,1.03-.44,1.42-.79,.39-.34,.68-.76,.88-1.26,.2-.5,.3-1.07,.3-1.71v-1.32c0-.51-.08-.99-.25-1.47-.17-.47-.43-.89-.79-1.25-.36-.36-.83-.65-1.4-.87-.57-.22-1.27-.32-2.08-.32h-4.62v9.26Z"/>
    <path class="cls-1" d="M47.21,149.99v-15.73h14.95v3.23h-10.42v2.95h9.32v3.23h-9.32v3.08h10.48v3.23h-15.01Z"/>
    <path class="cls-1" d="M85.71,134.26l-7.16,15.73h-6.03l-7.16-15.73h4.74l5.22,12.67h.43l5.23-12.67h4.74Z"/>
    <path class="cls-1" d="M89.7,149.99v-15.73h14.95v3.23h-10.42v2.95h9.32v3.23h-9.32v3.08h10.48v3.23h-15.01Z"/>
    <path class="cls-1" d="M109.9,149.99v-15.72h4.58s0,12.49,0,12.49h9.17v3.23h-13.75Z"/>
    <path class="cls-1" d="M127.37,141.38c0-1.14,.2-2.17,.61-3.09,.41-.92,1.01-1.7,1.82-2.35,.81-.65,1.81-1.15,3.02-1.5s2.61-.52,4.22-.52,3.02,.18,4.22,.53c1.21,.36,2.21,.86,3.02,1.51,.81,.65,1.41,1.44,1.82,2.36,.4,.92,.61,1.94,.61,3.07v1.5c0,1.12-.2,2.14-.61,3.06-.41,.92-1.01,1.7-1.82,2.36-.81,.65-1.82,1.15-3.02,1.51-1.21,.36-2.62,.54-4.23,.54s-3.01-.17-4.21-.52-2.22-.85-3.02-1.5c-.8-.65-1.41-1.44-1.81-2.36-.4-.92-.61-1.95-.61-3.08v-1.5Zm9.66,5.71c.69,0,1.35-.08,1.96-.26,.61-.17,1.15-.43,1.61-.77,.46-.34,.82-.77,1.08-1.29,.26-.52,.4-1.12,.4-1.82v-1.63c0-.71-.13-1.32-.4-1.85-.26-.52-.62-.96-1.08-1.3-.46-.34-.99-.6-1.61-.76-.61-.17-1.27-.25-1.96-.25s-1.34,.08-1.95,.25c-.61,.17-1.14,.43-1.59,.77-.45,.34-.81,.78-1.08,1.3s-.4,1.13-.4,1.84v1.63c.01,.7,.14,1.31,.4,1.82,.26,.52,.62,.95,1.08,1.29,.45,.34,.99,.6,1.59,.77,.61,.17,1.26,.26,1.95,.26Z"/>
    <path class="cls-1" d="M168.56,140.04c0,.86-.15,1.62-.45,2.28-.3,.66-.74,1.21-1.31,1.66-.57,.45-1.26,.79-2.07,1.01s-1.73,.34-2.76,.34h-5.77v4.66h-4.57v-15.73h10.22c1.03,0,1.96,.11,2.79,.33,.83,.22,1.53,.54,2.11,.96s1.02,.93,1.34,1.54c.31,.61,.47,1.3,.47,2.07v.87Zm-4.64-.56c0-.69-.21-1.2-.63-1.51s-1.07-.47-1.97-.47h-5.12v4.62h4.96c.89,0,1.58-.18,2.05-.53,.47-.35,.71-.89,.71-1.62v-.48Z"/>
    <path class="cls-1" d="M177.38,137.88h-.16l.12,1.23,.21,10.88h-4.31v-15.73h6.2l4.53,8.76,.27,.98h.05l.28-1,4.52-8.74h6.19v15.73h-4.29l.21-10.88,.12-1.24h-.16l-4.7,9.84h-4.38l-4.71-9.83Z"/>
    <path class="cls-1" d="M201.36,149.99v-15.73h14.95v3.23h-10.42v2.95h9.32v3.23h-9.32v3.08h10.48v3.23h-15.01Z"/>
    <path class="cls-1" d="M234.85,149.99l-9.03-10.29h-.07l.14,1.14,.07,9.15h-4.37v-15.73h4.38l9.16,10.55h.07l-.11-1.06-.08-9.49h4.37v15.73h-4.51Z"/>
    <path class="cls-1" d="M254.26,137.49v12.5h-4.59v-12.5h-6.23v-3.23h17.05v3.23h-6.24Z"/>
  </g>
  <g>
    <path class="cls-1" d="M126.3,41.99c11.8-1.88,22.42-7.4,33.35-10.92,16.82-6,32.13-2.69,48.2,4.18-21.47-19.46-42.32-17.95-67.57-7.45-24.31,10.2-40.32,7.47-63.71-3.47,12.74,12.85,31.38,21.09,49.73,17.67Z"/>
    <path class="cls-1" d="M132.33,20.26c11.42-2.63,21.6-10.87,32.41-12.57,3.46-.62,7.11-.65,10.87-.23,3.78,.4,7.61,1.28,11.63,2.15-3.02-2.76-6.49-5.07-10.35-6.81-12.19-5.83-25.7-1.63-36.88,4.16-15.58,8.28-26.48,7.48-43.04,2.65,9.06,9.04,22.65,13.96,35.35,10.65Z"/>
    <path class="cls-1" d="M140.02,48.55c-15.58,8.28-26.48,7.48-43.04,2.65,9.06,9.04,22.65,13.96,35.35,10.65,11.42-2.63,21.6-10.87,32.41-12.57,3.46-.62,7.11-.65,10.87-.23,3.78,.4,7.61,1.28,11.63,2.15-3.02-2.76-6.49-5.07-10.35-6.81-12.19-5.83-25.7-1.63-36.88,4.16Z"/>
  </g>
</svg>