<?xml version="1.0" encoding="UTF-8"?>
<svg id="_Слой_1" data-name="Слой 1" xmlns="http://www.w3.org/2000/svg" viewBox="0 0 369.12 367.38">
  <defs>
    <style>
      .cls-1 {
        fill: #666;
      }
    </style>
  </defs>
  <path class="cls-1" d="M369.12,124.73c-.27,8.65-5.46,15.37-14.38,17.96-16.36,4.75-32.75,9.39-49.13,14.07-18.07,5.16-36.14,10.32-54.22,15.45-12.85,3.64-21.94-1.3-25.59-14.06-9.86-34.44-19.67-68.9-29.45-103.37-3.21-11.32,2.07-20.9,13.33-24.12,34.69-9.93,69.38-19.82,104.09-29.67,11.77-3.34,21.2,1.96,24.57,13.74,9.85,34.45,19.67,68.9,29.46,103.36,.62,2.17,.9,4.43,1.34,6.65Z"/>
  <path class="cls-1" d="M147.43,293.64c0,17.82,.02,35.63,0,53.45-.02,12.93-7.28,20.26-20.14,20.27-35.76,.03-71.53,.03-107.29,0-12.63-.01-19.97-7.41-19.98-20.05-.02-35.76-.02-71.52,0-107.28,0-12.68,7.35-20.04,19.95-20.05,35.89-.01,71.78-.01,107.67,0,12.36,0,19.75,7.4,19.78,19.83,.04,17.94,.01,35.89,.01,53.83Z"/>
  <path class="cls-1" d="M.01,127.62c0-17.94-.02-35.89,0-53.83,.02-12.3,7.57-19.84,19.83-19.84,35.89-.01,71.78-.01,107.67,0,12.36,0,19.88,7.43,19.89,19.77,.04,36.01,.04,72.02,0,108.04-.01,11.95-7.37,19.59-19.26,19.63-36.27,.11-72.54,.1-108.81,0C7.41,201.36,.05,193.74,.02,181.83c-.04-18.07-.01-36.14-.01-54.21Z"/>
  <path class="cls-1" d="M239.79,219.97c17.95,0,35.89-.01,53.84,0,12.32,.01,19.81,7.49,19.82,19.83,.02,35.89,.02,71.77,0,107.66,0,12.34-7.46,19.87-19.79,19.88-36.02,.04-72.03,.04-108.05,0-12.14-.02-19.58-7.47-19.6-19.66-.05-36.01-.05-72.02,0-108.04,.02-12.36,7.51-19.66,19.95-19.67,17.95-.02,35.89,0,53.84,0Z"/>
</svg>