<svg width="20" height="19" viewBox="0 0 20 19" fill="none" xmlns="http://www.w3.org/2000/svg">
<path d="M18.3334 13.4311V15.9311C18.3344 16.1632 18.2868 16.3929 18.1939 16.6056C18.1009 16.8182 17.9645 17.0091 17.7935 17.166C17.6225 17.3229 17.4206 17.4423 17.2007 17.5167C16.9809 17.591 16.7479 17.6187 16.5168 17.5978C13.9525 17.3191 11.4893 16.4429 9.32511 15.0394C7.31163 13.76 5.60455 12.0529 4.32511 10.0394C2.91676 7.86543 2.04031 5.39026 1.76677 2.81443C1.74595 2.58398 1.77334 2.35173 1.84719 2.13245C1.92105 1.91317 2.03975 1.71167 2.19575 1.54078C2.35174 1.36989 2.54161 1.23335 2.75327 1.13986C2.96492 1.04637 3.19372 0.997979 3.42511 0.997761H5.92511C6.32953 0.993781 6.7216 1.13699 7.02824 1.40071C7.33488 1.66442 7.53517 2.03063 7.59177 2.43109C7.69729 3.23115 7.89298 4.0167 8.17511 4.77276C8.28723 5.07103 8.31149 5.39519 8.24503 5.70683C8.17857 6.01847 8.02416 6.30452 7.80011 6.5311L6.74177 7.58943C7.92807 9.67572 9.65549 11.4031 11.7418 12.5894L12.8001 11.5311C13.0267 11.307 13.3127 11.1526 13.6244 11.0862C13.936 11.0197 14.2602 11.044 14.5584 11.1561C15.3145 11.4382 16.1001 11.6339 16.9001 11.7394C17.3049 11.7965 17.6746 12.0004 17.9389 12.3123C18.2032 12.6242 18.3436 13.0224 18.3334 13.4311Z" stroke="#F3F3F3" stroke-width="1.6" stroke-linecap="round" stroke-linejoin="round"/>
</svg>
