<?xml version="1.0" encoding="UTF-8"?>
<svg id="_Слой_1" data-name="Слой 1" xmlns="http://www.w3.org/2000/svg" viewBox="0 0 300.92 370.91">
  <defs>
    <style>
      .cls-1 {
        fill: #f59b1a;
      }
    </style>
  </defs>
  <path class="cls-1" d="M195.16,370.44c4.3-3.82,9.62-7.65,13.81-12.45,9.99-11.44,13.67-25.48,14.93-40.27,2.2-25.68-6.85-48.45-18.49-70.49-3.47-6.56-7.48-12.83-11.8-19.19,.51,10.23-1.49,19.33-9.67,26.79-1.95-30.08-19.35-49.72-42.43-66.43,0,6.4,.06,12.08-.01,17.76-.26,22.01-8.83,40.21-24.76,55.31-8.05,7.63-15.67,15.75-23.04,24.03-18.77,21.09-16.85,49.52-.48,71.05,2.17,2.85,4.75,5.48,7.5,7.78,2.74,2.29,5.93,4.05,9.76,6.59-5.04-.61-9.34-1.01-13.6-1.67-20.57-3.16-40.4-8.62-58.44-19.37-18.18-10.83-31.56-25.53-36.15-46.79-5.91-27.35-.39-52.43,15.92-75.09,5.24-7.28,10.5-14.6,16.37-21.37,11.43-13.19,13.64-28.37,10.68-44.83-.89-4.96-2.34-9.82-3.71-15.43,19.92,12.04,39.4,23.67,45.22,48.52,.3-.21,.6-.42,.9-.63,0-1.19,.02-2.38,0-3.56-.53-22.67,1.68-45.04,12.24-65.4,5.74-11.07,13.87-20.92,20.95-31.29,3.23-4.73,6.47-9.47,9.81-14.12,12.33-17.19,15.17-35.93,9.06-56.06-2.37-7.81-5.06-15.53-7.78-23.81,1.89,1.11,3.65,2.04,5.32,3.13,35.46,23.25,61.04,54.48,74.67,94.75,3.94,11.64,5.32,24.15,7.83,36.01,15.42-14.62,19.79-33.6,17.08-54.88,.43,.08,.78,.05,.86,.18,24.01,38.66,44.21,79.08,56.25,123.18,5.54,20.31,8.49,40.99,6.16,62.12-4.34,39.46-23.72,69.15-58.15,88.9-14.87,8.53-30.81,14.21-46.81,17.05Z"/>
</svg>