<svg width="32" height="31" viewBox="0 0 32 31" fill="none" xmlns="http://www.w3.org/2000/svg">
<path d="M10 1.83105H5.5C4.70435 1.83105 3.94129 2.14713 3.37868 2.70973C2.81607 3.27234 2.5 4.03541 2.5 4.83105V9.33105M29.5 9.33105V4.83105C29.5 4.03541 29.1839 3.27234 28.6213 2.70973C28.0587 2.14713 27.2956 1.83105 26.5 1.83105H22M22 28.8311H26.5C27.2956 28.8311 28.0587 28.515 28.6213 27.9524C29.1839 27.3898 29.5 26.6267 29.5 25.8311V21.3311M2.5 21.3311V25.8311C2.5 26.6267 2.81607 27.3898 3.37868 27.9524C3.94129 28.515 4.70435 28.8311 5.5 28.8311H10" stroke="#41CDC0" stroke-width="3.6" stroke-linecap="round" stroke-linejoin="round"/>
</svg>
