<?xml version="1.0" encoding="UTF-8"?>
<svg id="_Слой_1" data-name="Слой 1" xmlns="http://www.w3.org/2000/svg" viewBox="0 0 294.19 383.3">
  <defs>
    <style>
      .cls-1 {
        fill: #00b0a4;
      }
    </style>
  </defs>
  <path class="cls-1" d="M56.35,383.3c-3.13-.72-6.32-1.26-9.39-2.19-26.29-7.96-42.48-25.48-46.25-52.6-3.61-26.03,6.69-46.8,28.46-61.58,2.43-1.65,3.2-3.22,3.16-5.97-.14-10.6-.07-21.2-.05-31.81,.01-4.59,1.85-6.95,5.38-7.05,3.64-.1,5.81,2.47,5.83,7.08,.04,10.09,.01,20.18,.01,30.33,6.12-1.06,11.94-2.06,18.24-3.15v-4.17c0-23.7,0-47.4,0-71.1,0-8.23,2.24-10.47,10.4-10.48,1.7,0,3.4,0,5.99,0-8.73-12.09-16.99-23.52-25.54-35.34-8.69,11.81-17.07,23.2-26.01,35.35,3.47,0,6.14-.05,8.8,.01,4.82,.11,7.91,2.78,8.04,7.51,.2,7.6,.15,15.22,.03,22.82-.06,3.76-2.51,6.04-5.81,5.94-3.32-.11-5.3-2.36-5.34-6.33-.06-6.08-.02-12.17-.02-18.73-4.05,0-7.75-.04-11.44,.01-3.47,.04-6.47-.84-8.16-4.16-1.67-3.29-.73-6.2,1.36-9.03,10.53-14.23,20.98-28.52,31.51-42.76,4.45-6.02,9.78-5.97,14.22,.13,10.26,14.12,20.44,28.3,30.71,42.41,2.12,2.91,3.35,5.88,1.46,9.34-1.78,3.24-4.76,4.13-8.23,4.07-3.45-.06-6.9-.01-10.54-.01v75.43c4.65,1.34,9.38,2.71,14.68,4.23,0-2.06-.01-3.98,0-5.89,.07-9.45,5.74-15.19,15.11-15.22,7.73-.03,15.46,0,23.5,0V119.06c-3.66,0-7.48-.06-11.29,.02-3.53,.07-6.4-1-8-4.35-1.52-3.19-.59-5.97,1.42-8.69,10.6-14.33,21.12-28.73,31.72-43.07,4.19-5.67,9.64-5.71,13.77-.03,10.5,14.41,20.9,28.89,31.37,43.32,1.99,2.75,2.74,5.6,1.11,8.73-1.63,3.12-4.41,4.16-7.79,4.09-3.48-.07-6.96-.02-10.75-.02v121.06h10.16c.06-.83,.16-1.77,.2-2.7,.28-5.71-.7-11.86,1.14-17,2.16-6.02-2.46-10.53-1.32-16.14,1.1-5.37-.84-11.24,2.37-16.41,.26-.41,.15-1.26-.1-1.74-3.74-7.09-2.11-14.72-1.81-22.06,.28-6.97,6.57-11.91,13.92-12.01,8.11-.11,16.22-.03,24.32-.03,1.34,0,2.69,0,4.27,0V60.43c-3.83,0-7.52-.02-11.22,0-3.46,.02-6.45-.9-8.14-4.21-1.7-3.33-.61-6.2,1.47-9.01,10.61-14.33,21.13-28.72,31.73-43.06,4.06-5.49,9.54-5.56,13.53-.08,10.58,14.5,21.05,29.09,31.59,43.62,1.91,2.63,2.55,5.43,1.13,8.42-1.52,3.2-4.34,4.29-7.69,4.3-3.61,.02-7.22,0-11.09,0v91.61c5.43,0,10.98,.03,16.53-.01,4.33-.03,8.21,1.18,11.06,4.49,1.42,1.65,3.06,3.76,3.2,5.77,.56,7.88,2.06,15.88-1.25,23.59-.32,.75-.19,1.85,.07,2.69,2.73,8.91,2.8,17.79-.05,26.7-.26,.82-.24,1.87,.02,2.69,2.8,8.91,2.8,17.78,0,26.69-.26,.83-.3,1.88-.03,2.69,2.87,8.9,2.79,17.78,.06,26.69-.26,.84-.35,1.89-.09,2.7,2.89,9.03,2.96,18.01-.07,27.02-.24,.71-.21,1.65,.03,2.37,2.97,9.01,2.97,18.01,0,27.02-.24,.72-.33,1.7-.03,2.36,3.46,7.69,2.12,15.73,1.36,23.57-.53,5.44-5.97,9.53-11.55,10.14-1.85,.2-3.73,.2-5.6,.2-56.26,0-112.51,.02-168.77-.04-3.12,0-5.66,.67-8.27,2.56-8,5.78-17,9.3-26.81,10.69-.84,.12-1.65,.45-2.47,.69h-13.47Zm-45.11-63.33c-.04,28.66,23.1,52,51.65,52.1,28.75,.1,52.23-23.21,52.31-51.92,.08-28.5-23.29-52.01-51.76-52.09-28.85-.08-52.16,23.1-52.2,51.92Zm145.22-79.77v-4.37c0-13.85,0-27.69,0-41.54,0-24.7,0-49.4,0-74.09,0-10.92,1.39-12.32,12.18-12.37,1.15,0,2.29-.11,3.91-.2-8.63-11.94-16.88-23.34-25.37-35.08-8.62,11.71-17.06,23.2-25.96,35.29,2.11,0,3.43,0,4.76,0,10.49,0,12.01,1.55,12.01,12.18,0,38.54,0,77.09,0,115.63,0,1.46,0,2.92,0,4.55h18.47Zm47.01,29.64h4.18c14.22,0,28.43,0,42.65,0,9.35,0,18.7-.05,28.06,.02,2.93,.02,4.43-1,4.31-4.14-.14-3.36-.1-6.73-.01-10.1,.07-2.84-1.15-4.11-4.02-4.04-3.86,.1-7.73,.06-11.6,0-4.17-.06-6.55-2.07-6.6-5.49-.06-3.53,2.44-5.67,6.79-5.71,3.87-.04,7.73-.07,11.6,0,2.7,.06,3.88-1.13,3.83-3.81-.06-3.24-.18-6.49,.03-9.72,.24-3.67-1.37-4.75-4.86-4.7-10.85,.15-21.7,.05-32.54,.05-16.96,0-33.92,.06-50.88-.05-3.53-.02-5.08,1.17-4.82,4.78,.19,2.6,.03,5.23,.04,7.85,0,5.35,.22,5.57,5.44,5.58,14.22,0,28.43,0,42.65,0,4.99,0,7.62,1.99,7.57,5.69-.04,3.69-2.57,5.53-7.7,5.53-10.1,.01-20.2,0-30.3,.01-1.3,0-2.6,.11-3.79,.17v18.06Zm47.51-118.02c0-1.77,0-3.25,0-4.73,0-29.42,0-58.85,0-88.27,0-7.15,2.47-9.58,9.7-9.62,1.93-.01,3.87,0,6.65,0-8.84-12.21-17.1-23.63-25.57-35.33-8.71,11.85-17.07,23.21-25.97,35.33,2.36,0,3.69,0,5.02,0,10.21,.01,11.82,1.65,11.82,12.02,0,28.55,0,57.1,0,85.65v4.96h18.34ZM113.9,281.25c2.89,5.67,5.51,11.02,8.37,16.23,.5,.91,2,1.76,3.07,1.8,5.35,.19,10.72,.08,16.08,.1,3.01,.01,5,1.43,5.63,4.41,.78,3.71-1.73,6.63-5.99,6.76-4.95,.14-9.9,.03-14.89,.03v17.66c.2,.18,.3,.33,.39,.33,20.82,.05,41.63,.09,62.45,.12,2.22,0,3.09-1.32,3.1-3.36,.02-3.62-.04-7.23,.04-10.85,.06-2.87-1.22-3.98-4.09-3.93-6.36,.12-12.72,.09-19.07,.01-4.28-.05-6.77-2.37-6.62-5.91,.14-3.41,2.46-5.26,6.74-5.29,6.11-.03,12.22-.1,18.33,.03,3.3,.07,4.9-1.12,4.73-4.56-.14-2.74-.02-5.48-.03-8.23-.02-5.18-.35-5.53-5.51-5.53-23.19,0-46.38,0-69.57,0-1.09,0-2.17,.11-3.17,.17Zm122.17-70.25c13.97,0,27.93-.06,41.9,.04,3.3,.02,4.91-1.08,4.69-4.55-.16-2.61-.03-5.24-.03-7.85,0-5.73-.22-5.96-5.85-5.96-27.06,0-54.12,0-81.18,0-.87,0-1.75-.01-2.62,.04-2.23,.12-3.41,1.23-3.38,3.56,.04,3.24,0,6.48,0,9.73,.02,4.41,.57,4.99,4.93,4.99,13.84,.02,27.68,0,41.52,0Zm.02-29.56c13.71,0,27.43,0,41.14,0,5.14,0,5.37-.23,5.39-5.18,.01-2.74-.14-5.49,.04-8.23,.23-3.55-1.2-4.89-4.79-4.83-9.47,.16-18.95,.05-28.42,.05-18.2,0-36.4,0-54.61,0-4.77,0-5.21,.44-5.24,5.06-.02,2.74-.02,5.49,0,8.23,.03,4.44,.45,4.88,4.97,4.89,13.84,.02,27.68,0,41.52,0Zm-90.25,70.17c-13.95,0-27.91-.01-41.86,0-4.38,0-4.88,.54-4.91,5.01-.02,2.37,0,4.73,0,7.1,0,5.62,.5,6.12,6.24,6.12,24.29,0,48.59,0,72.88,0,3.36,0,6.73-.04,10.09,0,2.63,.03,3.92-1.13,3.87-3.81-.05-3.24-.14-6.48,.03-9.71,.19-3.58-1.33-4.8-4.86-4.76-13.83,.14-27.66,.06-41.48,.06Zm57.57,47.76c8.82,0,17.28,0,25.74,0,16.21,0,32.42-.04,48.63,.03,3.14,.01,5.07-.78,4.87-4.39-.15-2.86-.02-5.73-.03-8.6-.02-4.98-.34-5.33-5.3-5.33-23.44-.01-46.89,0-70.33,0-1.2,0-2.39,.13-3.59,.2v18.08Zm.04,28.88c.36,.17,.57,.36,.79,.36,25.05,.04,50.1,.1,75.15-.05,1.08,0,2.91-1.91,3.07-3.11,.44-3.18,.18-6.46,.17-9.7-.02-4.85-.3-5.15-5.02-5.15-23.56,0-47.11,0-70.67,0-1.18,0-2.36,.14-3.49,.21v17.43Zm.09,11.69v18.23c2.71,0,5.19,0,7.67,0,21.69,0,43.37,0,65.06,0,6.34,0,6.36-.02,6.36-6.52,0-2.12,0-4.24,0-6.36-.03-5.03-.33-5.35-5.27-5.36-23.43,0-46.86,0-70.29,0h-3.52Zm-89.06,18.23c8.32,0,16.65,0,24.97,0,15.96,0,31.92-.06,47.88,.05,3.5,.02,5.07-1.17,4.86-4.78-.19-3.23-.07-6.48-.04-9.72,.03-2.66-1.24-3.8-3.9-3.79-20.95,.04-41.89,0-62.84,.09-.95,0-2.34,.81-2.77,1.63-2.74,5.27-5.28,10.64-8.15,16.53Z"/>
  <path class="cls-1" d="M69.06,348.21c-.74,4.54,1.27,10.99-5.92,11-7.29,.01-4.89-6.63-5.89-11.16-3.04,0-6.01,.08-8.97-.02-3.84-.13-6.17-2.28-6.22-5.55-.05-3.44,2.34-5.6,6.42-5.63,6.49-.05,12.97,.02,19.46-.03,4.34-.03,6.98-2.25,6.94-5.66-.04-3.41-2.65-5.45-7.06-5.49-3.37-.03-6.74,.02-10.1-.01-9.57-.08-16.64-6.38-17.41-15.51-.75-8.8,5.22-16.14,14.54-17.9,.73-.14,1.46-.23,2.46-.38,.98-4.31-1.52-11.4,6.34-10.95,6.56,.37,4.75,6.4,5.42,11.15,2.51,0,5.07-.01,7.63,0,5.01,.03,7.59,2,7.54,5.74-.05,3.65-2.45,5.47-7.33,5.48-6.11,.02-12.23-.02-18.34,.01-4.44,.03-7,2.05-7.06,5.48-.07,3.6,2.5,5.62,7.21,5.65,3.24,.02,6.49-.02,9.73,0,9.73,.09,16.9,6.49,17.66,15.75,.7,8.56-5.54,16.02-14.84,17.72-.61,.11-1.23,.17-2.2,.3Z"/>
</svg>