<?xml version="1.0" encoding="UTF-8"?>
<svg id="_Слой_1" data-name="Слой 1" xmlns="http://www.w3.org/2000/svg" viewBox="0 0 383.06 389.64">
  <defs>
    <style>
      .cls-1 {
        fill: #00b0a4;
      }
    </style>
  </defs>
  <path class="cls-1" d="M248.96,389.63c0-2.17,0-3.74,0-5.31,0-25.94,.01-51.88,.01-77.82,0-9.82-6.12-15.96-16.01-15.97-27.68-.03-55.35-.03-83.03,0-9.86,.01-15.94,6.21-15.94,16.05,0,25.94,.01,51.88,.02,77.82,0,1.57,0,3.13,0,5.14-9.29,0-18.22,.22-27.14-.11-3.52-.13-5.65-2.71-5.9-6.41-.1-1.44-.06-2.9-.06-4.35,0-111.44,.03-222.89-.08-334.33,0-6.23,1.44-11.74,4.9-16.76,4.52-6.56,9.05-13.11,13.82-19.49C123.52,2.8,129.04,.05,135.68,.04c37.24-.05,74.48-.06,111.71,0,6.8,.01,12.37,2.95,16.37,8.44,5.02,6.91,10.3,13.71,14.54,21.09,2.26,3.93,3.54,8.96,3.6,13.52,.33,26.52,.16,53.04,.16,79.56,0,85.36,0,170.72,0,256.08,0,9.26-1.62,10.89-10.81,10.89-7.23,0-14.45,0-22.29,0ZM156.08,86.16c3.47,0,6.94,.05,10.41-.01,8.39-.16,14.23-5.76,14.43-14.1,.17-7.23,.16-14.46,0-21.69-.18-8.21-5.77-13.93-13.92-14.15-7.37-.2-14.75-.19-22.12,0-8.01,.2-13.67,5.65-13.97,13.64-.28,7.51-.28,15.04,0,22.55,.3,8.15,6.17,13.6,14.33,13.75,3.61,.07,7.23,.01,10.84,.01Zm71.06-.01h0c3.47,.01,6.94,.06,10.41,0,8.44-.14,14.25-5.57,14.53-14,.25-7.37,.25-14.75-.01-22.12-.29-8.09-5.81-13.58-13.8-13.81-7.51-.22-15.04-.22-22.55,0-7.69,.23-13.41,5.88-13.64,13.52-.24,7.66-.26,15.33,.01,22.99,.27,7.63,6.16,13.18,13.77,13.4,3.76,.11,7.52,.02,11.28,.02Zm-71.35,182.61c3.62,0,7.25,.07,10.86-.01,8.15-.19,14.03-5.79,14.25-13.9,.21-7.38,.2-14.78,0-22.17-.21-8-5.79-13.6-13.81-13.82-7.38-.21-14.78-.19-22.16-.01-8.1,.19-13.71,5.55-14.02,13.6-.29,7.52-.29,15.07,0,22.6,.31,8.14,6.23,13.55,14.44,13.71,3.48,.07,6.95,.01,10.43,0Zm.4-121.76c3.48,0,6.96,.06,10.43-.01,8.22-.18,14.06-5.7,14.29-13.84,.21-7.38,.2-14.78,0-22.17-.21-8-5.8-13.65-13.78-13.88-7.53-.22-15.07-.22-22.6,.01-7.75,.24-13.33,5.75-13.62,13.57-.29,7.52-.29,15.08,0,22.6,.31,8.22,6.12,13.55,14.41,13.71,3.62,.07,7.24,.01,10.87,0Zm70.53-.01h0c3.62,.01,7.24,.07,10.87,0,8.31-.15,14.12-5.42,14.47-13.65,.31-7.52,.3-15.07,0-22.6-.32-8.1-5.89-13.45-13.99-13.66-7.38-.19-14.78-.2-22.16,0-7.75,.21-13.55,5.77-13.82,13.39-.27,7.67-.26,15.36,0,23.03,.27,7.71,6.05,13.2,13.76,13.45,3.62,.12,7.24,.02,10.86,.02Zm-71.02,60.89c3.62,0,7.25,.06,10.87-.01,8.41-.18,14.18-5.81,14.36-14.22,.15-7.1,.14-14.2,0-21.3-.15-8.5-5.72-14.19-14.18-14.39-7.24-.17-14.49-.17-21.73,0-8.24,.2-13.89,5.75-14.14,13.99-.22,7.38-.26,14.79,.02,22.17,.31,8.22,6.1,13.59,14.36,13.76,3.48,.07,6.95,.01,10.43,.01Zm71.08,0c3.62,0,7.24,.06,10.87-.01,8.29-.16,14.08-5.47,14.41-13.71,.3-7.52,.3-15.08,0-22.6-.32-7.92-5.8-13.33-13.61-13.57-7.67-.23-15.36-.25-23.03,.02-7.46,.26-13.09,5.93-13.33,13.41-.25,7.67-.27,15.36,0,23.03,.28,7.7,6.09,13.15,13.82,13.39,3.62,.11,7.24,.02,10.86,.03Zm-.01,60.87h0c3.62,.01,7.24,.07,10.86,0,8.23-.16,14.09-5.53,14.42-13.72,.3-7.52,.3-15.07,0-22.6-.31-7.94-5.77-13.33-13.6-13.56-7.67-.23-15.36-.25-23.03,.02-7.56,.26-13.09,5.81-13.34,13.36-.26,7.67-.26,15.36,0,23.03,.27,7.64,6.15,13.19,13.81,13.44,3.62,.12,7.24,.02,10.86,.02Z"/>
  <path class="cls-1" d="M295.63,389.55V48.92c1.89-.16,3.14-.36,4.38-.36,12.03-.02,24.06-.06,36.08,0,13.33,.07,22.07,6.05,27.07,18.47,4.31,10.7,8.54,21.43,12.99,32.62-1.92,.1-3.29,.24-4.67,.24-11.3,0-22.61-.05-33.91-.02-9.15,.02-15.57,6.43-15.65,15.57-.04,4.35-.04,8.7,0,13.04,.07,9.33,6.52,15.79,15.91,15.82,13.19,.04,26.37,0,39.56,0,1.58,0,3.16,0,5.04,0v16.48c-2.45,0-4.72,0-7,0-12.61-.01-25.21-.05-37.82-.04-9.17,0-15.6,6.36-15.69,15.51-.04,3.91-.01,7.83,0,11.74,.01,11.08,6.24,17.2,17.22,17.14,13.33-.08,26.66-.03,39.99-.03,1,0,2,.1,3.31,.18v16.15c-1.37,.08-2.63,.23-3.89,.23-13.48,0-26.95,0-40.43-.03-9.75-.02-16.14,6.21-16.2,15.87-.02,4.2-.03,8.41,0,12.61,.07,9.52,6.66,15.94,16.27,15.92,13.33-.03,26.66-.04,39.99-.05,1.3,0,2.6,0,4.22,0v16.52c-4.68,0-9.27,0-13.86,0-10.29-.02-20.58-.06-30.86-.06-9.16,0-15.66,6.37-15.76,15.45-.05,4.35-.03,8.7,0,13.04,.07,9.54,6.64,15.99,16.23,15.98,14.63-.02,29.26,0,43.75,0,.34,.38,.7,.59,.7,.8,.05,14.34,.39,28.7-.02,43.03-.29,10.01-8.54,18.53-18.42,18.7-22.87,.39-45.75,.12-68.52,.12Z"/>
  <path class="cls-1" d="M.37,160.79v-16.48c1.56,0,3.07,0,4.58,0,14.2,0,28.4,.02,42.6,0,10.21-.02,16.27-6,16.34-16.11,.03-4.35,.07-8.7-.01-13.04-.16-9.11-6.29-15.22-15.37-15.25-13.61-.05-27.23-.01-41.43-.01,.42-1.46,.67-2.64,1.11-3.75,3.95-9.95,7.86-19.92,11.92-29.82,4.72-11.5,13.32-17.6,25.81-17.72,13.46-.13,26.93-.03,41.23-.03V389.46c-.72,.03-2.11,.15-3.5,.15-20.43,.01-40.86,.03-61.3,0-13.75-.02-22.11-8.45-22.14-22.28-.02-13.3,0-26.61,0-40.49,1.89,0,3.42,0,4.96,0,14.2,0,28.4,.02,42.6,.03,9.79,0,16.02-6.12,16.11-15.93,.04-4.2,.04-8.41,0-12.61-.09-9.97-6.11-15.89-16.04-15.88-14.35,.02-28.69,.02-43.04,.03-1.29,0-2.58,0-4.24,0v-16.52c1.57,0,3.11,0,4.65,0,14.2,0,28.4,.02,42.6,.03,9.78,0,15.97-6.14,16.06-15.98,.04-4.49,.08-8.99-.01-13.48-.19-8.83-6.37-14.87-15.26-14.9-14.35-.04-28.69,0-43.04,.02-1.57,0-3.15,0-5.04,0v-16.36c1.49-.07,2.9-.21,4.3-.21,14.2,0,28.4-.01,42.6,.02,10.16,.02,16.36-5.97,16.45-16.02,.04-4.06,.03-8.12,0-12.17-.07-10.26-6.01-16.17-16.19-16.16-14.2,.02-28.4,.01-42.6,.02-1.42,0-2.85,0-4.74,0Z"/>
  <path class="cls-1" d="M184.2,389.47h-35.79v-84.8h35.79v84.8Z"/>
  <path class="cls-1" d="M234.41,389.48h-35.69v-84.8h35.69v84.8Z"/>
  <path class="cls-1" d="M.47,190.63v-15.73H49.66v15.73H.47Z"/>
  <path class="cls-1" d="M.45,251.38v-15.6H49.68v15.6H.45Z"/>
  <path class="cls-1" d="M49.8,296.64v15.71H.5v-15.71H49.8Z"/>
  <path class="cls-1" d="M49.76,113.95v15.77H0c.42-4.99,.87-10.31,1.33-15.77H49.76Z"/>
  <path class="cls-1" d="M382.54,175.25v15.47h-46.38v-15.47h46.38Z"/>
  <path class="cls-1" d="M336.12,236.1h46.32v15.47h-46.32v-15.47Z"/>
  <path class="cls-1" d="M382.61,297.04v15.34h-46.55v-15.34h46.55Z"/>
  <path class="cls-1" d="M336.14,113.71c6.57,0,12.9-.01,19.23,0,7.53,.02,15.07-.04,22.59,.21,1.29,.04,3.48,1.31,3.65,2.29,.79,4.49,1.01,9.07,1.44,13.66h-46.92v-16.16Z"/>
  <path class="cls-1" d="M166.7,72.01h-21.6v-21.67h21.6v21.67Z"/>
  <path class="cls-1" d="M216.22,50.29h21.74v21.65h-21.74v-21.65Z"/>
  <path class="cls-1" d="M144.99,254.62v-21.65h21.71v21.65h-21.71Z"/>
  <path class="cls-1" d="M166.81,110.97v21.84h-22.06c0-6.61-.07-13.09,.09-19.56,.02-.77,1.21-2.16,1.88-2.18,6.62-.16,13.24-.1,20.09-.1Z"/>
  <path class="cls-1" d="M237.93,132.92h-21.73v-21.61h21.73v21.61Z"/>
  <path class="cls-1" d="M166.82,193.75h-22.06c0-6.68-.07-13.16,.09-19.63,.02-.77,1.21-2.15,1.89-2.17,6.62-.16,13.24-.1,20.09-.1v21.9Z"/>
  <path class="cls-1" d="M216.12,193.69v-21.57h21.86v21.57h-21.86Z"/>
  <path class="cls-1" d="M237.98,254.62h-21.83v-21.61h21.83v21.61Z"/>
</svg>