<?xml version="1.0" encoding="UTF-8"?>
<svg id="_Слой_1" data-name="Слой 1" xmlns="http://www.w3.org/2000/svg" viewBox="0 0 497.16 497.19">
  <defs>
    <style>
      .cls-1 {
        fill: #00b0a4;
      }
    </style>
  </defs>
  <path class="cls-1" d="M0,480.68c14.06,.14,28.12,.29,42.18,.42,4.49,.04,8.98,0,14.02,0,0-2.32,0-4.05,0-5.79,0-23.95-.01-47.9,0-71.86,0-7.97,2.44-10.4,10.42-10.41,14.57-.03,29.13-.04,43.7,0,7.24,.02,9.99,2.75,10,9.96,.04,24.11,.01,48.23,.01,72.34,0,1.74,0,3.47,0,5.47h15.92c0-2.15,0-4.04,0-5.93,0-39.33,0-78.65,0-117.98,0-10.01,2.19-12.16,12.35-12.16,13.59,0,27.19-.01,40.78,0,8.49,.01,11.04,2.5,11.04,10.95,.02,39.65,.01,79.3,.01,118.95,0,1.91,0,3.82,0,6.08h16.09v-5.54c0-50.33,0-100.66,0-150.99,0-9.15,2.34-11.49,11.44-11.5,14.08,0,28.16-.02,42.24,0,7.76,.01,10.43,2.71,10.43,10.56,.01,50.49,0,100.99,0,151.48v6.03h15.81c.1-2.11,.27-4.14,.27-6.16,.01-60.53,.01-121.05,.01-181.58,0-10.49,1.93-12.41,12.47-12.41,13.43,0,26.87,0,40.3,0,8.99,0,11.41,2.46,11.41,11.62,0,60.69,0,121.38,0,182.07,0,2.06,0,4.12,0,6.47h15.92v-6.32c0-71.21,0-142.42,0-213.63,0-10.12,2.12-12.26,12.18-12.26,13.76,0,27.51-.01,41.27,0,8.17,0,10.68,2.51,10.68,10.72,0,71.69,0,143.39,0,215.08,0,1.92,0,3.84,0,6.5h55.96v16.29H0v-16.51Zm393.23,.07h31.55v-215.63h-31.55v215.63Zm-80.25,0h31.55v-183.66h-31.55v183.66Zm-80.12-151.62v151.7h31.46v-151.7h-31.46Zm-80.05,32.02v119.62h31.35v-119.62h-31.35Zm-49.07,119.66v-71.56h-31.29v71.56h31.29Z"/>
  <path class="cls-1" d="M0,339.88c.49-1.51,.94-3.03,1.46-4.53,4-11.61,11.86-19.14,23.92-21.77,12.1-2.64,22.47,1.03,30.61,10.17,2.41,2.71,4.13,3.2,7.26,1.68,4.06-1.97,8.29-3.65,12.59-5.04,3.49-1.13,4.52-3.03,4.51-6.7-.14-40.28-.09-80.57-.09-120.86,0-33.65,0-67.3,0-100.96,0-9.58,2.05-11.6,11.71-11.61,47.4,0,94.81,0,142.21,0,1.91,0,3.83,0,6.24,0,.09-2.14,.23-3.84,.24-5.55,.02-21.19,.12-42.39-.08-63.58-.04-4.76,1.08-8.49,5.11-11.14h166.05c4.34,2.68,5.29,6.67,5.28,11.55-.11,58.08-.07,116.16-.07,174.24,0,2.06,0,4.12,0,6.6,5.43,0,10.28,.26,15.07-.18,1.26-.12,2.77-2.21,3.41-3.72,8.2-19.28,31.3-26.13,48.19-14.17,11.03,7.81,15.97,21.64,12.41,34.73-3.51,12.9-15.05,22.32-28.54,23.3-13.63,.99-26.26-6.34-31.4-19.01-1.59-3.92-3.54-4.84-7.41-4.81-24.27,.16-48.53,.03-72.8,.18-1.66,.01-4.41,1.13-4.81,2.35-6.6,20.09-33.78,30.15-53.49,11.69-1.14,.61-2.42,1.21-3.61,1.95-33.04,20.63-66.08,41.27-99.11,61.92-1.87,1.17-3.5,1.92-2.98,5.12,2.36,14.53-5.21,28.32-18.24,34.2-13.1,5.92-28.22,2.41-37.83-8.77-.63-.73-1.24-1.48-2.21-2.63-1.49,.59-3.09,1.21-4.68,1.84-20.4,8.15-40.79,16.31-61.2,24.43-2.19,.87-3.63,1.62-3.72,4.63-.49,16.28-12.2,29.25-27.77,31.22-15.89,2.02-30.41-7.71-35.14-23.5-.27-.89-.71-1.73-1.07-2.59,0-3.56,0-7.12,0-10.68Zm183.73-65.19c17.81-11.13,35.18-22.09,52.68-32.82,3.11-1.91,4.36-3.92,4.34-7.68-.15-44.18-.1-88.36-.1-132.54,0-1.71,0-3.43,0-5.12H96.57v215.43c9.62-3.82,18.72-7.54,27.91-11.03,2.78-1.06,3.8-2.45,3.93-5.57,.59-14.66,11.17-27.23,25.24-29.98,11.42-2.23,21.45,.95,30.07,9.32Zm216.99-82.48V16.44h-143.91V228.45c.92-.32,1.56-.42,2.06-.73,9.47-5.9,18.99-11.72,28.29-17.88,1.24-.82,2.07-3.46,1.86-5.1-2.03-15.5,7.34-30.28,22.4-34.88,15.23-4.66,31.38,2.49,38.19,16.95,.82,1.74,1.5,3.55,2.28,5.4h48.83Zm-95.9,8.25c-.01,8.89,7.08,16.04,15.93,16.06,8.72,.01,16.09-7.31,16.1-16.01,.01-8.74-7.27-16-16.05-16.01-8.9-.01-15.96,7.05-15.97,15.97Zm-144.59,112.25c8.8,.06,16.11-7.08,16.22-15.85,.11-8.69-7.18-16.09-15.92-16.17-8.85-.08-16.01,6.99-16.08,15.87-.07,8.94,6.91,16.08,15.78,16.15ZM16.12,345.02c.11,8.86,7.37,16,16.15,15.85,8.82-.14,15.92-7.44,15.81-16.24-.12-8.89-7.25-15.83-16.2-15.74-8.92,.09-15.87,7.2-15.76,16.13ZM481.07,200.6c.07-8.87-7-16.06-15.84-16.11-8.84-.05-16.05,7.03-16.13,15.86-.08,8.77,7.11,16.09,15.88,16.16,8.79,.07,16.02-7.07,16.09-15.91Z"/>
  <path class="cls-1" d="M160.32,136.43c0,5.01,.07,10.01-.02,15.02-.11,5.81-2.91,8.77-8.56,8.82-10.33,.1-20.67,.1-31,0-5.24-.06-8.22-2.84-8.31-8.04-.17-10.65-.17-21.31,.01-31.97,.08-4.91,3.01-7.76,8-7.83,10.65-.16,21.31-.17,31.97,.02,4.94,.09,7.71,3.07,7.85,8,.16,5.32,.04,10.66,.04,15.98h.02Zm-31.74-8.04v15.65h15.42v-15.65h-15.42Z"/>
  <path class="cls-1" d="M200.06,160.3c-5.01,0-10.01,.08-15.02-.02-5.48-.12-8.41-2.9-8.48-8.38-.14-10.33-.13-20.67,0-31,.07-5.51,2.88-8.41,8.37-8.5,10.33-.16,20.67-.16,31,0,5.73,.09,8.46,3.02,8.51,8.87,.09,10.01,.09,20.02,0,30.03-.05,6.07-2.89,8.9-8.88,8.99-5.17,.08-10.33,.02-15.5,.01Zm8.24-31.73h-15.55v15.46h15.55v-15.46Z"/>
  <path class="cls-1" d="M136,224.42c-5.17,0-10.34,.11-15.5-.03-4.96-.13-7.96-2.87-8.05-7.79-.18-10.81-.18-21.64,.02-32.45,.09-4.67,3.01-7.49,7.74-7.57,10.81-.16,21.64-.17,32.45,.02,4.65,.08,7.52,3.06,7.59,7.73,.15,10.82,.16,21.64-.02,32.45-.08,4.6-3.11,7.43-7.76,7.58-5.48,.17-10.98,.04-16.47,.04Zm8.13-31.71h-15.52v15.46h15.52v-15.46Z"/>
  <path class="cls-1" d="M224.45,200.72c0,5.17,.11,10.34-.04,15.5-.15,5.2-3,8.11-8.18,8.17-10.49,.12-20.99,.12-31.48,0-5.19-.06-8.1-2.93-8.17-8.16-.15-10.49-.15-20.99,0-31.48,.07-5.24,2.92-8.1,8.16-8.18,10.49-.15,20.99-.15,31.48,0,5.41,.08,8.1,3.06,8.21,8.65,.11,5.16,.02,10.33,.02,15.5Zm-31.68-8.06v15.51h15.51v-15.51h-15.51Z"/>
  <path class="cls-1" d="M361.09,32.05c4.85,0,9.69-.07,14.54,.02,6.09,.11,9.1,2.87,9.18,8.79,.14,10.17,.13,20.35,0,30.53-.07,5.74-2.88,8.7-8.67,8.81-10.17,.2-20.35,.21-30.53,0-5.99-.12-8.67-3.17-8.71-9.28-.07-9.85-.07-19.71,0-29.56,.04-6.28,2.92-9.17,9.18-9.28,5.01-.09,10.01-.02,15.02-.02Zm7.5,31.85v-15.48h-15.44v15.48h15.44Z"/>
  <path class="cls-1" d="M384.83,120.4c0,5.17,.12,10.34-.04,15.51-.16,5.2-2.88,8.28-8.07,8.41-10.49,.26-21,.25-31.49,.02-5.42-.12-8.27-3.29-8.32-8.68-.1-10.18-.09-20.35,0-30.53,.05-5.7,2.97-8.82,8.57-8.9,10.17-.15,20.35-.14,30.53-.01,5.74,.07,8.64,2.99,8.8,8.68,.15,5.17,.03,10.34,.03,15.51Zm-16.16-7.73h-15.61v15.27h15.61v-15.27Z"/>
  <path class="cls-1" d="M320.68,56.04c0,5.17,.1,10.34-.03,15.51-.14,5.46-2.86,8.5-8.36,8.62-10.33,.23-20.68,.23-31.01,.01-5.74-.12-8.47-3.18-8.52-8.96-.09-10.01-.08-20.03,0-30.04,.05-6.04,2.91-9.03,8.85-9.09,10.01-.12,20.03-.1,30.04,0,6.01,.06,8.88,2.96,9.01,8.94,.11,5,.02,10.01,.02,15.02Zm-31.74-7.67v15.39h15.54v-15.39h-15.54Z"/>
  <path class="cls-1" d="M272.74,119.94c0-4.85-.06-9.69,.01-14.54,.09-6.06,2.89-9.11,8.79-9.18,10.17-.13,20.35-.14,30.53,.01,5.65,.08,8.52,3.11,8.58,8.88,.11,10.18,.11,20.35,0,30.53-.06,5.46-2.87,8.58-8.28,8.7-10.33,.24-20.68,.23-31.01,.02-5.72-.11-8.48-3.2-8.59-8.92-.1-5.17-.02-10.34-.02-15.51Zm16.09,7.97h15.67v-15.2h-15.67v15.2Z"/>
</svg>