<?xml version="1.0" encoding="UTF-8"?>
<svg id="_Слой_1" data-name="Слой 1" xmlns="http://www.w3.org/2000/svg" viewBox="0 0 383.32 363.32">
  <defs>
    <style>
      .cls-1 {
        fill: #00b0a4;
      }
    </style>
  </defs>
  <path class="cls-1" d="M0,355.29c1.84-3.13,4.58-4.13,8.15-4.05,7.97,.18,15.94,.05,24.38,.05,.08-1.7,.19-3.14,.19-4.57,.01-21.22,0-42.44,.01-63.65,0-6.48,1.77-8.31,8.15-8.33,17.1-.03,34.19-.03,51.29,0,6.33,.01,8.15,1.94,8.15,8.37,0,21.22,0,42.44,0,63.65,0,1.35,0,2.7,0,4.28h15.77v-4.64c0-36.44,0-72.89,0-109.33,0-7.12,1.75-8.91,8.79-8.91,16.72-.01,33.44-.01,50.16,0,6.91,0,8.68,1.75,8.68,8.6,.01,36.57,0,73.14,0,109.71,0,1.46,0,2.91,0,4.59h15.87v-4.84c0-51.67,0-103.34,0-155.02,0-8.17,1.41-9.58,9.56-9.58,16.6,0,33.19,0,49.79,0,6.32,0,8.29,1.97,8.29,8.28,0,52.17,0,104.34,0,156.51,0,1.47,0,2.94,0,4.63h15.77c0-1.58,0-3.13,0-4.69,0-67.4,0-134.8,0-202.19,0-7.41,1.62-9.04,8.95-9.05,16.47,0,32.94,0,49.41,0,7.73,0,9.22,1.47,9.22,9.11,0,67.27,0,134.55,0,201.82v5.23c5.29,0,10.11,0,14.94,0,3.99,0,7.99-.09,11.98,.1,3.42,.16,5.7,2.57,5.79,5.68,.09,3.06-2.14,5.6-5.44,6.09-.98,.15-1.99,.11-2.99,.11-122.16,0-244.32,0-366.48,.05-3.69,0-6.6-.89-8.4-4.29v-3.74Zm338.33-4.17V147.38h-43.07v203.75h43.07Zm-83.27,0V193.83h-43.17v157.29h43.17Zm-126.71-110.8v110.66h43.08v-110.66h-43.08Zm-40.17,46.73H44.92v63.92h43.27v-63.92Z"/>
  <path class="cls-1" d="M260.27,55.85c-6.56-5-13.09-9.97-19.62-14.93-2.68-2.04-5.66-3.78-7.96-6.18-1.54-1.61-2.84-4.11-2.94-6.27-.14-2.92,2.36-4.3,5.14-5.05,23.68-6.42,47.33-12.91,71-19.38,4.56-1.25,9.1-2.6,13.7-3.71,5.15-1.25,8.28,1.2,8.33,6.54,.27,29.07,.48,58.14,.74,87.21,.03,2.96-.65,5.47-3.54,6.83-2.74,1.29-5.01,.27-7.23-1.44-6.51-5-13.08-9.92-19.92-15.09-3.37,4.11-6.52,8.08-9.81,11.93-41.92,49.04-92.33,85.96-153.61,107.21-24.4,8.46-49.51,13.38-75.38,14.19-3.25,.1-6.05-.41-7.35-3.77-1.55-3.98,1.01-7.33,5.99-8.33,7.81-1.56,15.69-2.9,23.39-4.92,38.62-10.18,72.74-29.02,103.31-54.49,30.1-25.08,54.62-54.92,74.78-88.44,.32-.52,.58-1.08,1.02-1.9Zm-11.05-23.95c.55,.73,.66,.97,.84,1.11,6.85,5.2,13.73,10.38,20.57,15.6,4.03,3.08,4.58,5.63,2.05,9.96-26.24,44.83-59.53,83.3-102.24,113.25-5.31,3.72-10.78,7.21-16.17,10.8,5.77-2.07,11.31-4.54,16.7-7.31,47.39-24.37,86.76-58.24,119.03-100.54,4.64-6.08,6.77-6.34,12.88-1.72,4.32,3.27,8.64,6.53,13.1,9.9V13.7c-22.58,6.15-44.53,12.14-66.76,18.2Z"/>
</svg>