<?xml version="1.0" encoding="UTF-8"?>
<svg id="_Слой_1" data-name="Слой 1" xmlns="http://www.w3.org/2000/svg" viewBox="0 0 383.01 383.25">
  <defs>
    <style>
      .cls-1 {
        fill: #00b0a4;
      }
    </style>
  </defs>
  <path class="cls-1" d="M0,0H12.69V25.4h25.26v12.82H12.96v25.47h12.3v12.78H13v25.65h24.98v12.79H13.04v25.62h12.27v12.74H12.96v25.42h25.03v12.91H12.93v25.4h12.34v12.71H13.01v25.62h24.93v12.87H12.93v25.53h12.36v12.79H12.97v25.49H383.01v12.96c-1.47,0-2.8,0-4.14,0-123.12,0-246.23-.01-369.35,.05-4.04,0-7.34-.85-9.52-4.46V0Z"/>
  <path class="cls-1" d="M89.08,383.25c.11-6.95,.22-13.9,.32-20.85,.02-1.46,0-2.92,0-4.51h13.15v25.37h-13.47Z"/>
  <path class="cls-1" d="M63.63,383.25v-25.21h12.73v25.21h-12.73Z"/>
  <path class="cls-1" d="M153.45,383.25v-25.23h12.73v25.23h-12.73Z"/>
  <path class="cls-1" d="M178.9,383.25v-25.23h12.73v25.23h-12.73Z"/>
  <path class="cls-1" d="M242.53,383.25v-25.21h12.73v25.21h-12.73Z"/>
  <path class="cls-1" d="M267.98,383.25v-25.21h12.73v25.21h-12.73Z"/>
  <path class="cls-1" d="M332.35,383.25v-25.23h12.73v25.23h-12.73Z"/>
  <path class="cls-1" d="M357.8,383.25v-25.23h12.73v25.23h-12.73Z"/>
  <path class="cls-1" d="M187.78,77.9c-6.51,4.58-13.63,6.26-21.57,4.41-.91-.21-2.67,1.27-3.37,2.38-18.62,29.36-37.16,58.78-55.71,88.19-.13,.21-.24,.45-.4,.63-3.68,4.26-4.36,7.92-1.11,13.58,7.37,12.82,.59,29.32-13.13,34.61-14.17,5.46-29.68-2.17-33.94-16.69-4.11-14.01,4.99-29.29,19.3-31.89,3.46-.63,7.2-.27,10.73,.22,2.03,.28,3.13,.16,4.26-1.65,19.83-31.55,39.71-63.07,59.65-94.55,1.19-1.88,.72-2.96-.44-4.56-8.62-11.85-6.07-27.42,5.78-36.03,11.16-8.1,27.19-5.37,35.44,6.22,4.68,6.58,5.85,13.94,3.54,21.68-.7,2.34-.6,3.7,1.5,5.33,15.18,11.77,30.26,23.66,45.29,35.6,2.03,1.62,3.43,1.84,5.81,.39,8.67-5.3,20.12-4.45,27.98,1.99,2.12,1.74,3.55,1.7,5.81,.35,13.48-8.04,27.04-15.96,40.65-23.79,2.04-1.18,2.67-2.4,2.37-4.74-1.34-10.27,2.6-18.46,11.03-24.08,8.86-5.9,18.41-6.07,27.49-.44,8.66,5.36,12.69,13.47,11.89,23.72-.79,10.13-6.1,17.41-15.28,21.29-9.46,4-18.57,2.6-26.54-4.13-1.64-1.39-2.8-1.77-4.83-.55-13.59,8.11-27.25,16.1-40.94,24.03-1.91,1.11-2.44,2.15-2.02,4.41,1.83,9.78-3.22,20.54-11.75,25.64-9.12,5.46-20.81,4.91-28.81-1.35-8.47-6.63-12.05-17.38-8.99-27.37,.57-1.87,1.12-3.28-.9-4.86-15.95-12.4-31.8-24.92-47.68-37.4-.28-.22-.64-.35-1.1-.6Zm74.23,37.24c-7.07-.05-12.68,5.37-12.79,12.36-.12,7.13,5.52,12.99,12.57,13.07,6.97,.08,12.92-5.86,12.88-12.85-.04-6.93-5.68-12.54-12.66-12.58ZM82.89,185.32c-7.15,.09-12.7,5.86-12.55,13.03,.15,6.92,5.92,12.49,12.85,12.39,7.08-.1,12.78-6.01,12.59-13.06-.18-6.94-5.93-12.44-12.89-12.35ZM172.4,44.81c-6.95,.03-12.61,5.62-12.7,12.56-.09,6.96,5.86,12.95,12.82,12.91,6.91-.04,12.55-5.7,12.61-12.66,.06-7.19-5.55-12.84-12.73-12.8Zm191.59,32.01c.07-7.13-5.66-12.96-12.7-12.93-6.89,.03-12.74,5.83-12.73,12.62,.02,7.14,5.68,12.84,12.8,12.89,6.91,.05,12.56-5.57,12.63-12.58Z"/>
  <path class="cls-1" d="M282.39,233.85c7.06,12.46,6.59,23.36-1.72,32.33-7.37,7.96-16.53,10.29-26.93,7.02-9.35-2.93-16.41-11.71-17.09-21.54-.18-2.67-1.23-3.53-3.61-4.18-11.88-3.28-23.72-6.71-35.54-10.21-2.18-.64-3.39-.43-4.91,1.55-8.2,10.73-22.11,13.1-33.77,6.17-1.05-.62-3.22-.7-4.12-.03-16.14,11.93-32.17,24.02-48.22,36.08-.29,.22-.5,.53-.87,.93,3.97,8.12,4,16.27-.38,24.3-5.95,10.9-19.51,15.84-31.26,11.41-11.62-4.38-18.69-17.07-16.07-28.85,2.88-12.91,14.2-21.49,27-20.24,2.8,.27,5.78,.81,8.24,2.07,2.75,1.4,4.53,1.14,6.93-.68,15.07-11.49,30.28-22.81,45.43-34.18,1.09-.82,2.14-1.67,3.36-2.63-2.46-6.86-2.59-13.62,.41-20.36,4.61-10.37,15.72-16.32,27.29-14.46,11.21,1.8,20.14,11.02,21.06,22.13,.23,2.8,1.12,4.09,3.88,4.84,11.9,3.23,23.74,6.64,35.57,10.11,2.13,.63,3.32,.23,4.69-1.55,6.83-8.88,17.33-12.18,27.99-8.78,2.08,.66,3.06,.21,4.33-1.38,17.86-22.44,35.79-44.83,53.74-67.2,1.3-1.62,1.65-2.84,.67-4.94-4.82-10.3-3.29-19.91,4.06-28.49,6.5-7.59,17.49-10.44,27.31-6.92,10.39,3.72,16.14,11.41,17.2,22.34,1.78,18.42-17.43,32.66-34.74,25.72-2.56-1.03-3.8-.78-5.51,1.37-17.45,21.97-35.02,43.85-52.55,65.75-.62,.78-1.19,1.59-1.89,2.51Zm68.85-105.99c-6.96,.03-12.63,5.63-12.71,12.56-.08,6.95,5.89,12.95,12.84,12.91,7.05-.04,12.71-5.9,12.6-13.05-.11-7.01-5.69-12.45-12.74-12.42ZM70.34,293.9c.03,6.95,5.63,12.57,12.59,12.65,7.04,.08,12.9-5.75,12.86-12.8-.04-6.93-5.68-12.55-12.64-12.62-7.14-.06-12.85,5.63-12.82,12.76Zm114.79-70.36c.06-7.17-5.6-12.85-12.76-12.81-6.93,.04-12.59,5.67-12.67,12.6-.08,7.04,5.7,12.79,12.84,12.8,6.96,0,12.53-5.57,12.59-12.59Zm64.09,25.41c-.06,6.93,5.54,12.8,12.34,12.94,7,.14,12.88-5.71,12.84-12.79-.04-6.73-5.59-12.35-12.35-12.5-6.92-.16-12.77,5.47-12.82,12.36Z"/>
</svg>