<svg width="40" height="40" viewBox="0 0 40 40" fill="none" xmlns="http://www.w3.org/2000/svg">
<path d="M20.0178 9.80904C19.6661 9.80904 19.3182 9.82698 18.9754 9.86209C18.6326 9.8972 18.2945 9.94923 17.9623 10.0175C17.63 10.0858 17.3036 10.1704 16.9838 10.2702L16.045 10.6149L15.1512 11.0465L14.3077 11.5597L13.5196 12.1492L12.7924 12.8098L12.1312 13.5364L11.5411 14.3236L11.0272 15.1662L10.5954 16.059C10.4656 16.3644 10.3501 16.6775 10.2502 16.997C10.1502 17.3166 10.0656 17.6429 9.99719 17.9748C9.92877 18.3067 9.87674 18.6443 9.84149 18.9869C9.80627 19.3294 9.78857 19.6769 9.78857 20.0283C9.78857 20.3797 9.80652 20.7272 9.84149 21.0697C9.8763 21.4095 9.92824 21.7474 9.99719 22.0819C10.0656 22.4151 10.1502 22.7401 10.2502 23.0597C10.3501 23.3793 10.4654 23.6922 10.5954 23.9977L11.0272 24.8905L11.5411 25.733L12.1312 26.5203L12.7924 27.2469L13.5196 27.9076L14.3077 28.497L15.1512 29.0101L16.045 29.4418L16.9838 29.7865L17.9623 30.0393C18.2971 30.1081 18.6353 30.1601 18.9754 30.1948C19.3217 30.2301 19.6697 30.2479 20.0178 30.2476C20.3696 30.2476 20.7175 30.2298 21.0602 30.1948C21.4003 30.1601 21.7384 30.1081 22.0733 30.0393L23.0519 29.7865L23.9907 29.4418L24.8844 29.0101L25.7279 28.497L26.516 27.9076L27.2434 27.2469L27.9047 26.5203L28.4947 25.733L29.0086 24.8905L29.4405 23.9977L29.7855 23.0597C29.8855 22.7401 29.9703 22.4138 30.0386 22.0819L30.1942 21.0696C30.2294 20.7271 30.2472 20.3795 30.2472 20.0281C30.2472 19.6768 30.2294 19.3293 30.1942 18.9867C30.1594 18.647 30.1075 18.3092 30.0386 17.9746C29.9703 17.6415 29.8855 17.3166 29.7855 16.9969L29.4405 16.0589L29.0086 15.1661L28.4947 14.3234L27.9047 13.5362L27.2434 12.8096L26.516 12.1491L25.7279 11.5596L24.8844 11.0464L23.9907 10.6148L23.0519 10.2701L22.0733 10.0174L21.0602 9.86196C20.7139 9.82659 20.3659 9.80901 20.0178 9.80904ZM20.0178 13.3363C20.2504 13.3363 20.4799 13.3479 20.706 13.3707L21.3723 13.4715L22.016 13.6355L22.6324 13.8594L23.2184 14.1401L23.7694 14.4739L24.2845 14.8579L24.7594 15.2887L25.1906 15.7631L25.5751 16.2778L25.9093 16.8295L26.1899 17.4152C26.2742 17.6156 26.349 17.821 26.4142 18.031C26.4792 18.2411 26.534 18.4557 26.5782 18.6743C26.6224 18.8929 26.6551 19.1154 26.679 19.3413L26.7134 20.0289C26.7134 20.2613 26.7019 20.4906 26.679 20.7167C26.6562 20.9427 26.6227 21.1652 26.5782 21.3837C26.5337 21.6022 26.4789 21.8168 26.4142 22.027L26.1899 22.6428L25.9093 23.2284L25.5751 23.7801L25.1906 24.2948L24.7594 24.7692L24.2845 25.2001L23.7694 25.5841L23.2184 25.9179L22.6324 26.1986L22.016 26.4224L21.3723 26.5865L20.706 26.6872C20.4773 26.7101 20.2475 26.7216 20.0177 26.7215C19.7878 26.7216 19.558 26.7101 19.3293 26.6872L18.663 26.5865C18.4442 26.5421 18.2294 26.4873 18.0192 26.4224L17.4028 26.1986L16.8168 25.9179L16.2658 25.5841L15.7506 25.2001L15.2757 24.7692L14.8445 24.2948L14.4601 23.7801L14.1259 23.2284L13.8452 22.6428L13.621 22.027L13.457 21.3837L13.3561 20.7167C13.3332 20.4882 13.3217 20.2586 13.3218 20.0289C13.3217 19.7993 13.3332 19.5698 13.3561 19.3413C13.3788 19.1154 13.4125 18.8928 13.457 18.6743C13.501 18.4573 13.5558 18.2427 13.6211 18.0312L13.8454 17.4153L14.126 16.8297L14.4602 16.2779L14.8446 15.7633L15.2759 15.2889L15.7507 14.858L16.2659 14.474L16.8169 14.1402L17.4029 13.8595C17.6046 13.7748 17.8104 13.7001 18.0194 13.6357L18.6632 13.4716C18.882 13.4273 19.1047 13.3935 19.3296 13.3708C19.5583 13.3479 19.7879 13.3363 20.0178 13.3363Z" fill="url(#paint0_radial_2021_515)"/>
<path d="M30.6619 6.90192C30.5808 6.90192 30.4997 6.90603 30.4189 6.91422C30.338 6.92239 30.2577 6.93461 30.178 6.95086C30.0986 6.96711 30.0197 6.98733 29.9422 7.01147C29.8644 7.03564 29.7883 7.06369 29.7133 7.09553C29.6386 7.12742 29.5655 7.16306 29.4941 7.20228C29.4227 7.24144 29.3536 7.28417 29.2866 7.33031C29.2194 7.37647 29.1547 7.426 29.0927 7.47869C29.0305 7.53133 28.9711 7.58706 28.9144 7.64567C28.858 7.70431 28.8044 7.76578 28.7539 7.82981C28.7033 7.89386 28.6561 7.96039 28.6122 8.02919C28.5683 8.09794 28.528 8.16886 28.4911 8.24167C28.4544 8.31453 28.4211 8.38919 28.3916 8.46542C28.3622 8.54158 28.3366 8.61922 28.3147 8.69797C28.293 8.77675 28.2752 8.85656 28.2616 8.93711C28.2477 9.01764 28.238 9.09881 28.2322 9.18033C28.228 9.23806 28.2261 9.29594 28.2261 9.35383C28.2261 9.43561 28.23 9.51733 28.2383 9.59872C28.2464 9.68005 28.2586 9.76092 28.2747 9.84103C28.2908 9.92114 28.3108 10.0004 28.3347 10.0785C28.3589 10.1566 28.3866 10.2334 28.4183 10.3088C28.45 10.3841 28.4852 10.4578 28.5244 10.5296C28.5633 10.6013 28.6058 10.6711 28.6516 10.7386C28.6975 10.806 28.7466 10.8711 28.7989 10.9336C28.8514 10.9961 28.9066 11.056 28.965 11.113C29.0233 11.1699 29.0841 11.2239 29.148 11.2747C29.2116 11.3256 29.2777 11.3731 29.3461 11.4173C29.4144 11.4615 29.485 11.5023 29.5572 11.5393C29.6297 11.5764 29.7039 11.6099 29.7794 11.6395C29.8552 11.6692 29.9322 11.6949 30.0105 11.7168C30.0889 11.7386 30.168 11.7565 30.248 11.7704C30.328 11.7843 30.4089 11.7942 30.4897 11.8C30.5472 11.8041 30.6047 11.8061 30.6622 11.8061C30.7433 11.8061 30.8247 11.8021 30.9055 11.7939C30.9861 11.7858 31.0666 11.7736 31.1461 11.7573C31.2258 11.7411 31.3044 11.7208 31.3822 11.6967C31.4597 11.6725 31.5361 11.6445 31.6108 11.6126C31.6855 11.5808 31.7589 11.5452 31.83 11.506C31.9014 11.4668 31.9705 11.424 32.0377 11.3779C32.1047 11.3317 32.1694 11.2822 32.2316 11.2296C32.2936 11.1769 32.353 11.1212 32.4097 11.0625C32.4664 11.0039 32.52 10.9424 32.5702 10.8784C32.6208 10.8143 32.668 10.7478 32.7119 10.679C32.7558 10.6102 32.7964 10.5392 32.833 10.4664C32.87 10.3935 32.9033 10.3188 32.9327 10.2426C32.9622 10.1664 32.9877 10.0888 33.0094 10.0101C33.0311 9.93131 33.0489 9.8515 33.0627 9.77094C33.0766 9.69042 33.0864 9.60922 33.0919 9.52772C33.0961 9.46997 33.0983 9.41211 33.0983 9.35422C33.0983 9.27247 33.0941 9.19078 33.0861 9.10944C33.078 9.02811 33.0658 8.94725 33.0497 8.86714C33.0336 8.78703 33.0133 8.70778 32.9894 8.62969C32.9652 8.55158 32.9375 8.47472 32.9058 8.39942C32.8741 8.32408 32.8389 8.25039 32.8 8.17861C32.7611 8.10686 32.7186 8.03711 32.6727 7.96961C32.6266 7.90211 32.5775 7.837 32.5252 7.77444C32.4727 7.71192 32.4175 7.65203 32.3594 7.59506C32.3011 7.53811 32.24 7.48414 32.1764 7.43333C32.1127 7.38253 32.0466 7.33497 31.9783 7.29083C31.91 7.24664 31.8394 7.20592 31.7669 7.16883C31.6944 7.13172 31.6202 7.09828 31.5447 7.06864C31.4691 7.039 31.3919 7.01322 31.3136 6.99136C31.2355 6.96947 31.1561 6.95156 31.0761 6.93767C30.9961 6.92381 30.9155 6.91394 30.8344 6.90819C30.7769 6.90408 30.7194 6.90192 30.6619 6.90192Z" fill="url(#paint1_radial_2021_515)"/>
<path d="M18.0782 0.0359562C16.9656 0.034162 15.9728 0.0387748 15.0809 0.0513329L12.6897 0.115405C11.9813 0.14616 11.3555 0.186266 10.7937 0.238165C10.5128 0.26405 10.2478 0.29301 9.99664 0.324918C9.75762 0.355043 9.51928 0.390121 9.28173 0.430126C9.05553 0.468571 8.84089 0.510088 8.63509 0.555193C8.42931 0.600301 8.23273 0.648996 8.04306 0.701279C7.85767 0.752404 7.6737 0.80864 7.49142 0.869918C7.31278 0.930146 7.1385 0.993963 6.96639 1.06213C6.6222 1.19848 6.28648 1.35148 5.94073 1.52294C5.6747 1.65493 5.42892 1.78858 5.19545 1.93005C4.96198 2.07153 4.74078 2.22094 4.52423 2.38369C4.3012 2.5521 4.08623 2.73093 3.88006 2.9196C3.6645 3.1159 3.44437 3.33182 3.21562 3.57313C2.9282 3.87465 2.67844 4.15579 2.45675 4.43168C2.3459 4.56957 2.2421 4.70593 2.14433 4.84304C2.04764 4.97815 1.9552 5.11629 1.86715 5.25718C1.78002 5.39688 1.69749 5.53913 1.61855 5.68546C1.53839 5.83432 1.46262 5.98552 1.39135 6.13882C1.24553 6.45202 1.10944 6.78929 0.973605 7.16579C0.872835 7.4441 0.782599 7.72615 0.703091 8.01127C0.621977 8.30268 0.549832 8.60754 0.485502 8.93724C0.421174 9.26696 0.365046 9.62154 0.31571 10.0137C0.262547 10.4435 0.220075 10.8746 0.188336 11.3065C0.152455 11.7814 0.122726 12.304 0.0983783 12.8856L0.0407136 14.8196L0.00970248 17.1771L0.000732422 20.0266L0.027002 24.1704L0.109014 27.3099L0.172189 28.5362L0.251127 29.5526C0.276431 29.8265 0.308091 30.0995 0.346082 30.372C0.380679 30.614 0.417843 30.8256 0.457824 31.009C0.538949 31.3815 0.634877 31.7506 0.74538 32.1156C0.851185 32.4651 0.972182 32.8095 1.10803 33.1484C1.24155 33.4804 1.38764 33.8004 1.54654 34.1084C1.70544 34.4165 1.87715 34.7126 2.06168 34.997C2.24621 35.2812 2.44355 35.554 2.65422 35.8151C2.86464 36.0762 3.08848 36.3259 3.32481 36.564C3.56148 36.8023 3.81112 37.029 4.0742 37.2445C4.34037 37.4626 4.61709 37.6676 4.90328 37.8584C5.16892 38.0359 5.43175 38.1987 5.6965 38.3478C5.96123 38.4973 6.22828 38.6326 6.50278 38.7559C6.77725 38.879 7.05867 38.9898 7.35264 39.0895C7.64659 39.1892 7.95287 39.2779 8.27656 39.3565C8.60026 39.4354 8.94289 39.5042 9.30556 39.5645C9.6682 39.6248 10.0558 39.6765 10.47 39.7209C10.8842 39.7654 11.326 39.802 11.8008 39.8329C12.2756 39.8637 12.783 39.8881 13.3283 39.9079C14.1706 39.9384 15.4456 39.9562 16.9159 39.9631L21.6758 39.9534L26.1832 39.8904L27.8971 39.842L29.0134 39.7848C29.2532 39.7651 29.4876 39.742 29.714 39.7151C29.9404 39.6881 30.1635 39.6573 30.381 39.622C30.5982 39.587 30.8107 39.5479 31.0193 39.5042C31.2257 39.4612 31.431 39.4131 31.6348 39.3604C31.8368 39.309 32.036 39.2506 32.2332 39.1887C32.4301 39.127 32.6254 39.0601 32.8193 38.9881C33.0143 38.9159 33.2073 38.839 33.3987 38.7576C33.5912 38.6754 33.7835 38.5879 33.9765 38.4948C34.2729 38.352 34.5115 38.2328 34.721 38.1167C34.9182 38.0087 35.1079 37.8879 35.2893 37.7548C35.4682 37.6231 35.6459 37.4731 35.8509 37.2842C36.0559 37.0954 36.2884 36.8678 36.5759 36.5801C36.829 36.3273 37.0421 36.1076 37.2259 35.9078C37.4098 35.7081 37.5648 35.5284 37.7007 35.3551C37.8301 35.1906 37.9507 35.0195 38.0621 34.8423C38.1707 34.6692 38.2707 34.4895 38.3723 34.2904C38.5257 33.9906 38.6621 33.7129 38.784 33.4448C38.9026 33.1867 39.0109 32.9237 39.1087 32.657C39.2051 32.3923 39.2887 32.1231 39.359 31.8504C39.4312 31.5698 39.4935 31.2734 39.5473 30.9484C39.601 30.6234 39.6465 30.2698 39.6859 29.8748C39.7254 29.4801 39.759 29.0434 39.7885 28.5531L39.8668 26.9068L39.9337 24.8594L39.9818 22.5785L40.0001 20.1935L39.9573 15.5091L39.9001 13.411L39.8221 11.6096L39.7246 10.2051C39.6893 9.81427 39.651 9.50646 39.6107 9.29835C39.5657 9.0684 39.5157 8.83954 39.4604 8.61188C39.4065 8.39038 39.3473 8.17021 39.2829 7.95157C39.2201 7.73854 39.1518 7.52715 39.0782 7.31763C39.0054 7.11068 38.9282 6.90807 38.8473 6.70985C38.7668 6.5116 38.6793 6.31799 38.5885 6.12846C38.4973 5.93893 38.4021 5.75402 38.3021 5.57332C38.2018 5.39265 38.0976 5.21646 37.9885 5.0446C37.8796 4.87277 37.766 4.70527 37.6476 4.54227C37.5301 4.37979 37.4073 4.22104 37.2798 4.06621C37.1529 3.91227 37.0212 3.76235 36.8848 3.61668C36.7487 3.47124 36.6079 3.33013 36.4629 3.19357C36.3176 3.05696 36.1682 2.92471 36.014 2.79682C35.859 2.66852 35.7004 2.54505 35.5376 2.42662C35.3735 2.30697 35.2057 2.19236 35.0343 2.08293C34.8607 1.97195 34.684 1.86615 34.504 1.76565C34.3212 1.66347 34.1351 1.56655 33.9468 1.47502C33.6337 1.32291 33.3443 1.18797 33.0604 1.06829C32.781 0.949504 32.4962 0.844007 32.2071 0.752154C31.9162 0.660529 31.6135 0.581979 31.2804 0.51419C30.9471 0.446401 30.5837 0.38989 30.1726 0.341835C29.7615 0.293782 29.3023 0.254955 28.7771 0.222663C28.2521 0.19037 27.6613 0.164996 26.9869 0.144493L24.6949 0.0932356L21.7941 0.0590212L18.0795 0.0362104L18.0782 0.0359562ZM20.0074 3.56018L25.3642 3.59068L27.3851 3.62963C27.9415 3.64527 28.3662 3.6636 28.6151 3.68474C28.9396 3.71204 29.2482 3.74624 29.5437 3.78727C29.8271 3.8264 30.1093 3.87507 30.3893 3.93321C30.6585 3.9896 30.9151 4.05365 31.161 4.12593C31.4065 4.19821 31.6412 4.27921 31.8662 4.36877C32.0915 4.45835 32.3068 4.55688 32.514 4.66479C32.7196 4.77188 32.9193 4.88971 33.1123 5.01782C33.3046 5.14532 33.4898 5.28271 33.6698 5.43071C33.8496 5.57871 34.024 5.73735 34.1943 5.90702C34.3743 6.08604 34.5401 6.26838 34.6929 6.45649C34.8451 6.64346 34.9862 6.8394 35.1148 7.04327C35.2451 7.25004 35.3623 7.46468 35.4662 7.6859C35.5723 7.91146 35.6676 8.14979 35.7532 8.40313C35.839 8.65649 35.9151 8.92571 35.9826 9.2134C36.0534 9.5184 36.1126 9.82596 36.1604 10.1354C36.2115 10.4635 36.2554 10.8133 36.2926 11.1878C36.3296 11.5624 36.3604 11.9618 36.3857 12.3892C36.406 12.732 36.4237 13.1843 36.4387 13.7186L36.4762 15.5402L36.5048 20.0021L36.4723 24.4599L36.4332 26.2762L36.379 27.5972C36.3418 28.2159 36.3023 28.7359 36.2551 29.1884C36.2315 29.4148 36.2057 29.6242 36.1773 29.8206C36.1507 30.0062 36.119 30.1909 36.0826 30.3748C36.0493 30.5426 36.0107 30.7092 35.9665 30.8748C35.9246 31.0323 35.8771 31.1887 35.8246 31.3434C35.7715 31.4987 35.714 31.6523 35.6518 31.804C35.586 31.9645 35.5165 32.1231 35.4435 32.2803C35.3785 32.4206 35.3101 32.5573 35.2379 32.6901C35.1665 32.8217 35.0904 32.9506 35.0104 33.077C34.931 33.2023 34.8476 33.324 34.7604 33.4417C34.6737 33.559 34.5829 33.6731 34.4879 33.784C34.3935 33.8945 34.2948 34.0012 34.1923 34.1045C34.0898 34.2076 33.9835 34.307 33.8732 34.4031C33.7632 34.4992 33.6487 34.5917 33.5304 34.6806C33.4123 34.7695 33.2898 34.8548 33.1635 34.9365C33.0368 35.0184 32.9065 35.0967 32.7718 35.1717C32.6371 35.2465 32.4982 35.3179 32.3554 35.3859C32.2098 35.4551 32.0626 35.5198 31.9132 35.5801C31.759 35.6423 31.6032 35.7001 31.4457 35.7537C31.1251 35.8629 30.7873 35.9587 30.4315 36.0412C30.061 36.127 29.6868 36.197 29.3101 36.2512C29.1651 36.2723 28.8323 36.2923 28.3557 36.3106L26.5392 36.3612L21.3891 36.4281L15.9985 36.4365L13.8816 36.414L12.507 36.3712L11.4934 36.2998C11.1786 36.2734 10.8859 36.244 10.6117 36.2104C10.3375 36.177 10.0821 36.1398 9.84184 36.0976C9.61414 36.0584 9.38784 36.0112 9.16331 35.9567C8.95859 35.907 8.75595 35.849 8.55592 35.7829C8.36306 35.7187 8.17864 35.6481 7.99925 35.5706C7.81984 35.4931 7.64556 35.4081 7.47295 35.3154C7.30034 35.2226 7.12953 35.122 6.95678 35.012C6.82648 34.9292 6.7005 34.8454 6.57928 34.7567C6.45806 34.6679 6.34092 34.5792 6.22817 34.4865C6.11539 34.3937 6.00712 34.2981 5.90267 34.1998C5.79892 34.1017 5.69875 34.0001 5.60231 33.8951C5.5062 33.7901 5.41431 33.6823 5.32614 33.5706C5.23764 33.4584 5.15331 33.3429 5.07334 33.2245C4.99214 33.1042 4.91534 32.9812 4.84306 32.8556C4.77 32.7287 4.70056 32.5976 4.63456 32.462C4.56745 32.3242 4.50484 32.1842 4.44684 32.0423C4.38789 31.8976 4.332 31.7484 4.27948 31.5945C4.17439 31.2862 4.08214 30.9581 4.00192 30.6084C3.9217 30.2587 3.85325 29.887 3.79534 29.4909C3.73742 29.0951 3.69078 28.6751 3.65362 28.229C3.6262 27.9004 3.60442 27.3884 3.58775 26.7425L3.55289 24.4455L3.5657 18.59L3.66656 12.9947L3.74345 11.0233L3.787 10.3717C3.80214 10.1977 3.81778 10.0688 3.83378 9.99135C3.88659 9.73674 3.93975 9.49979 3.99473 9.27799C4.04609 9.06871 4.10323 8.86093 4.16606 8.65482C4.22578 8.46029 4.2887 8.27807 4.35598 8.10546C4.42084 7.93824 4.49314 7.77402 4.57267 7.61327C4.65031 7.45693 4.73375 7.30724 4.82434 7.16154C4.91495 7.01585 5.01273 6.87452 5.11934 6.73393C5.22595 6.59335 5.34075 6.45457 5.4657 6.31388C5.59064 6.17318 5.72559 6.03107 5.87192 5.8846C6.04248 5.71307 6.22006 5.54868 6.40423 5.39188C6.57814 5.24393 6.75948 5.10496 6.94756 4.97554C7.13248 4.84738 7.32214 4.73335 7.51962 4.62852C7.71709 4.52371 7.92237 4.42899 8.13828 4.34379C8.3542 4.25857 8.58103 4.18232 8.82128 4.11313C9.07373 4.04232 9.32895 3.9819 9.58631 3.93204C9.85695 3.87902 10.1444 3.83274 10.4513 3.79238C10.7582 3.75202 11.0847 3.71715 11.4338 3.6869C11.6773 3.6659 12.0968 3.64718 12.6492 3.63143L14.6598 3.59171L20.0083 3.55902L20.0074 3.56018Z" fill="url(#paint2_radial_2021_515)"/>
<defs>
<radialGradient id="paint0_radial_2021_515" cx="0" cy="0" r="1" gradientUnits="userSpaceOnUse" gradientTransform="translate(6.37313 42.8737) rotate(-9.53101) scale(84.5383 51.3142)">
<stop stop-color="#FED576"/>
<stop offset="0.263" stop-color="#F47133"/>
<stop offset="0.609" stop-color="#BC3081"/>
<stop offset="1" stop-color="#4C63D2"/>
</radialGradient>
<radialGradient id="paint1_radial_2021_515" cx="0" cy="0" r="1" gradientUnits="userSpaceOnUse" gradientTransform="translate(6.37318 42.8737) rotate(-9.53102) scale(84.5383 51.3142)">
<stop stop-color="#FED576"/>
<stop offset="0.263" stop-color="#F47133"/>
<stop offset="0.609" stop-color="#BC3081"/>
<stop offset="1" stop-color="#4C63D2"/>
</radialGradient>
<radialGradient id="paint2_radial_2021_515" cx="0" cy="0" r="1" gradientUnits="userSpaceOnUse" gradientTransform="translate(6.37334 42.8737) rotate(-9.53101) scale(84.5383 51.3142)">
<stop stop-color="#FED576"/>
<stop offset="0.263" stop-color="#F47133"/>
<stop offset="0.609" stop-color="#BC3081"/>
<stop offset="1" stop-color="#4C63D2"/>
</radialGradient>
</defs>
</svg>
