<svg width="309" height="106" viewBox="0 0 309 106" fill="none" xmlns="http://www.w3.org/2000/svg">
<path d="M6.9315 99.6045C6.9315 99.6045 42.1104 79.9293 67.1834 72.5404C102.464 62.1433 128.329 58.0025 165.176 57.1024C184.576 56.6285 219.903 54.4782 254.267 35.3597C274.347 24.188 306.613 6.48745 306.613 6.48745" stroke="#B2B2B2" stroke-width="2"/>
<circle cx="11" cy="97.781" r="5" fill="#2EAFA3"/>
<circle cx="93" cy="66.781" r="5" fill="#1E1E1E" stroke="#B2B2B2" stroke-width="2"/>
<circle cx="160" cy="56.781" r="5" fill="#1E1E1E" stroke="#B2B2B2" stroke-width="2"/>
<circle cx="236" cy="43.781" r="5" fill="#1E1E1E" stroke="#B2B2B2" stroke-width="2"/>
<circle cx="303" cy="9.78101" r="5" fill="#1E1E1E" stroke="#B2B2B2" stroke-width="2"/>
<path d="M33.25 101.19L35.9148 95.1446H37.0284L33.7273 102.781H32.7727L29.5312 95.1446H30.625L33.25 101.19ZM30.2472 95.1446V102.781H29.0739V95.1446H30.2472ZM36.2528 102.781V95.1446H37.4261V102.781H36.2528ZM40.7472 101.051L44.4261 95.1446H45.7784V102.781H44.6051V96.8748L40.946 102.781H39.5739V95.1446H40.7472V101.051ZM51.3876 100.832H52.6404C52.667 101.177 52.8227 101.439 53.1078 101.618C53.3961 101.797 53.7707 101.886 54.2314 101.886C54.702 101.886 55.1047 101.79 55.4395 101.598C55.7742 101.402 55.9416 101.087 55.9416 100.653C55.9416 100.398 55.8786 100.176 55.7527 99.987C55.6267 99.7947 55.4494 99.6456 55.2207 99.5395C54.992 99.4335 54.7219 99.3804 54.4103 99.3804H53.0978V98.3265H54.4103C54.8777 98.3265 55.2224 98.2204 55.4444 98.0083C55.6698 97.7962 55.7825 97.531 55.7825 97.2128C55.7825 96.8714 55.6615 96.598 55.4196 96.3925C55.1776 96.1837 54.8346 96.0793 54.3904 96.0793C53.943 96.0793 53.5701 96.1804 53.2718 96.3826C52.9735 96.5814 52.8161 96.8383 52.7995 97.1532H51.5666C51.5798 96.7422 51.7058 96.3793 51.9444 96.0644C52.1831 95.7462 52.5079 95.4976 52.9189 95.3186C53.3298 95.1364 53.8005 95.0452 54.3308 95.0452C54.8677 95.0452 55.3334 95.1397 55.7278 95.3286C56.1255 95.5142 56.4321 95.7677 56.6475 96.0892C56.8663 96.4074 56.9757 96.7687 56.9757 97.1731C56.9757 97.6039 56.8547 97.9519 56.6127 98.2171C56.3708 98.4822 56.0675 98.6712 55.7029 98.7838V98.8634C55.9913 98.8833 56.2415 98.9761 56.4537 99.1418C56.6691 99.3042 56.8365 99.518 56.9558 99.7831C57.0751 100.045 57.1348 100.335 57.1348 100.653C57.1348 101.117 57.0105 101.522 56.7619 101.866C56.5133 102.208 56.1719 102.473 55.7377 102.662C55.3036 102.847 54.8081 102.94 54.2512 102.94C53.711 102.94 53.2271 102.852 52.7995 102.677C52.372 102.498 52.0323 102.251 51.7804 101.936C51.5318 101.618 51.4009 101.25 51.3876 100.832ZM63.8936 98.4259V99.5196H59.6777V98.4259H63.8936ZM59.9561 95.1446V102.781H58.7828V95.1446H59.9561ZM64.7885 95.1446V102.781H63.6152V95.1446H64.7885ZM69.1784 102.96C68.6945 102.96 68.2554 102.869 67.861 102.687C67.4666 102.501 67.1533 102.234 66.9213 101.886C66.6893 101.535 66.5733 101.111 66.5733 100.613C66.5733 100.176 66.6595 99.8213 66.8319 99.5495C67.0042 99.2744 67.2346 99.0589 67.5229 98.9032C67.8113 98.7474 68.1294 98.6314 68.4775 98.5552C68.8288 98.4756 69.1818 98.4126 69.5364 98.3662C70.0004 98.3066 70.3766 98.2618 70.665 98.232C70.9566 98.1989 71.1687 98.1442 71.3013 98.0679C71.4372 97.9917 71.5051 97.8591 71.5051 97.6702V97.6304C71.5051 97.1399 71.3709 96.7588 71.1025 96.487C70.8373 96.2152 70.4346 96.0793 69.8944 96.0793C69.3342 96.0793 68.8951 96.2019 68.5769 96.4472C68.2587 96.6925 68.035 96.9543 67.9057 97.2327L66.7921 96.835C66.9909 96.371 67.2561 96.0097 67.5875 95.7512C67.9223 95.4893 68.2869 95.307 68.6813 95.2043C69.079 95.0982 69.4701 95.0452 69.8546 95.0452C70.0998 95.0452 70.3816 95.075 70.6998 95.1347C71.0212 95.191 71.3311 95.3087 71.6294 95.4877C71.931 95.6667 72.1813 95.9368 72.3801 96.2981C72.579 96.6593 72.6784 97.1432 72.6784 97.7498V102.781H71.5051V101.747H71.4455C71.3659 101.913 71.2334 102.09 71.0478 102.279C70.8622 102.468 70.6152 102.629 70.307 102.761C69.9988 102.894 69.6226 102.96 69.1784 102.96ZM69.3574 101.906C69.8214 101.906 70.2125 101.815 70.5307 101.633C70.8522 101.45 71.0942 101.215 71.2566 100.927C71.4223 100.638 71.5051 100.335 71.5051 100.017V98.9429C71.4554 99.0026 71.3461 99.0573 71.177 99.107C71.0113 99.1534 70.8191 99.1948 70.6003 99.2313C70.3849 99.2644 70.1744 99.2943 69.9689 99.3208C69.7667 99.344 69.6027 99.3639 69.4767 99.3804C69.1718 99.4202 68.8868 99.4848 68.6216 99.5743C68.3598 99.6605 68.1477 99.7914 67.9853 99.9671C67.8262 100.139 67.7466 100.375 67.7466 100.673C67.7466 101.081 67.8974 101.389 68.199 101.598C68.504 101.803 68.8901 101.906 69.3574 101.906ZM75.695 95.1446L77.5245 98.2668L79.354 95.1446H80.7063L78.2404 98.9628L80.7063 102.781H79.354L77.5245 99.8179L75.695 102.781H74.3427L76.7688 98.9628L74.3427 95.1446H75.695ZM85.1683 102.94C84.4789 102.94 83.8741 102.776 83.3537 102.448C82.8366 102.12 82.4323 101.661 82.1406 101.071C81.8523 100.481 81.7081 99.7914 81.7081 99.0026C81.7081 98.2071 81.8523 97.5128 82.1406 96.9195C82.4323 96.3262 82.8366 95.8655 83.3537 95.5374C83.8741 95.2093 84.4789 95.0452 85.1683 95.0452C85.8577 95.0452 86.4609 95.2093 86.978 95.5374C87.4983 95.8655 87.9027 96.3262 88.1911 96.9195C88.4827 97.5128 88.6286 98.2071 88.6286 99.0026C88.6286 99.7914 88.4827 100.481 88.1911 101.071C87.9027 101.661 87.4983 102.12 86.978 102.448C86.4609 102.776 85.8577 102.94 85.1683 102.94ZM85.1683 101.886C85.692 101.886 86.1229 101.752 86.4609 101.483C86.799 101.215 87.0492 100.862 87.2116 100.424C87.3741 99.987 87.4553 99.513 87.4553 99.0026C87.4553 98.4922 87.3741 98.0166 87.2116 97.5757C87.0492 97.1349 86.799 96.7786 86.4609 96.5069C86.1229 96.2351 85.692 96.0992 85.1683 96.0992C84.6446 96.0992 84.2138 96.2351 83.8757 96.5069C83.5376 96.7786 83.2874 97.1349 83.125 97.5757C82.9626 98.0166 82.8814 98.4922 82.8814 99.0026C82.8814 99.513 82.9626 99.987 83.125 100.424C83.2874 100.862 83.5376 101.215 83.8757 101.483C84.2138 101.752 84.6446 101.886 85.1683 101.886ZM89.6042 104.969V101.687H90.2406C90.3964 101.525 90.5306 101.349 90.6433 101.16C90.756 100.971 90.8538 100.748 90.9366 100.489C91.0228 100.227 91.0957 99.9091 91.1554 99.5346C91.215 99.1567 91.2681 98.701 91.3145 98.1674L91.573 95.1446H96.4252V101.687H97.5985V104.969H96.4252V102.781H90.7775V104.969H89.6042ZM91.573 101.687H95.252V96.2384H92.6667L92.4679 98.1674C92.385 98.9661 92.2823 99.6638 92.1596 100.26C92.037 100.857 91.8414 101.333 91.573 101.687ZM100.329 101.051L104.008 95.1446H105.36V102.781H104.187V96.8748L100.528 102.781H99.1559V95.1446H100.329V101.051ZM111.686 101.19L114.35 95.1446H115.464L112.163 102.781H111.208L107.967 95.1446H109.061L111.686 101.19ZM108.683 95.1446V102.781H107.509V95.1446H108.683ZM114.688 102.781V95.1446H115.862V102.781H114.688ZM121.112 102.94C120.422 102.94 119.817 102.776 119.297 102.448C118.78 102.12 118.376 101.661 118.084 101.071C117.796 100.481 117.651 99.7914 117.651 99.0026C117.651 98.2071 117.796 97.5128 118.084 96.9195C118.376 96.3262 118.78 95.8655 119.297 95.5374C119.817 95.2093 120.422 95.0452 121.112 95.0452C121.801 95.0452 122.404 95.2093 122.921 95.5374C123.442 95.8655 123.846 96.3262 124.134 96.9195C124.426 97.5128 124.572 98.2071 124.572 99.0026C124.572 99.7914 124.426 100.481 124.134 101.071C123.846 101.661 123.442 102.12 122.921 102.448C122.404 102.776 121.801 102.94 121.112 102.94ZM121.112 101.886C121.635 101.886 122.066 101.752 122.404 101.483C122.742 101.215 122.993 100.862 123.155 100.424C123.317 99.987 123.399 99.513 123.399 99.0026C123.399 98.4922 123.317 98.0166 123.155 97.5757C122.993 97.1349 122.742 96.7786 122.404 96.5069C122.066 96.2351 121.635 96.0992 121.112 96.0992C120.588 96.0992 120.157 96.2351 119.819 96.5069C119.481 96.7786 119.231 97.1349 119.068 97.5757C118.906 98.0166 118.825 98.4922 118.825 99.0026C118.825 99.513 118.906 99.987 119.068 100.424C119.231 100.862 119.481 101.215 119.819 101.483C120.157 101.752 120.588 101.886 121.112 101.886ZM129.465 102.94C128.749 102.94 128.133 102.771 127.616 102.433C127.099 102.095 126.701 101.629 126.423 101.036C126.144 100.443 126.005 99.7649 126.005 99.0026C126.005 98.227 126.147 97.5426 126.433 96.9493C126.721 96.3527 127.122 95.8871 127.636 95.5523C128.153 95.2142 128.756 95.0452 129.445 95.0452C129.982 95.0452 130.466 95.1446 130.897 95.3435C131.328 95.5424 131.681 95.8208 131.956 96.1787C132.231 96.5367 132.402 96.9543 132.468 97.4316H131.295C131.205 97.0836 131.006 96.7753 130.698 96.5069C130.393 96.2351 129.982 96.0992 129.465 96.0992C129.008 96.0992 128.607 96.2185 128.262 96.4571C127.921 96.6925 127.654 97.0256 127.462 97.4564C127.273 97.884 127.178 98.3861 127.178 98.9628C127.178 99.5528 127.271 100.067 127.457 100.504C127.646 100.942 127.911 101.281 128.252 101.523C128.597 101.765 129.001 101.886 129.465 101.886C129.77 101.886 130.047 101.833 130.295 101.727C130.544 101.621 130.754 101.469 130.927 101.27C131.099 101.071 131.222 100.832 131.295 100.554H132.468C132.402 101.004 132.238 101.411 131.976 101.772C131.717 102.13 131.374 102.415 130.947 102.627C130.522 102.836 130.029 102.94 129.465 102.94ZM135.197 97.9088H137.385C138.28 97.9088 138.964 98.1359 139.438 98.59C139.912 99.044 140.149 99.6191 140.149 100.315C140.149 100.772 140.043 101.188 139.831 101.563C139.619 101.934 139.307 102.231 138.896 102.453C138.485 102.672 137.982 102.781 137.385 102.781H134.183V95.1446H135.357V101.687H137.385C137.849 101.687 138.23 101.565 138.528 101.319C138.827 101.074 138.976 100.759 138.976 100.375C138.976 99.9704 138.827 99.6406 138.528 99.3854C138.23 99.1302 137.849 99.0026 137.385 99.0026H135.197V97.9088ZM145.435 96.2384V95.1446H151.64V96.2384H149.134V102.781H147.961V96.2384H145.435ZM154.107 105.645C153.908 105.645 153.731 105.628 153.575 105.595C153.419 105.565 153.311 105.535 153.252 105.505L153.55 104.471C153.835 104.544 154.087 104.571 154.306 104.551C154.525 104.531 154.718 104.433 154.887 104.258C155.06 104.085 155.217 103.805 155.36 103.417L155.578 102.821L152.755 95.1446H154.027L156.135 101.23H156.215L158.323 95.1446H159.596L156.354 103.895C156.208 104.289 156.028 104.616 155.812 104.874C155.597 105.136 155.346 105.33 155.061 105.456C154.78 105.582 154.462 105.645 154.107 105.645ZM160.707 96.2384V95.1446H166.911V96.2384H164.406V102.781H163.232V96.2384H160.707Z" fill="#2EAFA3"/>
</svg>
