<?xml version="1.0" encoding="UTF-8"?>
<svg id="_Слой_1" data-name="Слой 1" xmlns="http://www.w3.org/2000/svg" viewBox="0 0 517.48 155.18">
  <defs>
    <style>
      .cls-1 {
        fill: #fff;
      }
    </style>
  </defs>
  <path class="cls-1" d="M315.62,93.08c-8.82,14.88-18.08,29.57-32.24,40.34-9.08,6.91-16.54,3.41-17.93-8.15-.76-6.31-.14-12.79-.14-21.19-4.09,2.2-6.75,3.18-8.84,4.87-2.67,2.15-4.8,4.96-7.32,7.32-10.73,10.12-13.97,9.67-21.84-4.49-4.51,5.08-8.35,9.98-12.8,14.25-5.46,5.23-10.77,13.39-19.37,10.22-8.89-3.27-6.02-13.17-7.34-20.46-.42-2.34-.07-4.81-.07-8.99-3.47,2.26-5.72,3.29-7.41,4.9-5.97,5.7-11.79,8.34-19.04,1.62-1.67-1.55-5.9-2.26-7.88-1.26-8.6,4.31-14.89,1.39-20.71-4.91-.72-.78-2.25-.82-4.62-1.62-.57,7.14-1.09,13.7-1.74,21.97-6.69-6.48-3.05-12.6-3.09-18.31-.03-3.73-.28-9.68-2.4-10.74-5.2-2.6-12.07,3.53-13.6,9.73-1.81,7.36-3.46,15.09-7.13,21.57-3.45,6.09-9.16,5.32-11.17-1.36-1.74-5.78-1.87-12.47-.96-18.5,1.66-11,1.91-11.48-8.96-12.39-12.85-1.07-24.21-5.85-34.94-12.68-7.54-4.8-15.4-9.09-25.13-14.79-1.82,27.53-3.49,52.73-5.15,77.93-.8,.04-1.59,.08-2.39,.11-.31-2.14-.94-4.29-.87-6.41,.7-19.76,1.65-39.5,2.27-59.26,.38-11.95,.18-11.95-12.79-10.14,1.03-2.25,1.36-4.44,2.64-5.55,11.04-9.6,14.04-21.66,13.06-35.83-.7-10.21-1.24-20.74,.9-30.87l2.82,.12c0,11.14-.07,22.29,.05,33.43,.03,3.09,.64,6.18,.98,9.27,2.55-1.3,5.27-2.35,7.63-3.92C44.21,28.13,60.16,17.11,76.4,6.53c3.71-2.41,8.32-3.45,12.52-5.12,.37,.9,.74,1.81,1.11,2.71-2.8,1.24-5.63,2.42-8.4,3.73-21.69,10.29-41.07,23.89-57.99,40.81-9.44,9.44-8.09,14.71,3.96,21.21,9.86,5.32,18.9,12.46,29.2,16.57,8.92,3.56,19.05,4.7,28.76,5.59,7.74,.71,15.36-1.92,22.93,3.62,5.55,4.06,15.07-3.38,16.19-11.12,3.2-22.06,6.51-44.11,10.02-66.12,.63-3.93,2.43-7.67,5.95-10.96-.88,5.38-1.74,10.77-2.64,16.15-2.56,15.23-5.29,30.43-7.51,45.7-.32,2.19,1.16,6.19,2.84,6.87,8.77,3.59,8.14,8.37,3.37,14.92-5.71,7.85-4.85,11.81,2.71,16.72,7.81,5.08,15.09,1.44,16.83-7.75,.99-5.26,3.07-10.44,5.51-15.23,.73-1.44,4.31-1.44,6.58-2.1,.58,2.57,2.28,5.59,1.48,7.63-1.38,3.48-5.27,6.07-6.33,9.56-.94,3.09-.64,8.08,1.32,10.04,1.77,1.77,8.19,2.04,9.7,.39,5.68-6.18,10.98-13.02,14.85-20.42,2.45-4.69,2.03-10.84,3.03-16.31,2.75-15.15,2.13-15.78-13.38-14.25-7.42,.73-14.86,1.22-22.29,1.81-.14-1.39-.27-2.78-.41-4.17,5.89-.4,11.77-.95,17.67-1.16,28.14-.97,19.78,3.92,27.23-23,.96-3.46,1.68-6.99,2.51-10.49,1.02,.21,2.03,.43,3.05,.64-1.44,7.57-2.85,15.15-4.33,22.71-1.86,9.46-1.78,9.28,7.6,8.75,15.98-.9,32-1.19,47.98-2.05,16.67-.9,17.6-1.99,20.11-18.33,.56-3.65,1.74-7.2,2.64-10.8,.98,.15,1.96,.3,2.93,.44-.73,4.09-1.32,8.2-2.23,12.25-2.59,11.59-1.54,13,10.09,13.43,1.99,.07,3.96,.66,6.23,2.84-1.3,.47-2.56,1.2-3.89,1.37-16.65,2.14-17.24,2.04-19.44,18.52-2.09,15.7-3.16,31.57-3.84,47.41-.15,3.51,2.44,8.41,5.34,10.28,1.75,1.13,7.51-1.44,9.74-3.89,7.5-8.27,14.26-17.22,21.24-25.96,2.23-2.8,4.28-5.74,6.41-8.62,.76,.57,1.52,1.15,2.27,1.72Zm-77.37-5.3c-1.2,8.83-2.34,14.66-2.65,20.52-.14,2.71,1.32,5.5,2.06,8.25,2.72-.98,5.95-1.34,8.09-3.05,15.46-12.36,24.69-28,26.08-48.15,.47-6.89-.92-9.33-8.1-8.9-14.68,.89-29.41,1.14-44.11,1.63q-19.18,.64-22.95,19.97c-.33,1.69-1.19,3.31-1.3,4.99-.83,12.84-2.49,25.73-1.97,38.52,.4,9.75,6.58,11.75,14.03,5.29,4.84-4.2,9-9.29,12.95-14.38,5.67-7.3,10.86-14.96,17.86-24.69ZM94.95,127.94c8.11-6.66,7.71-15.44,8.12-23.57,.1-1.98-3.5-4.28-5.7-6.08-.3-.25-3.11,1.36-3.4,2.46-2.27,8.81-4.99,17.74,.97,27.2Z"/>
  <path class="cls-1" d="M507,92.28c-7.89,4.83-12.87,11.49-16.24,20.32-3.64,9.54-9.18,18.42-14.39,27.29-6.82,11.61-17.74,16.7-30.76,14.97-11.49-1.52-22.99-4.26-33.98-7.95-11.53-3.88-13.63-8.06-9.96-19.67,1.79-5.66-.9-6.41-4.19-8.61-3.98-2.66-9.55-5.14-5.39-11.92,10.83,8.32,12.46,8.58,23,1.18,5.67-3.98,10.65-3.33,15.11,1.14,3.81,3.81,6.7,5.89,11.94,1.55,2.32-1.92,8.95-2.64,10.16-1.14,2.65,3.28,4.38,8.45,3.97,12.6-.25,2.57-4.83,6.02-7.98,6.7-4.43,.95-9.4,.05-14.03-.73-6.81-1.16-13.45-3.37-20.28-4.2-2.73-.34-7.92,1.36-8.23,2.87-.64,3.17,.15,8.91,2.23,9.98,15.39,7.9,31.23,15.79,49.32,11.74,4.56-1.02,9.65-4.78,12.17-8.74,8-12.57,14.9-25.84,22.29-38.96-10.36-4.48-19.29-7.48-27.32-12.04-9-5.1-10.17-14.94-3.95-23.1,7.89-10.36,18.58-13.67,31.05-11.69,6.6,1.05,9.72-.67,9.67-7.82-.04-5.75-1.82-6.94-7.72-6.68-11.17,.49-22.42-.37-33.62-1.07-3.36-.21-6.96-1.18-9.88-2.81-2.74-1.53-4.73-4.38-7.05-6.65,2.67-2.03,5.05-4.93,8.07-5.95,16.97-5.74,33.44-3.38,48.84,5.09,3.14,1.73,5.26,6.29,6.63,10,3.35,9.01,3.19,18.67,8.68,27.68,4.46,7.32,2.43,17.58-5.81,24.19,1.19-7.9,2.38-15.79,3.57-23.69-1.34-.27-2.67-.55-4.01-.82-2.36,8.24-4.79,16.47-6.87,24.78-.07,.3,3.22,1.43,4.94,2.17Zm-18.3-33.92c-5.92,1.16-12.05,1.69-17.69,3.65-6.36,2.21-9.56,7.37-8.2,14.29,1.52,7.73,15.53,17.41,25.65,16.97,9.22-.41,6.9-9.28,9.11-14.65,1.12-2.71,1.31-5.85,1.59-8.82,.95-10.21,.34-10.8-10.46-11.43Z"/>
  <path class="cls-1" d="M400.34,100.39c8.43-2.46,16.87-4.92,25.3-7.38,.1-1.08,.21-2.17,.31-3.25-4.4-1.74-8.76-3.57-13.2-5.21-9.44-3.49-10.75-6.06-6.99-15.31,2.58-6.35,5.49-12.56,8.26-18.83,6.15-13.91,8.63-27.22-5.94-38.01-.99-.73-1.84-3.29-1.33-4.01,.78-1.12,3.42-2.35,4.19-1.86,5.18,3.31,12.55,6.09,14.48,10.91,2.64,6.59,2.79,15.31,.9,22.27-2.89,10.62-8.06,20.71-13.01,30.66-3.23,6.5-1.53,9.53,5.11,10.86,.42,.09,.84,.2,1.26,.3,4.81,1.15,12.23,.68,10.73,7.79-.79,3.72-6.57,7.37-10.88,9.12-5.81,2.37-12.39,2.88-18.64,4.2-.18-.75-.36-1.51-.53-2.26Z"/>
</svg>