<?xml version="1.0" encoding="UTF-8"?>
<svg xmlns="http://www.w3.org/2000/svg" viewBox="0 0 303.41 203.01">
  <defs>
    <style>
      .cls-1 {
        fill: #fff;
      }

      .cls-2 {
        fill: #ffed00;
      }
    </style>
  </defs>
  <g id="_Слой_2" data-name="Слой 2">
    <path class="cls-2" d="M140.22,53.01c-.41-.03-.73-.38-.72-.8l.51-29.63c-.25-3.63,2.71-6.54,5.87-6.4,2.78,.13,5.26,2.61,5.35,5.78,.09,8.64,.17,17.28,.26,25.93,.04,.27,.24,.49,.49,.55,.3,.07,.63-.12,.74-.44,1.96-12.23,3.93-24.46,5.89-36.68,.05-.28,.12-.56,.25-.82,1.03-2.03,3.28-3.18,5.5-2.79,2.09,.36,3.76,2,4.18,4.1,.06,.29,.05,.59,.02,.89l-4.01,33.17c-.15,.66,.31,1.21,.78,1.24,.37,.02,.59-.18,.89-.76,.47-.94,2.03-8.13,7.8-27.21,1.02-2.65,3.97-3.98,6.51-3.07,2.37,.85,3.8,3.44,3.21,6.01-2.46,10.03-4.93,20.06-7.39,30.1-.12,.59-.04,1.22,.37,1.36,.35,.12,.84-.11,1.06-.59,3.08-5.69,5.73-10.56,8.81-16.25,.96-1.44,2.64-2.74,5.23-1.45,1.79,.9,2.47,3.11,1.65,4.94-4.47,9.93-6.58,17.45-7.98,23.11-3.11,12.66-2.6,18.63-7.82,27.96-2.85,5.1-6.03,10.6-12.66,13.54-8.7,3.86-17.4,.62-19.38,0-1.28-.4-6.11-1.84-10.46-6.61-4.35-4.76-12.94-21.38-12.94-21.38-4.06-6.71-8.12-13.42-12.18-20.13-.13-.22-.25-.45-.32-.7-.62-2.15,.04-4.44,1.66-5.8,1.94-1.63,4.82-1.74,6.95-.02,.28,.22,.65,.66,.86,.94l18.39,24.95,10.35,15.19c.44,.74,1.4,.96,2.11,.53,.73-.45,.94-1.46,.43-2.18-1.39-2.97-2.79-5.94-4.18-8.92-.08-.26-.02-.54,.17-.71,.24-.22,.66-.21,.94,.05,3.49,4.44,6.97,8.88,10.46,13.32,.72,.65,1.71,.81,2.44,.42,.97-.52,1.38-1.98,.65-3.17-2.74-3.82-5.49-7.63-8.23-11.45-.14-.28-.12-.61,.05-.84,.23-.31,.73-.41,1.14-.15l12,12c.75,.5,1.69,.51,2.35,.04,.83-.6,1.08-1.9,.41-2.9-3.82-4.18-7.63-8.37-11.45-12.55-.22-.29-.22-.68-.02-.94,.25-.31,.77-.37,1.12-.06,3.3,2.46,6.61,4.92,9.91,7.38,.88,.52,2.02,.28,2.64-.53,.61-.81,.52-1.96-.21-2.66-8.47-7.68-13.79-12.25-16.07-13.76-.44-.29-1.78-1.14-1.73-2.22,.02-.38,.2-.72,.46-1.01,.56-.64,1.42-.95,2.28-.93l10.02,.27c1.53,.19,2.88-.89,3.05-2.25,.19-1.48-1.05-2.96-2.72-2.97l-25.7-2.06Z"/>
  </g>
  <g id="_Слой_3" data-name="Слой 3">
    <g>
      <path class="cls-1" d="M32.46,128.32c-1.17-2.02-2.77-3.6-4.81-4.74-1.64-.91-3.4-1.45-5.3-1.63-.34-.03-.64,.25-.64,.6v4.58c0,.3,.22,.54,.52,.58,1.48,.23,2.71,.88,3.69,1.96,1.24,1.37,1.86,3.2,1.86,5.49s-.62,4.1-1.86,5.48c-.98,1.09-2.21,1.74-3.69,1.97-.29,.05-.52,.29-.52,.58v4.61c0,.35,.3,.63,.64,.6,1.89-.17,3.65-.71,5.29-1.63,2.02-1.13,3.62-2.72,4.81-4.75,1.18-2.04,1.77-4.32,1.77-6.87s-.58-4.82-1.76-6.84Zm-23.08,0c-1.2,2.02-1.8,4.3-1.8,6.84s.6,4.83,1.8,6.87c1.19,2.03,2.81,3.62,4.84,4.75,1.62,.91,3.36,1.44,5.23,1.62,.35,.03,.64-.25,.64-.6v-4.62c0-.3-.22-.53-.52-.58-1.47-.24-2.68-.89-3.64-1.94-1.25-1.37-1.87-3.2-1.87-5.5s.62-4.15,1.87-5.51c.96-1.04,2.17-1.69,3.64-1.92,.29-.05,.52-.29,.52-.58v-4.58c0-.35-.3-.63-.65-.6-1.86,.18-3.61,.72-5.22,1.62-2.03,1.14-3.65,2.72-4.84,4.74Z"/>
      <path class="cls-1" d="M54.59,147.91l-5.06-9.19c-.1-.19-.3-.31-.52-.31h-.57c-.33,0-.59,.27-.59,.59v8.62c0,.33-.27,.59-.59,.59h-5.14c-.33,0-.59-.27-.59-.59v-24.79c0-.33,.27-.59,.59-.59h10.03c2.05,0,3.79,.36,5.24,1.07,1.44,.72,2.52,1.7,3.24,2.94,.71,1.25,1.07,2.63,1.07,4.16,0,1.73-.49,3.27-1.46,4.62-.85,1.19-2.06,2.07-3.62,2.65-.35,.13-.51,.53-.32,.86l5.11,8.77c.23,.4-.05,.89-.51,.89h-5.76c-.22,0-.42-.12-.52-.31Zm-6.75-14.57c0,.33,.27,.59,.59,.59h3.33c1.16,0,2.03-.28,2.61-.85s.87-1.37,.87-2.41-.29-1.76-.87-2.33c-.58-.57-1.45-.85-2.61-.85h-3.33c-.33,0-.59,.27-.59,.59v5.25Z"/>
      <path class="cls-1" d="M88.17,134.74c-.69,1.25-1.75,2.25-3.18,3.02-1.43,.77-3.21,1.15-5.33,1.15h-3.33c-.33,0-.59,.27-.59,.59v8.14c0,.33-.27,.59-.59,.59h-5.14c-.33,0-.59-.27-.59-.59v-24.79c0-.33,.27-.59,.59-.59h9.66c2.07,0,3.82,.36,5.25,1.07,1.43,.72,2.5,1.7,3.22,2.96,.71,1.26,1.07,2.7,1.07,4.33,0,1.5-.35,2.88-1.04,4.13Zm-6.29-1.72c.59-.57,.89-1.37,.89-2.4s-.3-1.84-.89-2.41c-.59-.57-1.49-.85-2.7-.85h-2.85c-.33,0-.59,.27-.59,.59v5.32c0,.33,.27,.59,.59,.59h2.85c1.21,0,2.11-.28,2.7-.85Z"/>
      <path class="cls-1" d="M118.76,122.84v24.79c0,.33-.27,.59-.59,.59h-5.14c-.33,0-.59-.27-.59-.59v-9.51c0-.33-.27-.59-.59-.59h-8.65c-.33,0-.59,.27-.59,.59v9.51c0,.33-.27,.59-.59,.59h-5.14c-.33,0-.59-.27-.59-.59v-24.79c0-.33,.27-.59,.59-.59h5.14c.33,0,.59,.27,.59,.59v8.99c0,.33,.27,.59,.59,.59h8.65c.33,0,.59-.27,.59-.59v-8.99c0-.33,.27-.59,.59-.59h5.14c.33,0,.59,.27,.59,.59Z"/>
      <path class="cls-1" d="M142.83,143.63h-8.84c-.25,0-.48,.16-.56,.4l-1.28,3.78c-.08,.24-.31,.4-.56,.4h-5.35c-.41,0-.7-.41-.56-.8l8.97-24.79c.09-.24,.31-.39,.56-.39h6.49c.25,0,.47,.16,.56,.39l8.97,24.79c.14,.39-.15,.8-.56,.8h-5.42c-.25,0-.48-.16-.56-.4l-1.28-3.78c-.08-.24-.31-.4-.56-.4Zm-1.47-5.67l-2.39-7.05c-.18-.54-.95-.54-1.13,0l-2.36,7.05c-.13,.38,.16,.78,.56,.78h4.75c.41,0,.69-.4,.56-.78Z"/>
      <path class="cls-1" d="M180.77,148.22h-5.41c-.2,0-.39-.1-.5-.27l-9.32-14.11c-.32-.49-1.09-.26-1.09,.33v13.45c0,.33-.27,.59-.59,.59h-5.14c-.33,0-.59-.27-.59-.59v-24.79c0-.33,.27-.59,.59-.59h5.41c.2,0,.39,.1,.5,.27l9.32,14.17c.32,.49,1.09,.26,1.09-.33v-13.52c0-.33,.27-.59,.59-.59h5.14c.33,0,.59,.27,.59,.59v24.79c0,.33-.27,.59-.59,.59Z"/>
      <path class="cls-1" d="M205.47,143.63h-8.84c-.25,0-.48,.16-.56,.4l-1.28,3.78c-.08,.24-.31,.4-.56,.4h-5.35c-.41,0-.7-.41-.56-.8l8.97-24.79c.09-.24,.31-.39,.56-.39h6.49c.25,0,.47,.16,.56,.39l8.97,24.79c.14,.39-.15,.8-.56,.8h-5.42c-.25,0-.48-.16-.56-.4l-1.28-3.78c-.08-.24-.31-.4-.56-.4Zm-1.47-5.67l-2.39-7.05c-.18-.54-.95-.54-1.13,0l-2.36,7.05c-.13,.38,.16,.78,.56,.78h4.75c.41,0,.69-.4,.56-.78Z"/>
      <path class="cls-1" d="M238.34,130.46c-.21,0-.39-.11-.5-.29-.46-.72-1.07-1.29-1.85-1.69-.88-.46-1.91-.68-3.09-.68-2.05,0-3.69,.67-4.92,2.02-1.23,1.34-1.85,3.14-1.85,5.38,0,2.39,.65,4.26,1.94,5.61,1.29,1.34,3.08,2.02,5.35,2.02,1.55,0,2.87-.39,3.94-1.18,.86-.63,1.53-1.48,2.01-2.55,.18-.4-.1-.86-.54-.86h-6.56c-.33,0-.59-.27-.59-.59v-3.47c0-.33,.27-.59,.59-.59h12.58c.33,0,.59,.27,.59,.59v5.19c0,.06,0,.13-.03,.19-.47,1.54-1.26,2.98-2.36,4.31-1.12,1.36-2.55,2.46-4.27,3.29-1.73,.84-3.68,1.26-5.85,1.26-2.57,0-4.85-.56-6.86-1.68-2.01-1.12-3.58-2.68-4.7-4.68-1.12-2-1.68-4.28-1.68-6.84s.56-4.85,1.68-6.86c1.12-2.01,2.68-3.58,4.68-4.7,2-1.12,4.28-1.68,6.85-1.68,3.11,0,5.73,.75,7.86,2.26,1.92,1.36,3.26,3.19,4.01,5.49,.12,.38-.18,.76-.57,.76h-5.87Z"/>
      <path class="cls-1" d="M259.07,127.91v4.07c0,.33,.27,.59,.59,.59h7.29c.33,0,.59,.27,.59,.59v3.7c0,.33-.27,.59-.59,.59h-7.29c-.33,0-.59,.27-.59,.59v4.51c0,.33,.27,.59,.59,.59h8.4c.33,0,.59,.27,.59,.59v3.88c0,.33-.27,.59-.59,.59h-14.72c-.33,0-.59-.27-.59-.59v-24.79c0-.33,.27-.59,.59-.59h14.72c.33,0,.59,.27,.59,.59v3.88c0,.33-.27,.59-.59,.59h-8.4c-.33,0-.59,.27-.59,.59Z"/>
      <path class="cls-1" d="M280.82,147.56c-1.5-.62-2.71-1.53-3.61-2.74-.79-1.06-1.25-2.3-1.39-3.73-.03-.34,.25-.63,.6-.63h5.59c.29,0,.52,.22,.58,.5,.15,.72,.46,1.29,.92,1.7,.57,.51,1.31,.76,2.22,.76s1.68-.22,2.22-.65c.54-.43,.81-1.03,.81-1.79,0-.64-.22-1.17-.65-1.59-.43-.42-.96-.76-1.59-1.04-.63-.27-1.52-.58-2.68-.93-1.68-.52-3.05-1.04-4.11-1.55s-1.97-1.28-2.74-2.29c-.76-1.01-1.15-2.33-1.15-3.96,0-2.42,.88-4.31,2.63-5.68,1.75-1.37,4.03-2.05,6.84-2.05s5.17,.68,6.92,2.05c1.59,1.25,2.51,2.93,2.76,5.07,.04,.35-.25,.65-.6,.65h-5.71c-.28,0-.49-.21-.55-.48-.12-.61-.41-1.11-.86-1.5-.57-.48-1.29-.72-2.18-.72-.76,0-1.38,.2-1.85,.61-.47,.41-.7,.99-.7,1.76,0,.84,.39,1.49,1.18,1.96,.79,.47,2.02,.97,3.7,1.52,1.68,.57,3.04,1.11,4.09,1.63,1.05,.52,1.95,1.27,2.72,2.26,.76,.99,1.15,2.26,1.15,3.81s-.38,2.82-1.13,4.03c-.75,1.21-1.84,2.17-3.27,2.89-1.43,.72-3.12,1.07-5.07,1.07s-3.6-.31-5.11-.92Z"/>
    </g>
    <g>
      <path class="cls-1" d="M17.36,177.87v3.64c0,.34,.28,.62,.62,.62h5.41c.34,0,.62-.28,.62-.62v-3.64c0-.34-.28-.62-.62-.62h-5.41c-.34,0-.62,.28-.62,.62Zm-2.25-21.71h-5.08c-.34,0-.62,.28-.62,.62v24.73c0,.34,.28,.62,.62,.62h5.09c.34,0,.62-.28,.62-.62v-4.27h0v-20.47c0-.34-.28-.62-.62-.62Z"/>
      <path class="cls-1" d="M37.81,156.78v24.73c0,.34-.28,.62-.62,.62h-5.08c-.34,0-.62-.28-.62-.62v-24.73c0-.34,.28-.62,.62-.62h5.08c.34,0,.62,.28,.62,.62Z"/>
      <path class="cls-1" d="M66.19,171.05c.91,1.17,1.37,2.51,1.37,4.01,0,2.17-.76,3.89-2.28,5.16-1.52,1.27-3.63,1.91-6.35,1.91h-11.47c-.34,0-.62-.28-.62-.62v-24.73c0-.34,.28-.62,.62-.62h11.07c2.64,0,4.71,.6,6.2,1.81,1.49,1.21,2.24,2.85,2.24,4.92,0,1.53-.4,2.8-1.2,3.81-.49,.62-1.08,1.12-1.77,1.51-.44,.24-.41,.87,.04,1.09,.84,.4,1.56,.98,2.16,1.75Zm-13.02-5.01c0,.34,.28,.62,.62,.62h3.52c1.04,0,1.83-.23,2.39-.68,.56-.46,.83-1.13,.83-2.02s-.28-1.57-.83-2.04c-.55-.47-1.35-.7-2.39-.7h-3.52c-.34,0-.62,.28-.62,.62v4.19Zm7.12,10.26c.58-.48,.87-1.18,.87-2.09s-.3-1.63-.91-2.15c-.6-.52-1.44-.78-2.5-.78h-3.96c-.34,0-.62,.28-.62,.62v4.49c0,.34,.28,.62,.62,.62h4.04c1.06,0,1.88-.24,2.46-.72Z"/>
      <path class="cls-1" d="M88.73,181.81l-5.05-9.16c-.11-.2-.32-.32-.55-.32h-.52c-.34,0-.62,.28-.62,.62v8.56c0,.34-.28,.62-.62,.62h-5.08c-.34,0-.62-.28-.62-.62v-24.73c0-.34,.28-.62,.62-.62h9.99c2.05,0,3.79,.36,5.24,1.07,1.44,.72,2.52,1.7,3.24,2.94,.71,1.25,1.07,2.63,1.07,4.16,0,1.73-.49,3.27-1.46,4.62-.85,1.18-2.04,2.06-3.59,2.64-.37,.14-.54,.56-.34,.9l5.06,8.69c.24,.42-.06,.94-.54,.94h-5.69c-.23,0-.44-.12-.55-.32Zm-6.74-14.58c0,.34,.28,.62,.62,.62h3.3c1.16,0,2.03-.28,2.61-.85s.87-1.37,.87-2.41-.29-1.76-.87-2.33c-.58-.57-1.45-.85-2.61-.85h-3.3c-.34,0-.62,.28-.62,.62v5.19Z"/>
      <path class="cls-1" d="M119.95,177.55h-8.8c-.27,0-.51,.17-.59,.42l-1.27,3.74c-.09,.25-.32,.42-.59,.42h-5.29c-.43,0-.73-.43-.59-.84l8.95-24.73c.09-.25,.32-.41,.59-.41h6.45c.26,0,.5,.16,.59,.41l8.95,24.73c.15,.41-.15,.84-.59,.84h-5.36c-.27,0-.51-.17-.59-.42l-1.27-3.74c-.09-.25-.32-.42-.59-.42Zm-1.46-5.71l-2.34-6.93c-.19-.57-.99-.57-1.18,0l-2.32,6.93c-.14,.4,.17,.82,.59,.82h4.66c.43,0,.73-.42,.59-.82Z"/>
      <path class="cls-1" d="M149.01,181.81l-5.05-9.16c-.11-.2-.32-.32-.55-.32h-.52c-.34,0-.62,.28-.62,.62v8.56c0,.34-.28,.62-.62,.62h-5.08c-.34,0-.62-.28-.62-.62v-24.73c0-.34,.28-.62,.62-.62h9.99c2.05,0,3.79,.36,5.24,1.07,1.44,.72,2.52,1.7,3.24,2.94,.71,1.25,1.07,2.63,1.07,4.16,0,1.73-.49,3.27-1.46,4.62-.85,1.18-2.04,2.06-3.59,2.64-.37,.14-.54,.56-.34,.9l5.06,8.69c.24,.42-.06,.94-.54,.94h-5.69c-.23,0-.44-.12-.55-.32Zm-6.74-14.58c0,.34,.28,.62,.62,.62h3.3c1.16,0,2.03-.28,2.61-.85s.87-1.37,.87-2.41-.29-1.76-.87-2.33c-.58-.57-1.45-.85-2.61-.85h-3.3c-.34,0-.62,.28-.62,.62v5.19Z"/>
      <path class="cls-1" d="M186.3,157.07l-8.45,16.34c-.05,.09-.07,.19-.07,.29v7.81c0,.34-.28,.62-.62,.62h-5.08c-.34,0-.62-.28-.62-.62v-7.81c0-.1-.02-.2-.07-.29l-8.45-16.34c-.21-.42,.09-.91,.55-.91h5.75c.24,0,.46,.14,.57,.36l4.3,9.29c.22,.48,.91,.48,1.13,0l4.26-9.28c.1-.22,.32-.36,.57-.36h5.68c.47,0,.77,.5,.55,.91Z"/>
      <path class="cls-1" d="M225.41,171.06c-.6-.77-1.32-1.35-2.16-1.75-.45-.21-.48-.84-.04-1.09,.69-.39,1.28-.89,1.78-1.51,.8-1.01,1.2-2.28,1.2-3.81,0-2.07-.74-3.71-2.24-4.92-1.49-1.21-3.55-1.82-6.19-1.82h-11.08c-.34,0-.62,.28-.62,.62v3.82c0,.34,.28,.62,.62,.62h9.86c1.03,0,1.83,.24,2.38,.71,.56,.46,.83,1.14,.83,2.03s-.27,1.56-.83,2.02c-.55,.45-1.35,.68-2.38,.68h-9.86c-.34,0-.62,.28-.62,.62v3.38c0,.34,.28,.62,.62,.62h10.3c1.06,0,1.89,.26,2.5,.77,.6,.52,.9,1.24,.9,2.15s-.29,1.61-.87,2.09-1.4,.72-2.46,.72h-10.37c-.34,0-.62,.28-.62,.62v3.86c0,.34,.28,.62,.62,.62h11.48c2.72,0,4.83-.64,6.35-1.91,1.52-1.27,2.28-2.99,2.28-5.16,0-1.5-.46-2.84-1.37-4.01Z"/>
      <path class="cls-1" d="M250.6,177.55h-8.8c-.27,0-.51,.17-.59,.42l-1.27,3.74c-.09,.25-.32,.42-.59,.42h-5.28c-.43,0-.73-.43-.59-.84l8.95-24.73c.09-.25,.32-.41,.59-.41h6.45c.26,0,.5,.16,.59,.41l8.95,24.73c.15,.41-.15,.84-.59,.84h-5.36c-.27,0-.51-.17-.59-.42l-1.27-3.74c-.09-.25-.32-.42-.59-.42Zm-1.46-5.71l-2.34-6.93c-.19-.57-.99-.57-1.18,0l-2.32,6.93c-.14,.4,.17,.82,.59,.82h4.66c.43,0,.73-.42,.59-.82Z"/>
      <path class="cls-1" d="M273.54,177.25h7.04c.34,0,.62,.28,.62,.62v3.63c0,.34-.28,.62-.62,.62h-13.37c-.34,0-.62-.28-.62-.62v-24.73c0-.34,.28-.62,.62-.62h5.08c.34,0,.62,.28,.62,.62v19.84c0,.34,.28,.62,.62,.62Z"/>
      <path class="cls-1" d="M295,156.78v24.73c0,.34-.28,.62-.62,.62h-5.08c-.34,0-.62-.28-.62-.62v-24.73c0-.34,.28-.62,.62-.62h5.08c.34,0,.62,.28,.62,.62Z"/>
    </g>
  </g>
</svg>