<svg width="14" height="16" viewBox="0 0 14 16" fill="none" xmlns="http://www.w3.org/2000/svg">
<path d="M8.33341 1.3335H3.00008C2.64646 1.3335 2.30732 1.47397 2.05727 1.72402C1.80722 1.97407 1.66675 2.31321 1.66675 2.66683V13.3335C1.66675 13.6871 1.80722 14.0263 2.05727 14.2763C2.30732 14.5264 2.64646 14.6668 3.00008 14.6668H11.0001C11.3537 14.6668 11.6928 14.5264 11.9429 14.2763C12.1929 14.0263 12.3334 13.6871 12.3334 13.3335V5.3335M8.33341 1.3335L12.3334 5.3335M8.33341 1.3335L8.33341 5.3335H12.3334M9.66675 8.66683H4.33341M9.66675 11.3335H4.33341M5.66675 6.00016H4.33341" stroke="#2EAFA3" stroke-width="1.6" stroke-linecap="round" stroke-linejoin="round"/>
</svg>
