<svg width="14" height="21" viewBox="0 0 14 21" fill="none" xmlns="http://www.w3.org/2000/svg">
<path d="M7.00008 7.83105V10.3311L8.25008 11.5811M10.7584 14.7894L10.4667 17.9811C10.4292 18.3966 10.2372 18.7829 9.92858 19.0637C9.61999 19.3446 9.21731 19.4994 8.80008 19.4977H5.19175C4.77452 19.4994 4.37184 19.3446 4.06325 19.0637C3.75467 18.7829 3.56263 18.3966 3.52508 17.9811L3.23341 14.7894M3.24175 5.87272L3.53341 2.68106C3.57084 2.26695 3.76169 1.88179 4.06851 1.60118C4.37533 1.32057 4.77596 1.16478 5.19175 1.16439H8.81675C9.23397 1.1627 9.63666 1.31755 9.94525 1.59837C10.2538 1.87918 10.4459 2.26552 10.4834 2.68106L10.7751 5.87272M12.8334 10.3311C12.8334 13.5527 10.2217 16.1644 7.00008 16.1644C3.77842 16.1644 1.16675 13.5527 1.16675 10.3311C1.16675 7.10939 3.77842 4.49772 7.00008 4.49772C10.2217 4.49772 12.8334 7.10939 12.8334 10.3311Z" stroke="#2EAFA3" stroke-width="1.6" stroke-linecap="round" stroke-linejoin="round"/>
</svg>
