<svg width="16" height="20" viewBox="0 0 16 20" fill="none" xmlns="http://www.w3.org/2000/svg">
<path d="M7.25 1.0752C7.25 0.522911 7.69772 0.0751953 8.25 0.0751953C8.80228 0.0751953 9.25 0.522911 9.25 1.0752H7.25ZM8.95711 18.7823C8.56658 19.1728 7.93342 19.1728 7.54289 18.7823L1.17893 12.4183C0.788408 12.0278 0.788408 11.3947 1.17893 11.0041C1.56946 10.6136 2.20262 10.6136 2.59315 11.0041L8.25 16.661L13.9069 11.0041C14.2974 10.6136 14.9305 10.6136 15.3211 11.0041C15.7116 11.3947 15.7116 12.0278 15.3211 12.4183L8.95711 18.7823ZM9.25 1.0752L9.25 18.0752H7.25L7.25 1.0752H9.25Z" fill="white"/>
</svg>
