<svg width="251" height="36" viewBox="0 0 251 36" fill="none" xmlns="http://www.w3.org/2000/svg">
<g clip-path="url(#clip0_66_74)">
<g clip-path="url(#clip1_66_74)">
<g clip-path="url(#clip2_66_74)">
<path d="M11.9849 6.23144C16.9884 8.11145 21.1464 8.22295 23.5994 8.08977C27.7001 7.86832 30.9398 6.75332 32.4264 6.23144C36.9174 4.65342 37.591 3.37427 42.0278 2.05021C43.8861 1.49581 46.415 0.740093 49.3465 0.811329C55.0531 0.949154 59.4372 4.14857 61.7585 6.23144C55.8785 4.18883 51.5378 4.64257 49.1529 5.14742C46.4459 5.7204 43.6012 6.92057 41.5648 7.78005C38.1408 9.22489 37.4098 9.89699 34.7509 10.8773C34.116 11.1111 30.1206 12.5621 26.6981 12.7356C19.7898 13.0856 14.1452 8.28799 11.9864 6.23144H11.9849Z" fill="white"/>
<path d="M11.9849 29.1509C16.9884 31.0309 21.1464 31.1424 23.5994 31.0092C27.7001 30.7878 30.9398 29.6728 32.4264 29.1509C36.9174 27.5728 37.591 26.2937 42.0278 24.9696C43.8861 24.4152 46.415 23.6595 49.3465 23.7308C55.0531 23.8686 59.4372 27.068 61.7585 29.1509C55.8785 27.1083 51.5378 27.562 49.1529 28.0669C46.4459 28.6398 43.6012 29.84 41.5648 30.6995C38.1408 32.1443 37.4098 32.8164 34.7509 33.7967C34.116 34.0305 30.1206 35.4816 26.6981 35.655C19.7898 36.005 14.1452 31.2074 11.9864 29.1509H11.9849Z" fill="white"/>
<path d="M0.834961 14.2846C4.50206 16.3767 12.2962 20.2142 20.9668 19.7047C25.0505 19.4646 29.8109 18.2335 30.1036 18.1561C33.9302 17.1526 35.9666 16.1506 38.466 15.2137C40.058 14.616 47.8661 11.7836 54.5715 11.9617C57.3869 12.036 64.7211 12.7654 72.9999 20.3241C64.3943 15.7635 57.8329 15.9029 54.5715 16.2977C50.5746 16.7809 45.856 18.3342 44.041 18.9304C39.5609 20.4046 38.2632 21.3059 34.2848 22.4922C29.6436 23.8751 25.5584 24.3908 23.7543 24.5053C13.47 25.1542 4.17065 17.3508 0.834961 14.2846Z" fill="white"/>
</g>
</g>
</g>
<g clip-path="url(#clip3_66_74)">
<path d="M109.727 12.3157C109.727 13.1223 109.565 13.7963 109.235 14.3487C108.905 14.9012 108.441 15.3376 107.843 15.6746C107.245 16.0116 106.529 16.2547 105.696 16.3983C104.863 16.542 103.947 16.6193 102.946 16.6193H92V0.576172H103.147C104.07 0.576172 104.897 0.659038 105.618 0.824772C106.339 0.990507 106.96 1.23359 107.463 1.54848C107.966 1.86338 108.352 2.26114 108.614 2.73073C108.877 3.20031 109.011 3.74171 109.011 4.3494V4.84661C109.011 5.78577 108.721 6.52053 108.145 7.04535C107.569 7.57018 106.697 7.9127 105.523 8.06738C106.132 8.13368 106.691 8.26075 107.206 8.45963C107.72 8.65851 108.162 8.91264 108.536 9.22753C108.911 9.54243 109.196 9.91257 109.403 10.349C109.61 10.7854 109.716 11.2605 109.716 11.7909V12.3102L109.727 12.3157ZM104.232 4.94605C104.232 4.76926 104.198 4.59801 104.131 4.43227C104.064 4.26654 103.952 4.11737 103.796 3.97926C103.639 3.84115 103.427 3.73618 103.169 3.65331C102.912 3.57045 102.582 3.53178 102.197 3.53178H96.7294V6.7857H101.995C102.773 6.7857 103.343 6.64207 103.695 6.36032C104.047 6.07857 104.226 5.70843 104.226 5.24437V4.935L104.232 4.94605ZM104.942 11.3821C104.925 11.0948 104.852 10.8462 104.718 10.6418C104.584 10.4374 104.394 10.2661 104.148 10.1391C103.902 10.012 103.611 9.91257 103.27 9.8518C102.929 9.79103 102.549 9.7634 102.135 9.7634H96.7294V13.3985H102.191C102.555 13.3985 102.907 13.3764 103.237 13.3322C103.566 13.288 103.863 13.2107 104.12 13.0892C104.377 12.9676 104.578 12.7964 104.724 12.5698C104.869 12.3433 104.942 12.045 104.93 11.6804V11.3821H104.942Z" fill="white"/>
<path d="M112.6 16.6193V0.576172H117.33V16.6193H112.6Z" fill="white"/>
<path d="M130.104 7.87423H139.428L139.384 9.64759C139.384 9.72494 139.384 9.79123 139.384 9.84648C139.384 9.90172 139.372 9.96802 139.367 10.0454C139.294 10.9293 139.048 11.7856 138.629 12.6198C138.21 13.454 137.611 14.1943 136.84 14.8406C136.069 15.487 135.129 16.0063 134.023 16.393C132.916 16.7797 131.635 16.9786 130.193 16.9786C128.527 16.9786 127.068 16.7963 125.821 16.4317C124.575 16.0671 123.535 15.5533 122.702 14.8903C121.869 14.2274 121.254 13.4263 120.841 12.4872C120.427 11.548 120.226 10.5094 120.226 9.36585V7.83004C120.226 6.66989 120.432 5.62024 120.852 4.68108C121.271 3.74191 121.897 2.94086 122.73 2.27792C123.563 1.61498 124.603 1.10673 125.849 0.753162C127.096 0.399594 128.544 0.217285 130.204 0.217285C131.507 0.217285 132.681 0.355397 133.732 0.631622C134.783 0.907847 135.688 1.31113 136.465 1.83596C137.243 2.36079 137.869 3.00716 138.366 3.77506C138.864 4.54296 139.205 5.41583 139.406 6.39919H134.822C134.593 5.42136 134.084 4.67555 133.29 4.16177C132.496 3.64799 131.462 3.38835 130.188 3.38835C129.455 3.38835 128.773 3.47674 128.136 3.65905C127.499 3.84135 126.945 4.11206 126.47 4.47115C125.995 4.83024 125.62 5.28325 125.346 5.8357C125.072 6.38815 124.938 7.02346 124.938 7.75822V9.46529C124.938 10.189 125.072 10.8188 125.346 11.3657C125.62 11.9126 125.989 12.3656 126.464 12.7303C126.94 13.0949 127.493 13.3656 128.13 13.5479C128.768 13.7302 129.45 13.8186 130.182 13.8186C130.998 13.8186 131.708 13.7357 132.306 13.57C132.904 13.4043 133.408 13.1777 133.81 12.896C134.213 12.6142 134.52 12.2828 134.744 11.9071C134.967 11.5314 135.107 11.1226 135.163 10.6917H130.12V7.87976L130.104 7.87423Z" fill="white"/>
<path d="M164.3 5.7913L164.182 5.07864H164.115L163.998 5.80234L160.716 16.6193L160.649 16.6083V16.6193H154.93L150.061 0.576172H154.93L157.776 11.7301L157.938 13.4372H158.089L158.312 11.708L161.683 0.576172L161.694 0.587223V0.576172H166.608L169.979 11.708L170.203 13.4372H170.343L170.516 11.708L173.35 0.576172H178.231L173.361 16.6193H167.576L164.305 5.7913H164.3Z" fill="white"/>
<path d="M175.514 16.6193L182.96 0.576172H189.042L196.489 16.6193H191.62L190.222 13.3101H181.775L180.377 16.6193H175.508H175.514ZM183.1 10.1612H188.903L186.253 3.8522H185.761L183.1 10.1612Z" fill="white"/>
<path d="M214.691 0.576172L207.295 16.6193H201.073L193.677 0.576172H198.568L203.957 13.5035H204.399L209.794 0.576172H214.685H214.691Z" fill="white"/>
<path d="M216.614 16.6193V0.576172H232.043V3.8743H221.293V6.88514H230.908V10.1833H221.293V13.3212H232.11V16.6193H216.614Z" fill="white"/>
<path d="M251 11.9622C251 13.6306 250.279 14.8846 248.842 15.7188C247.405 16.553 245.303 16.9729 242.542 16.9729C241.127 16.9729 239.881 16.8237 238.802 16.5309C237.723 16.2381 236.823 15.8348 236.091 15.3266C235.358 14.8183 234.81 14.2217 234.441 13.5422C234.072 12.8627 233.888 12.1279 233.888 11.3545H238.383C238.399 11.6528 238.466 11.9456 238.584 12.2439C238.701 12.5423 238.919 12.8074 239.232 13.0395C239.545 13.2715 239.965 13.4593 240.501 13.6085C241.038 13.7576 241.726 13.8239 242.57 13.8239C243.263 13.8239 243.844 13.7797 244.308 13.6858C244.772 13.5919 245.147 13.4704 245.432 13.3157C245.717 13.161 245.913 12.9787 246.03 12.7688C246.148 12.5588 246.209 12.3434 246.209 12.1169C246.209 11.8904 246.164 11.6915 246.069 11.5257C245.974 11.36 245.829 11.2053 245.628 11.0783C245.426 10.9512 245.175 10.8407 244.873 10.7468C244.571 10.6529 244.208 10.5645 243.783 10.4871L239.288 9.66951C238.394 9.5093 237.633 9.2828 237.007 9.00105C236.381 8.7193 235.873 8.3823 235.476 7.99006C235.079 7.59783 234.794 7.15034 234.609 6.64761C234.425 6.14488 234.335 5.59796 234.335 5.00132C234.335 4.59803 234.391 4.20026 234.503 3.80802C234.615 3.41578 234.794 3.04012 235.045 2.68655C235.297 2.33298 235.621 2.00151 236.029 1.69767C236.437 1.39382 236.935 1.13417 237.527 0.913189C238.12 0.692209 238.813 0.515424 239.607 0.393885C240.401 0.272347 241.312 0.206055 242.335 0.206055C243.772 0.206055 245.007 0.344167 246.041 0.620392C247.076 0.896616 247.931 1.27228 248.607 1.75291C249.284 2.23354 249.792 2.80257 250.133 3.46551C250.474 4.12845 250.664 4.8411 250.709 5.60348H246.511C246.455 5.27754 246.354 4.97922 246.203 4.70852C246.052 4.43782 245.829 4.20026 245.516 3.99586C245.203 3.79145 244.795 3.63677 244.292 3.52628C243.788 3.41579 243.151 3.35501 242.374 3.35501C241.726 3.35501 241.189 3.40473 240.77 3.5097C240.35 3.61467 240.021 3.74173 239.775 3.89642C239.529 4.0511 239.361 4.22788 239.266 4.42124C239.171 4.6146 239.12 4.80243 239.12 4.97922C239.12 5.2002 239.165 5.39355 239.249 5.56481C239.333 5.73607 239.473 5.88523 239.663 6.01782C239.853 6.15041 240.099 6.2609 240.401 6.36034C240.703 6.45978 241.077 6.54265 241.524 6.61447L245.41 7.29398C246.399 7.47629 247.243 7.70279 247.948 7.96797C248.652 8.23314 249.228 8.55357 249.681 8.92923C250.133 9.3049 250.458 9.74133 250.67 10.2385C250.877 10.7357 250.983 11.3103 250.983 11.9622H251Z" fill="white"/>
<path d="M105.378 26.6079H110.728C111.594 26.6079 112.338 26.7074 112.958 26.9007C113.579 27.0941 114.093 27.3648 114.49 27.7128C114.887 28.0609 115.183 28.4641 115.373 28.9337C115.563 29.4033 115.653 29.9171 115.653 30.4695V31.4584C115.653 31.9943 115.563 32.497 115.384 32.9611C115.205 33.4251 114.92 33.834 114.523 34.1765C114.127 34.519 113.623 34.7952 112.997 34.9941C112.371 35.193 111.616 35.2979 110.728 35.2979H105.378V26.6079ZM107.944 33.5135H110.532C110.934 33.5135 111.292 33.4638 111.605 33.3644C111.918 33.2649 112.181 33.1213 112.399 32.9279C112.617 32.7401 112.779 32.5081 112.891 32.2318C113.003 31.9556 113.059 31.6407 113.059 31.2872V30.5579C113.059 30.2762 113.014 30.011 112.919 29.7458C112.824 29.4862 112.679 29.2541 112.477 29.0553C112.276 28.8564 112.013 28.6962 111.695 28.5746C111.376 28.4531 110.985 28.3978 110.532 28.3978H107.949V33.5135H107.944Z" fill="white"/>
<path d="M118.392 35.2979V26.6079H126.749V28.3923H120.924V30.0221H126.134V31.8065H120.924V33.508H126.783V35.2924H118.392V35.2979Z" fill="white"/>
<path d="M139.915 26.6079L135.912 35.2979H132.541L128.538 26.6079H131.188L134.106 33.6074H134.347L137.27 26.6079H139.92H139.915Z" fill="white"/>
<path d="M142.145 35.2979V26.6079H150.503V28.3923H144.678V30.0221H149.888V31.8065H144.678V33.508H150.536V35.2924H142.145V35.2979Z" fill="white"/>
<path d="M153.438 35.2978V26.6133H155.998V33.5134H161.124V35.2978H153.438Z" fill="white"/>
<path d="M163.204 30.5412C163.204 29.9114 163.316 29.3424 163.545 28.8341C163.774 28.3259 164.11 27.895 164.563 27.5359C165.015 27.1768 165.574 26.9006 166.251 26.7072C166.927 26.5138 167.71 26.4199 168.61 26.4199C169.51 26.4199 170.298 26.5194 170.969 26.7127C171.645 26.9116 172.205 27.1878 172.657 27.5469C173.11 27.906 173.446 28.3425 173.675 28.8507C173.898 29.359 174.016 29.9225 174.016 30.5467V31.3754C174.016 31.9941 173.904 32.5576 173.675 33.0659C173.446 33.5741 173.11 34.0051 172.657 34.3697C172.205 34.7288 171.64 35.005 170.969 35.2039C170.293 35.4028 169.504 35.5022 168.604 35.5022C167.704 35.5022 166.922 35.4083 166.251 35.2149C165.58 35.0216 165.01 34.7453 164.563 34.3862C164.115 34.0271 163.774 33.5907 163.551 33.0825C163.327 32.5742 163.21 32.0052 163.21 31.3809V30.5522L163.204 30.5412ZM168.604 33.6957C168.99 33.6957 169.359 33.6515 169.7 33.552C170.041 33.4581 170.343 33.3145 170.6 33.1267C170.857 32.9388 171.059 32.7013 171.204 32.414C171.349 32.1267 171.427 31.7953 171.427 31.4085V30.5081C171.427 30.1158 171.355 29.7788 171.204 29.486C171.059 29.1987 170.857 28.9557 170.6 28.7678C170.343 28.58 170.047 28.4364 169.7 28.348C169.359 28.2541 168.99 28.2099 168.604 28.2099C168.219 28.2099 167.855 28.2541 167.514 28.348C167.173 28.4419 166.877 28.5855 166.625 28.7734C166.374 28.9612 166.173 29.2043 166.022 29.4915C165.871 29.7788 165.798 30.1158 165.798 30.5081V31.4085C165.804 31.7953 165.876 32.1323 166.022 32.414C166.167 32.7013 166.368 32.9388 166.625 33.1267C166.877 33.3145 167.179 33.4581 167.514 33.552C167.855 33.646 168.219 33.6957 168.604 33.6957Z" fill="white"/>
<path d="M186.231 29.8011C186.231 30.2762 186.147 30.696 185.979 31.0607C185.811 31.4253 185.565 31.7291 185.247 31.9777C184.928 32.2263 184.542 32.4142 184.089 32.5357C183.637 32.6572 183.122 32.7235 182.547 32.7235H179.321V35.2979H176.766V26.6079H182.479C183.055 26.6079 183.575 26.6687 184.039 26.7902C184.503 26.9118 184.894 27.0885 185.219 27.3206C185.543 27.5526 185.789 27.8343 185.968 28.1713C186.141 28.5083 186.231 28.8895 186.231 29.3149V29.7955V29.8011ZM183.637 29.4917C183.637 29.1105 183.519 28.8288 183.284 28.6575C183.05 28.4862 182.686 28.3978 182.183 28.3978H179.321V30.9502H182.094C182.591 30.9502 182.977 30.8507 183.24 30.6574C183.502 30.464 183.637 30.1657 183.637 29.7624V29.4972V29.4917Z" fill="white"/>
<path d="M191.161 28.6078H191.072L191.139 29.2873L191.256 35.2979H188.847V26.6079H192.313L194.845 31.4474L194.996 31.9888H195.024L195.181 31.4363L197.707 26.6079H201.168V35.2979H198.77L198.887 29.2873L198.954 28.6023H198.865L196.237 34.0384H193.789L191.155 28.6078H191.161Z" fill="white"/>
<path d="M204.567 35.2979V26.6079H212.924V28.3923H207.099V30.0221H212.309V31.8065H207.099V33.508H212.958V35.2924H204.567V35.2979Z" fill="white"/>
<path d="M223.289 35.2979L218.241 29.6132H218.202L218.28 30.243L218.319 35.2979H215.876V26.6079H218.325L223.445 32.4363H223.484L223.423 31.8507L223.378 26.6079H225.821V35.2979H223.3H223.289Z" fill="white"/>
<path d="M234.14 28.3923V35.2979H231.574V28.3923H228.091V26.6079H237.622V28.3923H234.134H234.14Z" fill="white"/>
</g>
<defs>
<clipPath id="clip0_66_74">
<rect width="72.1649" height="35" fill="white" transform="translate(0.834961 0.665527)"/>
</clipPath>
<clipPath id="clip1_66_74">
<rect width="72.1649" height="35" fill="white" transform="translate(0.834961 0.665527)"/>
</clipPath>
<clipPath id="clip2_66_74">
<rect width="72.1649" height="35.017" fill="white" transform="translate(0.834961 0.656738)"/>
</clipPath>
<clipPath id="clip3_66_74">
<rect width="159" height="35" fill="white" transform="translate(92 0.665527)"/>
</clipPath>
</defs>
</svg>
