<svg width="159" height="36" viewBox="0 0 159 36" fill="none" xmlns="http://www.w3.org/2000/svg">
<g clip-path="url(#clip0_2021_399)">
<path d="M17.7269 12.1502C17.7269 12.9568 17.5648 13.6308 17.235 14.1832C16.9051 14.7357 16.4411 15.1721 15.843 15.5091C15.2448 15.8461 14.5293 16.0892 13.6963 16.2328C12.8633 16.3764 11.9465 16.4538 10.9459 16.4538H0V0.410645H11.1471C12.0695 0.410645 12.8969 0.49351 13.618 0.659245C14.3392 0.82498 14.9597 1.06806 15.4628 1.38296C15.966 1.69785 16.3517 2.09562 16.6144 2.5652C16.8772 3.03478 17.0114 3.57618 17.0114 4.18388V4.68108C17.0114 5.62024 16.7207 6.355 16.1449 6.87983C15.5691 7.40465 14.697 7.74717 13.523 7.90186C14.1323 7.96815 14.6914 8.09522 15.2057 8.2941C15.72 8.49298 16.1616 8.74711 16.5362 9.062C16.9107 9.3769 17.1958 9.74704 17.4027 10.1835C17.6095 10.6199 17.7157 11.095 17.7157 11.6254V12.1447L17.7269 12.1502ZM12.2316 4.78052C12.2316 4.60374 12.1981 4.43248 12.131 4.26674C12.0639 4.10101 11.9521 3.95185 11.7956 3.81374C11.6391 3.67562 11.4266 3.57065 11.1695 3.48779C10.9123 3.40492 10.5825 3.36625 10.1968 3.36625H4.72941V6.62017H9.9955C10.7726 6.62017 11.3428 6.47654 11.695 6.19479C12.0471 5.91304 12.226 5.5429 12.226 5.07884V4.76947L12.2316 4.78052ZM12.9416 11.2166C12.9248 10.9293 12.8522 10.6807 12.718 10.4763C12.5838 10.2719 12.3937 10.1006 12.1478 9.97354C11.9018 9.84648 11.6111 9.74704 11.2701 9.68627C10.9291 9.6255 10.5489 9.59788 10.1353 9.59788H4.72941V13.233H10.1912C10.5545 13.233 10.9067 13.2109 11.2366 13.1667C11.5664 13.1225 11.8627 13.0452 12.1198 12.9236C12.377 12.8021 12.5782 12.6308 12.7236 12.4043C12.8689 12.1778 12.9416 11.8795 12.9304 11.5149V11.2166H12.9416Z" fill="white"/>
<path d="M20.6003 16.4538V0.410645H25.3298V16.4538H20.6003Z" fill="white"/>
<path d="M38.1037 7.70871H47.4283L47.3836 9.48207C47.3836 9.55941 47.3836 9.6257 47.3836 9.68095C47.3836 9.73619 47.3724 9.80249 47.3669 9.87983C47.2942 10.7638 47.0482 11.62 46.6289 12.4542C46.2097 13.2884 45.6115 14.0287 44.84 14.6751C44.0686 15.3215 43.1294 15.8408 42.0225 16.2275C40.9156 16.6142 39.6354 16.8131 38.1931 16.8131C36.5272 16.8131 35.0681 16.6308 33.8215 16.2661C32.5749 15.9015 31.5351 15.3878 30.7021 14.7248C29.8691 14.0619 29.2542 13.2608 28.8405 12.3217C28.4268 11.3825 28.2256 10.3439 28.2256 9.20032V7.66451C28.2256 6.50436 28.4324 5.45471 28.8517 4.51555C29.271 3.57639 29.8971 2.77533 30.7301 2.1124C31.563 1.44946 32.6028 0.941202 33.8495 0.587634C35.0961 0.234067 36.544 0.0517578 38.2043 0.0517578C39.5069 0.0517578 40.6808 0.18987 41.7318 0.466095C42.7828 0.742319 43.6884 1.14561 44.4655 1.67043C45.2425 2.19526 45.8687 2.84163 46.3662 3.60953C46.8637 4.37744 47.2047 5.25031 47.406 6.23367H42.8219C42.5927 5.25583 42.084 4.51002 41.2902 3.99625C40.4963 3.48247 39.4621 3.22282 38.1875 3.22282C37.4552 3.22282 36.7732 3.31121 36.1359 3.49352C35.4986 3.67583 34.9452 3.94653 34.47 4.30562C33.9948 4.66471 33.6202 5.11772 33.3463 5.67017C33.0724 6.22262 32.9382 6.85793 32.9382 7.59269V9.29976C32.9382 10.0235 33.0724 10.6533 33.3463 11.2002C33.6202 11.7471 33.9892 12.2001 34.4644 12.5647C34.9396 12.9294 35.493 13.2001 36.1303 13.3824C36.7676 13.5647 37.4496 13.6531 38.182 13.6531C38.9981 13.6531 39.7081 13.5702 40.3063 13.4045C40.9044 13.2387 41.4076 13.0122 41.8101 12.7305C42.2126 12.4487 42.52 12.1173 42.7437 11.7416C42.9673 11.3659 43.107 10.9571 43.1629 10.5262H38.1205V7.71423L38.1037 7.70871Z" fill="white"/>
<path d="M72.2996 5.62577L72.1822 4.91311H72.1151L71.9977 5.63682L68.7162 16.4538L68.6491 16.4427V16.4538H62.9302L58.061 0.410645H62.9302L65.7757 11.5646L65.9378 13.2717H66.0887L66.3124 11.5425L69.6833 0.410645L69.6945 0.421696V0.410645H74.6084L77.9794 11.5425L78.203 13.2717H78.3427L78.516 11.5425L81.3503 0.410645H86.2307L81.3615 16.4538H75.5755L72.3052 5.62577H72.2996Z" fill="white"/>
<path d="M83.5139 16.4538L90.9602 0.410645H97.0425L104.489 16.4538H99.6196L98.222 13.1446H89.775L88.3775 16.4538H83.5083H83.5139ZM91.1 9.99564H96.9027L94.2529 3.68667H93.761L91.1 9.99564Z" fill="white"/>
<path d="M122.691 0.410645L115.295 16.4538H109.073L101.677 0.410645H106.568L111.957 13.338H112.399L117.794 0.410645H122.685H122.691Z" fill="white"/>
<path d="M124.614 16.4538V0.410645H140.043V3.70877H129.293V6.71962H138.908V10.0177H129.293V13.1557H140.11V16.4538H124.614Z" fill="white"/>
<path d="M159 11.7966C159 13.465 158.279 14.7191 156.842 15.5533C155.406 16.3875 153.304 16.8074 150.542 16.8074C149.128 16.8074 147.881 16.6582 146.802 16.3654C145.723 16.0726 144.823 15.6693 144.091 15.1611C143.358 14.6528 142.811 14.0562 142.442 13.3767C142.073 12.6971 141.888 11.9624 141.888 11.189H146.383C146.4 11.4873 146.467 11.7801 146.584 12.0784C146.701 12.3767 146.919 12.6419 147.233 12.8739C147.546 13.106 147.965 13.2938 148.502 13.443C149.038 13.5921 149.726 13.6584 150.57 13.6584C151.263 13.6584 151.845 13.6142 152.309 13.5203C152.773 13.4264 153.147 13.3048 153.432 13.1501C153.717 12.9955 153.913 12.8132 154.03 12.6032C154.148 12.3933 154.209 12.1778 154.209 11.9513C154.209 11.7248 154.165 11.5259 154.07 11.3602C153.974 11.1945 153.829 11.0398 153.628 10.9127C153.427 10.7857 153.175 10.6752 152.873 10.5813C152.571 10.4873 152.208 10.399 151.783 10.3216L147.288 9.50398C146.394 9.34377 145.634 9.11727 145.008 8.83552C144.381 8.55377 143.873 8.21678 143.476 7.82454C143.079 7.4323 142.794 6.98481 142.609 6.48209C142.425 5.97936 142.335 5.43243 142.335 4.83579C142.335 4.4325 142.391 4.03473 142.503 3.6425C142.615 3.25026 142.794 2.87459 143.045 2.52102C143.297 2.16746 143.621 1.83599 144.029 1.53214C144.437 1.22829 144.935 0.968642 145.527 0.747662C146.12 0.526682 146.813 0.349897 147.607 0.228358C148.401 0.106819 149.312 0.0405273 150.335 0.0405273C151.772 0.0405273 153.007 0.17864 154.042 0.454864C155.076 0.731089 155.931 1.10675 156.608 1.58738C157.284 2.06801 157.793 2.63704 158.134 3.29998C158.475 3.96292 158.665 4.67558 158.709 5.43796H154.511C154.455 5.11201 154.355 4.81369 154.204 4.54299C154.053 4.27229 153.829 4.03474 153.516 3.83033C153.203 3.62592 152.795 3.47124 152.292 3.36075C151.789 3.25026 151.151 3.18949 150.374 3.18949C149.726 3.18949 149.189 3.23921 148.77 3.34417C148.351 3.44914 148.021 3.5762 147.775 3.73089C147.529 3.88558 147.361 4.06236 147.266 4.25571C147.171 4.44907 147.121 4.63691 147.121 4.81369C147.121 5.03467 147.165 5.22803 147.249 5.39928C147.333 5.57054 147.473 5.71971 147.663 5.85229C147.853 5.98488 148.099 6.09537 148.401 6.19481C148.703 6.29425 149.077 6.37712 149.525 6.44894L153.41 7.12845C154.399 7.31076 155.243 7.53726 155.948 7.80244C156.652 8.06761 157.228 8.38804 157.681 8.7637C158.134 9.13937 158.458 9.5758 158.67 10.073C158.877 10.5702 158.983 11.1448 158.983 11.7966H159Z" fill="white"/>
<path d="M13.3777 26.4424H18.7276C19.5941 26.4424 20.3376 26.5418 20.9582 26.7352C21.5787 26.9285 22.093 27.1992 22.4899 27.5473C22.8868 27.8953 23.1831 28.2986 23.3732 28.7682C23.5633 29.2378 23.6527 29.7516 23.6527 30.304V31.2929C23.6527 31.8288 23.5633 32.3315 23.3844 32.7956C23.2055 33.2596 22.9204 33.6684 22.5235 34.0109C22.1265 34.3535 21.6234 34.6297 20.9973 34.8286C20.3712 35.0275 19.6165 35.1324 18.7276 35.1324H13.3777V26.4424ZM15.9436 33.348H18.532C18.9345 33.348 19.2922 33.2983 19.6053 33.1988C19.9184 33.0994 20.1811 32.9558 20.3991 32.7624C20.6172 32.5746 20.7793 32.3425 20.8911 32.0663C21.0029 31.7901 21.0588 31.4752 21.0588 31.1216V30.3924C21.0588 30.1107 21.0141 29.8455 20.919 29.5803C20.824 29.3206 20.6786 29.0886 20.4774 28.8897C20.2761 28.6909 20.0134 28.5306 19.6948 28.4091C19.3761 28.2876 18.9848 28.2323 18.532 28.2323H15.9492V33.348H15.9436Z" fill="white"/>
<path d="M26.3918 35.1324V26.4424H34.7494V28.2268H28.9243V29.8565H34.1344V31.6409H28.9243V33.3425H34.7829V35.1269H26.3918V35.1324Z" fill="white"/>
<path d="M47.9149 26.4424L43.9122 35.1324H40.5412L36.5386 26.4424H39.1884L42.1065 33.4419H42.3469L45.2707 26.4424H47.9205H47.9149Z" fill="white"/>
<path d="M50.145 35.1324V26.4424H58.5026V28.2268H52.6774V29.8565H57.8876V31.6409H52.6774V33.3425H58.5361V35.1269H50.145V35.1324Z" fill="white"/>
<path d="M61.4375 35.1323V26.4478H63.9979V33.3478H69.1242V35.1323H61.4375Z" fill="white"/>
<path d="M71.2041 30.3757C71.2041 29.7459 71.3159 29.1768 71.5451 28.6686C71.7743 28.1603 72.1097 27.7294 72.5626 27.3703C73.0154 27.0113 73.5744 26.735 74.2508 26.5417C74.9273 26.3483 75.7099 26.2544 76.6099 26.2544C77.51 26.2544 78.2982 26.3538 78.9691 26.5472C79.6455 26.7461 80.2045 27.0223 80.6573 27.3814C81.1102 27.7405 81.4456 28.1769 81.6748 28.6852C81.8984 29.1934 82.0158 29.7569 82.0158 30.3812V31.2099C82.0158 31.8286 81.904 32.3921 81.6748 32.9004C81.4456 33.4086 81.1102 33.8395 80.6573 34.2041C80.2045 34.5632 79.6399 34.8395 78.9691 35.0383C78.2926 35.2372 77.5044 35.3367 76.6044 35.3367C75.7043 35.3367 74.9217 35.2427 74.2508 35.0494C73.58 34.856 73.0098 34.5798 72.5626 34.2207C72.1153 33.8616 71.7743 33.4252 71.5507 32.9169C71.3271 32.4087 71.2097 31.8397 71.2097 31.2154V30.3867L71.2041 30.3757ZM76.6044 33.5302C76.9901 33.5302 77.359 33.486 77.7001 33.3865C78.0411 33.2926 78.3429 33.149 78.6001 32.9611C78.8573 32.7733 79.0585 32.5357 79.2038 32.2485C79.3492 31.9612 79.4275 31.6297 79.4275 31.243V30.3425C79.4275 29.9503 79.3548 29.6133 79.2038 29.3205C79.0585 29.0332 78.8573 28.7901 78.6001 28.6023C78.3429 28.4145 78.0467 28.2708 77.7001 28.1824C77.359 28.0885 76.9901 28.0443 76.6044 28.0443C76.2186 28.0443 75.8553 28.0885 75.5142 28.1824C75.1732 28.2764 74.8769 28.42 74.6254 28.6078C74.3738 28.7957 74.1726 29.0387 74.0216 29.326C73.8707 29.6133 73.798 29.9503 73.798 30.3425V31.243C73.8036 31.6297 73.8763 31.9667 74.0216 32.2485C74.167 32.5357 74.3682 32.7733 74.6254 32.9611C74.8769 33.149 75.1788 33.2926 75.5142 33.3865C75.8553 33.4804 76.2186 33.5302 76.6044 33.5302Z" fill="white"/>
<path d="M94.2305 29.6355C94.2305 30.1106 94.1467 30.5305 93.979 30.8951C93.8113 31.2597 93.5653 31.5636 93.2466 31.8122C92.928 32.0608 92.5422 32.2486 92.0894 32.3702C91.6366 32.4917 91.1223 32.558 90.5465 32.558H87.3209V35.1324H84.7661V26.4424H90.4794C91.0552 26.4424 91.5751 26.5032 92.0391 26.6247C92.5031 26.7462 92.8944 26.923 93.2187 27.155C93.5429 27.3871 93.7889 27.6688 93.9678 28.0058C94.1411 28.3428 94.2305 28.724 94.2305 29.1494V29.63V29.6355ZM91.6366 29.3262C91.6366 28.945 91.5192 28.6632 91.2844 28.492C91.0496 28.3207 90.6863 28.2323 90.1831 28.2323H87.3209V30.7846H90.0937C90.5912 30.7846 90.977 30.6852 91.2397 30.4918C91.5025 30.2985 91.6366 30.0002 91.6366 29.5969V29.3317V29.3262Z" fill="white"/>
<path d="M99.1611 28.4423H99.0716L99.1387 29.1218L99.2561 35.1324H96.8467V26.4424H100.313L102.845 31.2818L102.996 31.8232H103.024L103.181 31.2708L105.707 26.4424H109.168V35.1324H106.77L106.887 29.1218L106.954 28.4367H106.865L104.237 33.8728H101.789L99.1555 28.4423H99.1611Z" fill="white"/>
<path d="M112.567 35.1324V26.4424H120.924V28.2268H115.099V29.8565H120.309V31.6409H115.099V33.3425H120.958V35.1269H112.567V35.1324Z" fill="white"/>
<path d="M131.289 35.1324L126.241 29.4477H126.202L126.28 30.0775L126.319 35.1324H123.876V26.4424H126.325L131.445 32.2707H131.484L131.423 31.6851L131.378 26.4424H133.821V35.1324H131.3H131.289Z" fill="white"/>
<path d="M142.14 28.2268V35.1324H139.574V28.2268H136.091V26.4424H145.622V28.2268H142.134H142.14Z" fill="white"/>
</g>
<defs>
<clipPath id="clip0_2021_399">
<rect width="159" height="35" fill="white" transform="translate(0 0.5)"/>
</clipPath>
</defs>
</svg>
