<svg width="34" height="35" viewBox="0 0 34 35" fill="none" xmlns="http://www.w3.org/2000/svg">
<g clip-path="url(#clip0_103_4295)">
<path d="M29.5215 14.5194C29.5215 24.3599 16.8694 32.7947 16.8694 32.7947C16.8694 32.7947 4.21729 24.3599 4.21729 14.5194C4.21729 11.1639 5.55027 7.94576 7.923 5.57303C10.2957 3.2003 13.5138 1.86731 16.8694 1.86731C20.2249 1.86731 23.4431 3.2003 25.8158 5.57303C28.1885 7.94576 29.5215 11.1639 29.5215 14.5194Z" stroke="#F3F3F3" stroke-width="3.51447" stroke-linecap="round" stroke-linejoin="round"/>
<path d="M16.8694 18.7368C19.1986 18.7368 21.0868 16.8486 21.0868 14.5194C21.0868 12.1902 19.1986 10.302 16.8694 10.302C14.5402 10.302 12.652 12.1902 12.652 14.5194C12.652 16.8486 14.5402 18.7368 16.8694 18.7368Z" stroke="#F3F3F3" stroke-width="3.51447" stroke-linecap="round" stroke-linejoin="round"/>
</g>
<defs>
<clipPath id="clip0_103_4295">
<rect width="33.739" height="33.739" fill="white" transform="translate(0 0.461548)"/>
</clipPath>
</defs>
</svg>
