<svg width="24" height="21" viewBox="0 0 24 21" fill="none" xmlns="http://www.w3.org/2000/svg">
<path d="M12 5.33105C12 4.27019 11.5786 3.25277 10.8284 2.50263C10.0783 1.75248 9.06087 1.33105 8 1.33105H2V16.3311H9C9.79565 16.3311 10.5587 16.6471 11.1213 17.2097C11.6839 17.7723 12 18.5354 12 19.3311M12 5.33105V19.3311M12 5.33105C12 4.27019 12.4214 3.25277 13.1716 2.50263C13.9217 1.75248 14.9391 1.33105 16 1.33105H22V16.3311H15C14.2044 16.3311 13.4413 16.6471 12.8787 17.2097C12.3161 17.7723 12 18.5354 12 19.3311" stroke="#2EAFA3" stroke-width="2.5" stroke-linecap="round" stroke-linejoin="round"/>
</svg>
