<svg width="22" height="21" viewBox="0 0 22 21" fill="none" xmlns="http://www.w3.org/2000/svg">
<path d="M2.19995 16.3311V10.3311C2.19995 7.94411 3.14816 5.65492 4.83599 3.96709C6.52382 2.27927 8.813 1.33105 11.2 1.33105C13.5869 1.33105 15.8761 2.27927 17.5639 3.96709C19.2517 5.65492 20.2 7.94411 20.2 10.3311V16.3311M20.2 17.3311C20.2 17.8615 19.9892 18.3702 19.6142 18.7453C19.2391 19.1203 18.7304 19.3311 18.2 19.3311H17.2C16.6695 19.3311 16.1608 19.1203 15.7857 18.7453C15.4107 18.3702 15.2 17.8615 15.2 17.3311V14.3311C15.2 13.8006 15.4107 13.2919 15.7857 12.9168C16.1608 12.5418 16.6695 12.3311 17.2 12.3311H20.2V17.3311ZM2.19995 17.3311C2.19995 17.8615 2.41066 18.3702 2.78574 18.7453C3.16081 19.1203 3.66952 19.3311 4.19995 19.3311H5.19995C5.73038 19.3311 6.23909 19.1203 6.61416 18.7453C6.98924 18.3702 7.19995 17.8615 7.19995 17.3311V14.3311C7.19995 13.8006 6.98924 13.2919 6.61416 12.9168C6.23909 12.5418 5.73038 12.3311 5.19995 12.3311H2.19995V17.3311Z" stroke="#2EAFA3" stroke-width="2.5" stroke-linecap="round" stroke-linejoin="round"/>
</svg>
