<svg width="21" height="23" viewBox="0 0 21 23" fill="none" xmlns="http://www.w3.org/2000/svg">
<path d="M6.9899 12.8411L13.8199 16.8211M13.8099 5.84105L6.9899 9.82105M19.3999 4.33105C19.3999 5.98791 18.0568 7.33105 16.3999 7.33105C14.743 7.33105 13.3999 5.98791 13.3999 4.33105C13.3999 2.6742 14.743 1.33105 16.3999 1.33105C18.0568 1.33105 19.3999 2.6742 19.3999 4.33105ZM7.3999 11.3311C7.3999 12.9879 6.05676 14.3311 4.3999 14.3311C2.74305 14.3311 1.3999 12.9879 1.3999 11.3311C1.3999 9.6742 2.74305 8.33105 4.3999 8.33105C6.05676 8.33105 7.3999 9.6742 7.3999 11.3311ZM19.3999 18.3311C19.3999 19.9879 18.0568 21.3311 16.3999 21.3311C14.743 21.3311 13.3999 19.9879 13.3999 18.3311C13.3999 16.6742 14.743 15.3311 16.3999 15.3311C18.0568 15.3311 19.3999 16.6742 19.3999 18.3311Z" stroke="#2EAFA3" stroke-width="2.5" stroke-linecap="round" stroke-linejoin="round"/>
</svg>
