<?xml version="1.0" encoding="UTF-8"?>
<svg id="_Слой_1" data-name="Слой 1" xmlns="http://www.w3.org/2000/svg" viewBox="0 0 369.13 389.55">
  <defs>
    <style>
      .cls-1 {
        fill: #5d5ca5;
      }
    </style>
  </defs>
  <path class="cls-1" d="M369.13,176.57c-.1,1.32-.22,2.63-.31,3.95-.7,10.27-1.24,20.55-2.15,30.8-.68,7.69-1.57,15.38-2.84,22.99-3.16,19.02-9.33,36.95-20.27,53-12.67,18.59-29.8,31.52-50.81,39.25-7.41,2.73-15.14,4.59-22.72,6.85-10.66,3.18-21.59,4.97-32.58,6.51-19.88,2.79-39.85,3.92-59.9,3.5-7.22-.15-14.43-.69-21.64-1.06-1.39-.07-2.48,0-3.6,1.29-9.04,10.34-18.15,20.62-27.38,30.79-3.61,3.97-7.41,7.8-11.42,11.36-3.47,3.08-7.75,4.29-12.44,3.51-5.73-.96-9.05-4.64-10.48-9.95-.86-3.22-1.36-6.64-1.4-9.97-.16-12.4-.08-24.81-.03-37.21,0-1.28-.36-1.82-1.62-2.2-15.46-4.6-29.71-11.56-42.19-21.91-14.18-11.76-24.32-26.46-31.4-43.36-5.1-12.17-8.35-24.86-10.5-37.86C.21,207.36-.26,187.7,.1,168.02c.19-10.6,.49-21.22,1.29-31.78,1.33-17.69,4.36-35.09,10.35-51.88,5.81-16.26,14.21-30.96,26.43-43.27,6.99-7.04,15.24-12.39,23.96-17.03,13.94-7.43,28.78-12.4,44.11-16.01,11.56-2.72,23.26-4.61,35.06-5.93C156.86,.37,172.46-.25,188.1,.09c8.4,.18,16.81,.39,25.19,.92,26.1,1.63,51.67,5.94,76.22,15.31,11.61,4.43,22.67,9.92,32.74,17.27,13.51,9.86,22.96,22.94,29.87,37.98,6.2,13.5,10.33,27.67,12.63,42.32,1.57,9.95,2.53,19.99,3.66,30,.34,3,.27,6.04,.42,9.06,.06,1.21,.2,2.43,.3,3.64v19.99ZM100.93,305c0,.57,0,1.18,0,1.79-.16,20.81-.34,41.62-.47,62.43-.01,1.83,.14,3.7,.53,5.47,.43,1.94,1.76,2.71,3.59,1.96,1.61-.66,3.27-1.61,4.43-2.87,6.8-7.39,13.59-14.8,20.13-22.41,10.32-12.01,20.46-24.17,30.64-36.29,.67-.8,1.35-1.11,2.36-1.01,1.43,.14,2.86,.22,4.29,.28,14.15,.54,28.28,.37,42.39-.9,7.95-.72,15.89-1.54,23.8-2.56,14.01-1.82,27.73-5.14,41.33-8.87,20.5-5.63,36.91-17.1,48.39-35.19,8.85-13.94,13.58-29.38,15.66-45.61,1.39-10.81,2.37-21.68,3.04-32.56,.83-13.61,.8-27.24-.13-40.87-.79-11.5-2.2-22.91-4.68-34.17-3-13.65-7.36-26.8-14.5-38.9-6.46-10.96-14.99-19.75-26.39-25.69-9.19-4.79-18.77-8.56-28.69-11.52-11.34-3.38-22.9-5.76-34.62-7.27-7.56-.97-15.16-1.7-22.77-2.18-7.92-.5-15.87-.61-23.81-.85-12.57-.37-25.11,.13-37.59,1.54-8.47,.96-16.92,2.3-25.3,3.89-14.26,2.71-28.04,7.01-41.01,13.64-10.73,5.48-20.36,12.34-27.77,22.08-9.41,12.35-15.28,26.27-18.97,41.22-3.9,15.83-5.4,31.97-5.82,48.21-.51,19.62-.83,39.25,1.81,58.78,1.51,11.18,3.95,22.13,8.01,32.68,9.55,24.8,26.47,42.34,51.35,51.99,3.51,1.36,7.12,2.49,10.77,3.76Z"/>
  <path class="cls-1" d="M242.41,276.29c-5.01-.12-9.67-1.7-14.19-3.6-24.86-10.47-48.45-23.18-69.65-40.01-15.34-12.18-28.61-26.37-39.98-42.31-13.39-18.78-24.32-38.93-33.05-60.27-1.48-3.61-2.49-7.47-3.28-11.3-1.28-6.16,.76-11.68,4.37-16.57,5.79-7.85,13.06-14.21,21.45-19.07,6.84-3.96,13.76-2.72,18.92,3.52,8.83,10.68,16.83,21.92,24.19,33.65,4.85,7.74,2.61,18.02-3.77,22.3-2.42,1.62-4.54,3.69-6.96,5.31-3.89,2.61-5.59,9.39-4.2,13.34,8.67,24.65,23.4,44.19,47.22,55.99,4.41,2.19,9.17,3.74,13.86,5.3,4.54,1.51,9.83-.32,12.8-4.08,1.91-2.41,3.9-4.76,5.63-7.3,4.87-7.14,13.88-8.52,20.6-4.85,5.87,3.2,11.53,6.85,16.97,10.74,6.2,4.44,12.09,9.31,18.04,14.09,6.13,4.93,7.74,10.99,4.23,18.01-5.1,10.22-12.68,18.32-22.55,24.12-3.22,1.89-6.79,3.1-10.65,2.97Z"/>
  <path class="cls-1" d="M186.04,69.91c13.06,.56,25.76,2.87,37.71,8.23,31.1,13.97,50.4,37.6,57.42,71.07,1.8,8.55,2.53,17.21,2.5,25.93-.01,3.15-1.99,5.36-4.84,5.4-2.92,.04-5.03-2.19-5.04-5.38-.07-13.88-1.84-27.5-7.19-40.39-11.15-26.84-31.13-43.83-58.96-51.69-8.22-2.32-16.67-3.19-25.21-3.17-2.87,0-4.83-1.29-5.51-3.53-.98-3.22,1.3-6.31,4.81-6.47,1.43-.06,2.87-.01,4.3-.01Z"/>
  <path class="cls-1" d="M258.12,161.84c0,1.23,.03,2.46,0,3.69-.09,2.73-2.3,4.88-4.95,4.84-2.67-.04-4.91-2.2-4.87-4.93,.09-6.58-.41-13.11-2.3-19.43-5.67-19.04-18.13-31.5-36.92-37.7-5.8-1.92-11.81-2.86-17.88-3.4-2.95-.26-4.89-2.44-4.74-5.34,.14-2.64,2.35-4.68,5.21-4.5,26.97,1.71,51.63,15.06,62.25,43.19,2.86,7.58,4.17,15.47,4.21,23.57Z"/>
  <path class="cls-1" d="M232.54,155.08c.07,4.5-1.6,6.73-4.2,7.02-2.62,.28-5.08-1.33-5.51-3.81-.35-2.01-.39-4.08-.71-6.09-.97-6.06-3.08-11.57-8.09-15.52-4.17-3.28-9.1-4.5-14.26-5.02-.81-.08-1.64-.12-2.44-.25-2.64-.42-4.44-2.61-4.26-5.15,.19-2.64,2.3-4.8,4.96-4.67,14.22,.69,28.9,6.42,33.29,26.09,.64,2.88,.96,5.84,1.22,7.42Z"/>
</svg>