<svg width="21" height="21" viewBox="0 0 21 21" fill="none" xmlns="http://www.w3.org/2000/svg">
<g clip-path="url(#clip0_2021_255)">
<g clip-path="url(#clip1_2021_255)">
<g clip-path="url(#clip2_2021_255)">
<path d="M10.3724 0.17749C4.77285 0.17749 0.218802 4.73154 0.218802 10.3311C0.211912 12.4734 0.892264 14.5551 2.14962 16.281L0.887097 20.0548L4.78595 18.806C6.44601 19.9025 8.38888 20.4916 10.3721 20.4847C15.9716 20.4847 20.5257 15.9307 20.5257 10.3311C20.5257 4.73154 15.9723 0.17749 10.3724 0.17749ZM16.2817 14.5162C16.0378 15.21 15.0649 15.7787 14.2916 15.9496C13.7569 16.0629 13.0697 16.1542 10.7362 15.1828C7.74746 13.9475 5.83042 10.9198 5.67953 10.7204C5.53416 10.5223 4.47626 9.11439 4.47626 7.65379C4.47626 6.19318 5.21586 5.49285 5.51349 5.18833C5.75704 4.93617 6.16181 4.82455 6.55107 4.82455C6.67612 4.82455 6.7898 4.82455 6.88763 4.83144C7.18561 4.84488 7.33787 4.8652 7.53595 5.33404C7.78122 5.92311 8.37545 7.38337 8.44813 7.52908C8.52082 7.68134 8.59385 7.88597 8.48878 8.08404C8.39577 8.28212 8.30931 8.37513 8.16394 8.54599C8.01168 8.71858 7.86768 8.85052 7.72231 9.03516C7.58349 9.2012 7.43122 9.37378 7.60209 9.66969C7.77467 9.96078 8.36856 10.9322 9.24871 11.7121C10.3793 12.7242 11.298 13.0473 11.628 13.1879C11.8733 13.2861 12.1644 13.2589 12.3422 13.0746C12.574 12.8241 12.8516 12.4197 13.1358 12.0235C13.3405 11.7325 13.5978 11.7004 13.8686 11.7986C14.141 11.8985 15.5948 12.6126 15.8924 12.758C16.1904 12.9085 16.3881 12.9812 16.4542 13.1083C16.5269 13.2337 16.5269 13.8207 16.2817 14.5162Z" fill="#0EE227"/>
</g>
</g>
</g>
<defs>
<clipPath id="clip0_2021_255">
<rect width="20.3072" height="20.3072" fill="white" transform="translate(0.218994 0.17749)"/>
</clipPath>
<clipPath id="clip1_2021_255">
<rect width="20.3072" height="20.3072" fill="white" transform="translate(0.218994 0.17749)"/>
</clipPath>
<clipPath id="clip2_2021_255">
<rect width="20.3072" height="20.3072" fill="white" transform="translate(0.218994 0.17749)"/>
</clipPath>
</defs>
</svg>
