<svg width="30" height="21" viewBox="0 0 30 21" fill="none" xmlns="http://www.w3.org/2000/svg">
<path d="M15.7671 20.4581L9.74416 20.3479C7.79409 20.3096 5.83915 20.3861 3.92731 19.9886C1.01895 19.3943 0.812915 16.4812 0.597317 14.0375C0.300247 10.6021 0.415252 7.10433 0.975863 3.69756C1.29235 1.78602 2.53784 0.645381 4.46394 0.521258C10.966 0.0707986 17.5112 0.124183 23.9988 0.334338C24.6841 0.353603 25.3739 0.458902 26.0496 0.57876C29.3845 1.16334 29.4659 4.46465 29.682 7.24374C29.8977 10.0515 29.8066 12.8737 29.3945 15.6623C29.0639 17.9713 28.4315 19.9075 25.762 20.0944C22.4174 20.3389 19.1496 20.5356 15.7957 20.473C15.7959 20.4581 15.7767 20.4581 15.7671 20.4581ZM12.2262 14.6125C14.7466 13.1655 17.2189 11.7425 19.7249 10.305C17.1997 8.85792 14.7321 7.43492 12.2262 5.99751V14.6125Z" fill="#FF0000"/>
</svg>
